<svg xmlns="http://www.w3.org/2000/svg" width="422.519" height="276.173" viewBox="0 0 422.519 276.173">
  <path id="delivery" d="M.006,215.424c0-.079,0-.158.005-.237a9.679,9.679,0,0,1,9.727-9.514h2.554l39.443-76.258a9.69,9.69,0,0,1,8.647-5.226l67.34-.014-2.569-20.364a27.672,27.672,0,0,1,27.9-30.639h209a10.328,10.328,0,0,1,10.22,9.308l2.1,16.778H255.286a13.568,13.568,0,0,0-13.634,14,14.453,14.453,0,0,0,14.367,14h39.719l-.021.059H412.355a10.22,10.22,0,0,1,10.16,9.9,9.594,9.594,0,0,1-9.641,9.9H258.458a14.512,14.512,0,0,0-12.326,14.808A15.482,15.482,0,0,0,261.4,176.919H367.857a10.323,10.323,0,0,1,10.262,10,9.69,9.69,0,0,1-9.738,10h-105.2a14.515,14.515,0,0,0-12.537,14.84,15.485,15.485,0,0,0,15.393,15H386.726v.011h10.141a10.323,10.323,0,0,1,10.262,10,9.689,9.689,0,0,1-9.738,10h-8.752l3.423,35.818a27.672,27.672,0,0,1-27.9,30.638h-7.55a43.627,43.627,0,0,1-43.171,36.119,46.574,46.574,0,0,1-45.06-36.118H174.166a31.923,31.923,0,0,1-20.486-7.682,27.839,27.839,0,0,1-19.514,7.682h-1.55a43.626,43.626,0,0,1-43.171,36.118,46.574,46.574,0,0,1-45.06-36.118H38.166c-16.2,0-30.569-13.171-32.029-29.36L.043,216.361c-.008-.091,0-.181-.01-.273-.01-.139-.029-.275-.033-.415C0,215.589.006,215.508.006,215.424ZM312.921,329.345a24.253,24.253,0,0,0,24.346-25,25.837,25.837,0,0,0-25.655-25,24.253,24.253,0,0,0-24.345,25A25.836,25.836,0,0,0,312.921,329.345Zm-224,0a24.254,24.254,0,0,0,24.346-25,25.837,25.837,0,0,0-25.655-25,24.253,24.253,0,0,0-24.345,25A25.835,25.835,0,0,0,88.921,329.345Zm-62.86-46.757a12.042,12.042,0,0,0,11.58,10.639h6.727a43.629,43.629,0,0,1,42.721-33.882,46.582,46.582,0,0,1,44.494,33.882h2.059a8.493,8.493,0,0,0,6.389-2.685,8.606,8.606,0,0,0,2.106-6.676L129.528,144.175l-28.959.006,4.59,50.852a27.672,27.672,0,0,1-27.9,30.641H20.925Z" transform="translate(0 -73.172)" fill="#fff"/>
</svg>
