<svg xmlns="http://www.w3.org/2000/svg" width="24" height="24" viewBox="0 0 24 24"><path d="M22.675,0H1.325A1.325,1.325,0,0,0,0,1.325v21.35A1.325,1.325,0,0,0,1.325,24H12.819V14.706H9.691V11.084h3.128V8.413c0-3.1,1.893-4.788,4.659-4.788a25.407,25.407,0,0,1,2.8.143v3.24H18.355c-1.5,0-1.8.715-1.8,1.763v2.313h3.586l-.467,3.622h-3.12V24h6.116A1.325,1.325,0,0,0,24,22.675V1.325A1.325,1.325,0,0,0,22.675,0" fill="#fefefe" fill-rule="evenodd"/><path d="M0,0H24V24H0Z" fill="none" fill-rule="evenodd"/></svg>