<svg xmlns="http://www.w3.org/2000/svg" width="23.31" height="23.74" viewBox="0 0 23.31 23.74"><g transform="translate(0)"><path d="M127.055,114.538c3.112,0,3.483.008,4.713.066a6.423,6.423,0,0,1,2.163.4,3.574,3.574,0,0,1,1.337.883,3.752,3.752,0,0,1,.875,1.362,6.919,6.919,0,0,1,.4,2.2c.058,1.255.066,1.626.066,4.8s-.008,3.541-.066,4.8a6.473,6.473,0,0,1-.4,2.2,3.648,3.648,0,0,1-.875,1.362,3.573,3.573,0,0,1-1.337.883,6.263,6.263,0,0,1-2.163.4c-1.23.058-1.6.066-4.713.066s-3.483-.008-4.713-.066a6.423,6.423,0,0,1-2.163-.4,3.573,3.573,0,0,1-1.337-.883,3.752,3.752,0,0,1-.875-1.362,6.918,6.918,0,0,1-.4-2.2c-.058-1.255-.066-1.626-.066-4.8s.008-3.541.066-4.8a6.472,6.472,0,0,1,.4-2.2,3.647,3.647,0,0,1,.875-1.362,3.574,3.574,0,0,1,1.337-.883,6.262,6.262,0,0,1,2.163-.4c1.23-.05,1.6-.066,4.713-.066m0-2.138c-3.17,0-3.566.016-4.8.074a8.363,8.363,0,0,0-2.831.553,5.681,5.681,0,0,0-2.064,1.37,5.753,5.753,0,0,0-1.345,2.1,8.832,8.832,0,0,0-.545,2.881c-.058,1.263-.066,1.667-.066,4.887s.017,3.624.066,4.887a8.878,8.878,0,0,0,.545,2.881,5.821,5.821,0,0,0,1.345,2.1,5.75,5.75,0,0,0,2.064,1.37,8.363,8.363,0,0,0,2.831.553c1.246.058,1.643.074,4.8.074s3.566-.016,4.8-.074a8.363,8.363,0,0,0,2.831-.553,5.68,5.68,0,0,0,2.064-1.37,5.752,5.752,0,0,0,1.345-2.1,8.831,8.831,0,0,0,.545-2.881c.058-1.263.066-1.667.066-4.887s-.017-3.624-.066-4.887a8.877,8.877,0,0,0-.545-2.881,5.821,5.821,0,0,0-1.345-2.1,5.75,5.75,0,0,0-2.064-1.37,8.363,8.363,0,0,0-2.831-.553c-1.238-.058-1.643-.074-4.8-.074Z" transform="translate(-115.4 -112.4)" fill="#fff"/><path d="M190.562,182.3a6.58,6.58,0,1,0,6.462,6.578A6.515,6.515,0,0,0,190.562,182.3Zm0,10.848a4.27,4.27,0,1,1,4.2-4.27A4.233,4.233,0,0,1,190.562,193.148Z" transform="translate(-178.907 -177.016)" fill="#fff"/><ellipse cx="1.277" cy="1.3" rx="1.277" ry="1.3" transform="translate(16.673 4.158)" fill="#fff"/></g></svg>