<svg xmlns="http://www.w3.org/2000/svg" width="24.897" height="23.74" viewBox="0 0 24.897 23.74"><path d="M44.987,34.106C44.987,28.535,39.4,24,32.538,24S20.09,28.535,20.09,34.106c0,4.991,4.429,9.176,10.412,9.966.405.087.958.268,1.095.624a2.5,2.5,0,0,1,.041,1.126l-.178,1.064c-.053.312-.25,1.248,1.079.671s7.174-4.217,9.781-7.236h0a8.978,8.978,0,0,0,2.667-6.213" transform="translate(-20.09 -24)" fill="#fff"/><path d="M49.427,47.77h-.873a.243.243,0,0,0-.243.24v5.424a.243.243,0,0,0,.243.243h.873a.243.243,0,0,0,.243-.243V48.01a.243.243,0,0,0-.243-.24" transform="translate(-39.508 -40.356)"/><path d="M60.309,47.77h-.873a.243.243,0,0,0-.243.24v3.222l-2.5-3.356-.009-.034h0v-.016H55.633a.243.243,0,0,0-.243.24v5.368a.243.243,0,0,0,.243.243h.883a.24.24,0,0,0,.24-.243V50.215l2.5,3.359a.277.277,0,0,0,.062.059h.034a.2.2,0,0,0,.062,0h.873a.243.243,0,0,0,.243-.243V48.01a.243.243,0,0,0-.243-.24" transform="translate(-44.38 -40.356)"/><path d="M36.938,52.318H34.567V48.01a.243.243,0,0,0-.243-.24h-.861a.243.243,0,0,0-.243.24v5.424h0a.25.25,0,0,0,.069.168h0a.237.237,0,0,0,.168.069h3.481a.243.243,0,0,0,.243-.243v-.873a.243.243,0,0,0-.243-.243" transform="translate(-29.125 -40.356)"/><path d="M78.411,49.127a.24.24,0,0,0,.24-.243v-.87a.24.24,0,0,0-.24-.243h-3.49a.228.228,0,0,0-.165.069h0A.243.243,0,0,0,74.69,48h0v5.43h0a.237.237,0,0,0,.069.168h0a.234.234,0,0,0,.165.069h3.487a.24.24,0,0,0,.24-.243v-.873a.24.24,0,0,0-.24-.243H76.034V51.4h2.374a.24.24,0,0,0,.24-.243v-.873a.24.24,0,0,0-.24-.243H76.034v-.917Z" transform="translate(-57.66 -40.356)"/></svg>