<svg xmlns="http://www.w3.org/2000/svg" width="24" height="24" viewBox="0 0 24 24"><g transform="translate(0 2.744)"><rect width="24" height="24" transform="translate(0 -2.744)" fill="none"/><path d="M144.326,160.578c-.2-1.749-.624-2.258-.923-2.5a4.92,4.92,0,0,0-2.487-.58c-1.845-.123-4.983-.2-8.366-.2s-6.521.07-8.366.2a4.92,4.92,0,0,0-2.487.58c-.3.237-.712.747-.923,2.5a65.074,65.074,0,0,0,0,10.792c.211,1.749.624,2.259.923,2.5a4.92,4.92,0,0,0,2.487.58c1.845.123,4.974.2,8.366.2s6.521-.079,8.366-.2a4.92,4.92,0,0,0,2.487-.58c.3-.229.712-.747.923-2.5A65.082,65.082,0,0,0,144.326,160.578Zm-14.676,9.166v-7.549l7.241,3.77Z" transform="translate(-120.55 -156.718)" fill="#fff"/></g></svg>