<?xml version="1.0" standalone="no"?>
<!DOCTYPE svg PUBLIC "-//W3C//DTD SVG 1.1//EN" "http://www.w3.org/Graphics/SVG/1.1/DTD/svg11.dtd" >
<svg xmlns="http://www.w3.org/2000/svg" xmlns:xlink="http://www.w3.org/1999/xlink" version="1.1">
<metadata></metadata>
<defs>
<font id="avertasemibold" horiz-adv-x="1200" >
<font-face units-per-em="2048" ascent="1638" descent="-410" />
<missing-glyph horiz-adv-x="548" />
<glyph unicode="&#xd;" horiz-adv-x="0" />
<glyph unicode=" "  horiz-adv-x="548" />
<glyph unicode="&#x09;" horiz-adv-x="548" />
<glyph unicode="&#xa0;" horiz-adv-x="548" />
<glyph unicode="!" horiz-adv-x="552" d="M121 135q0 63 45.5 108.5t109.5 45.5q63 0 108.5 -45.5t45.5 -108.5t-45.5 -107t-108.5 -44q-65 0 -110 44t-45 107zM152 1507h260l-41 -1048h-178z" />
<glyph unicode="&#x22;" horiz-adv-x="792" d="M66 936l63 518h246l-123 -518h-186zM418 936l63 518h246l-123 -518h-186z" />
<glyph unicode="#" horiz-adv-x="1308" d="M76 313v174h252l47 301h-252v173h278l60 382h157l-59 -382h301l60 382h157l-57 -382h233l-2 -173h-260l-45 -301h256v-174h-282l-62 -397h-158l62 397h-301l-62 -397h-159l61 397h-225zM485 487h303l46 301h-302z" />
<glyph unicode="$" horiz-adv-x="1173" d="M102 203l146 174q83 -80 182 -121t193 -41q92 0 148 42.5t56 113.5q0 79 -58.5 121.5t-201.5 87.5q-58 18 -96 31t-88.5 34t-82.5 41.5t-67 50.5t-54.5 64t-32.5 79.5t-13 98.5q0 156 100 260.5t277 122.5v258h180v-264q98 -19 194.5 -62t166.5 -100l-140 -172 q-80 58 -165.5 87.5t-159.5 29.5q-90 0 -142.5 -38.5t-52.5 -105.5t57.5 -106t188.5 -80q67 -21 109.5 -36t95.5 -37.5t85 -43.5t66 -52t52 -66t30 -82t12 -103q0 -164 -106 -269t-291 -124v-246h-180v250q-234 32 -408 203z" />
<glyph unicode="%" horiz-adv-x="2095" d="M92 1065q0 171 115.5 288t298.5 117q173 0 292.5 -113t119.5 -292q0 -171 -115.5 -289.5t-296.5 -118.5q-174 0 -294 113.5t-120 294.5zM291 1063q0 -101 62 -166.5t153 -65.5q97 0 158 67t61 165q0 101 -62.5 165t-156.5 64q-95 0 -155 -66t-60 -163zM637 35l643 1450 l184 -80l-643 -1450zM1178 391q0 171 115 288.5t296 117.5q174 0 294 -113.5t120 -292.5q0 -171 -116 -289t-298 -118q-173 0 -292 114t-119 293zM1372 389q0 -101 63 -165t156 -64q97 0 158 66t61 163q0 101 -63 165t-156 64q-97 0 -158 -66t-61 -163z" />
<glyph unicode="&#x26;" horiz-adv-x="1372" d="M102 424q0 138 72.5 247t192.5 179v4l-160 201q22 180 147 297.5t301 117.5q74 0 140 -18t113 -46t87.5 -67.5t66 -75.5t46.5 -77l-197 -76q-18 32 -36 56t-46 48.5t-66.5 37.5t-86.5 14q-96 0 -153 -52t-74 -127l514 -641h6q55 119 55 244l223 4q0 -252 -127 -438v-6 l201 -250h-270l-90 113h-5q-147 -129 -381 -129q-132 0 -239.5 54.5t-170.5 155.5t-63 230zM342 438q0 -104 71.5 -169.5t186.5 -65.5q131 0 227 71v5l-325 407q-77 -40 -118.5 -107t-41.5 -141z" />
<glyph unicode="'" horiz-adv-x="440" d="M66 936l63 518h246l-123 -518h-186z" />
<glyph unicode="(" horiz-adv-x="624" d="M113 604q0 264 63.5 503t181.5 421l174 -80q-99 -180 -152.5 -397t-53.5 -447q0 -448 202 -842l-176 -77q-239 395 -239 919z" />
<glyph unicode=")" horiz-adv-x="624" d="M92 1448l174 80q118 -183 182 -421.5t64 -502.5q0 -522 -240 -919l-176 77q203 396 203 842q0 229 -54 446.5t-153 397.5z" />
<glyph unicode="*" horiz-adv-x="833" d="M92 1225l76 127l184 -117l-8 219h145l-10 -219l189 115l71 -125l-194 -103l194 -100l-71 -127l-185 117l6 -221h-145l8 221l-184 -117l-74 127l195 98z" />
<glyph unicode="+" horiz-adv-x="1183" d="M106 463v209h379v379h211v-379h379v-209h-379v-377h-211v377h-379z" />
<glyph unicode="," horiz-adv-x="487" d="M55 -270l66 518h246l-144 -518h-168z" />
<glyph unicode="-" horiz-adv-x="833" d="M109 520v223h616v-223h-616z" />
<glyph unicode="." horiz-adv-x="552" d="M121 135q0 63 45.5 108.5t109.5 45.5q63 0 108.5 -45.5t45.5 -108.5t-45.5 -107t-108.5 -44q-65 0 -110 44t-45 107z" />
<glyph unicode="/" horiz-adv-x="880" d="M-68 -145l785 1747l180 -84l-782 -1747z" />
<glyph unicode="0" horiz-adv-x="1294" d="M106 702q0 324 145.5 521.5t395.5 197.5q243 0 392 -190.5t149 -528.5q0 -323 -145 -520.5t-396 -197.5q-243 0 -392 191t-149 527zM348 702q0 -231 81.5 -364t217.5 -133q141 0 220 131t79 366t-80 367.5t-219 132.5t-219 -132.5t-80 -367.5z" />
<glyph unicode="1" horiz-adv-x="817" d="M37 1108l412 299h192v-1407h-238v1122l-253 -190z" />
<glyph unicode="2" horiz-adv-x="1089" d="M80 1153q64 122 178 194t277 72q117 0 216 -48.5t161.5 -144t62.5 -220.5q0 -121 -52 -230.5t-182 -243.5l-297 -309l2 -6h543v-217h-903l-4 158l453 477q100 105 149 183t49 161q0 95 -60 157t-155 62q-174 0 -268 -166z" />
<glyph unicode="3" horiz-adv-x="1126" d="M57 283l205 90q33 -80 102.5 -124t172.5 -44q102 0 171.5 58t69.5 151q0 89 -69 150t-195 61h-106v200h129q103 0 153.5 53t50.5 134q0 83 -61 136.5t-150 53.5q-154 0 -231 -123l-190 103q53 108 165.5 173.5t262.5 65.5q191 0 317.5 -99.5t126.5 -272.5 q0 -103 -49 -186t-137 -130v-6q104 -47 164.5 -136.5t60.5 -209.5q0 -178 -131.5 -287.5t-335.5 -109.5q-179 0 -310.5 82.5t-185.5 216.5z" />
<glyph unicode="4" horiz-adv-x="1183" d="M66 238v161l653 1008h199v-958h194v-211h-194v-238h-238v238h-614zM342 442h346v564z" />
<glyph unicode="5" horiz-adv-x="1155" d="M74 211l172 137q46 -67 120.5 -106t165.5 -39q126 0 201.5 71t75.5 181q0 112 -82 177.5t-190 65.5q-140 0 -230 -73l-129 45l41 737h762v-219h-539l-18 -316q102 31 182 31q189 0 317 -123t128 -329q0 -208 -137.5 -337.5t-360.5 -129.5q-146 0 -271 59t-208 168z" />
<glyph unicode="6" horiz-adv-x="1208" d="M104 551q0 172 56 326.5t154 270.5t232.5 195t289.5 107l75 -199q-408 -114 -524 -424l4 -4q121 74 281 74q190 0 313 -121.5t123 -331.5q0 -199 -144 -329.5t-358 -130.5q-215 0 -358.5 157t-143.5 410zM336 522q0 -138 83.5 -227.5t203.5 -89.5q108 0 177.5 71.5 t69.5 172.5q0 102 -71 167.5t-187 65.5q-84 0 -156 -39.5t-120 -101.5v-19z" />
<glyph unicode="7" horiz-adv-x="1011" d="M47 1190v217h875v-158l-516 -1278l-240 45l489 1174h-608z" />
<glyph unicode="8" horiz-adv-x="1179" d="M88 387q0 136 68 233.5t174 139.5v4q-69 34 -120.5 115t-51.5 180q0 169 121 265.5t311 96.5q194 0 315 -98.5t121 -263.5q0 -101 -53 -184t-121 -111v-4q107 -41 175.5 -138t68.5 -235q0 -121 -67.5 -213t-182 -140t-256.5 -48q-219 0 -360.5 111.5t-141.5 289.5z M330 418q0 -93 75.5 -157t184.5 -64q115 0 188.5 65t73.5 156q0 100 -72.5 163.5t-189.5 63.5q-116 0 -188 -63.5t-72 -163.5zM383 1036q0 -78 58 -126t149 -48q93 0 151 48t58 126q0 75 -59.5 125.5t-149.5 50.5t-148.5 -52t-58.5 -124z" />
<glyph unicode="9" horiz-adv-x="1196" d="M90 961q0 201 144 330.5t358 129.5t358 -155t144 -400q0 -178 -57.5 -336t-157.5 -275t-235.5 -196t-291.5 -108l-76 199q200 56 336 159.5t199 270.5l-2 2q-124 -74 -283 -74q-189 0 -312.5 122.5t-123.5 330.5zM330 958q0 -104 69.5 -168.5t186.5 -64.5q82 0 154 39 t122 100v21q0 141 -74.5 229t-191.5 88q-118 0 -192 -71.5t-74 -172.5z" />
<glyph unicode=":" horiz-adv-x="552" d="M113 135q0 63 45.5 108.5t109.5 45.5q63 0 108.5 -45.5t45.5 -108.5t-45.5 -107t-108.5 -44q-65 0 -110 44t-45 107zM113 860q0 63 45.5 108.5t109.5 45.5q63 0 108.5 -45.5t45.5 -108.5t-45.5 -107t-108.5 -44q-65 0 -110 44t-45 107z" />
<glyph unicode=";" horiz-adv-x="507" d="M78 -270l65 518h246l-143 -518h-168zM111 860q0 63 45.5 108.5t109.5 45.5q63 0 108.5 -45.5t45.5 -108.5t-45.5 -107t-108.5 -44q-65 0 -110 44t-45 107z" />
<glyph unicode="&#x3c;" horiz-adv-x="1189" d="M117 475v172l942 420v-231l-633 -273l633 -272v-228z" />
<glyph unicode="=" horiz-adv-x="1210" d="M139 229v209h969v-209h-969zM139 696v209h969v-209h-969z" />
<glyph unicode="&#x3e;" horiz-adv-x="1189" d="M131 63v228l633 272l-633 273v231l942 -420v-172z" />
<glyph unicode="?" horiz-adv-x="948" d="M33 1335q71 90 175.5 139.5t229.5 49.5q84 0 159 -25.5t135 -73t95 -124.5t35 -173q0 -109 -48 -192.5t-132 -165.5q-15 -15 -49 -45t-49.5 -46t-36.5 -40t-30.5 -46t-10.5 -44l-6 -90h-203v102q0 21 2 40.5t10 40t13 34.5t20 35.5t20.5 31t26.5 32.5t26 28.5t30 31.5 t28 29q64 69 97.5 126t33.5 126q0 85 -51 132.5t-133 47.5q-60 0 -119 -32t-96 -88zM248 135q0 63 45.5 108.5t109.5 45.5q63 0 108.5 -45.5t45.5 -108.5t-45.5 -107t-108.5 -44q-65 0 -110 44t-45 107z" />
<glyph unicode="@" horiz-adv-x="1843" d="M92 487q0 81 14.5 163.5t47.5 168t81.5 162.5t122 145t163 117.5t210 78t258.5 28.5q229 0 403.5 -98t266.5 -267t92 -383q0 -62 -11.5 -126.5t-43 -136.5t-79.5 -127t-128.5 -91.5t-181.5 -36.5q-58 0 -105 18.5t-74 49.5q-32 42 -45 98h-6q-43 -70 -113 -108t-157 -38 q-152 0 -247 108t-95 282q0 56 12.5 116.5t42.5 125.5t73.5 116t112.5 84t152 33q167 0 248 -146l4 2l14 129h234l-55 -536q-3 -30 -3 -51q0 -59 18.5 -81t57.5 -22q60 0 107 59t68.5 134t21.5 143q0 121 -42 228t-117 186.5t-185.5 125.5t-241.5 46q-140 0 -259.5 -40 t-202.5 -108t-141.5 -158.5t-86 -190.5t-27.5 -204q0 -118 40 -227.5t113 -196t188 -138.5t255 -52q126 0 218 25t190 79l76 -125q-191 -149 -484 -149q-168 0 -311 56.5t-245 158.5t-160 249t-58 322zM698 514q0 -90 51 -146.5t128 -56.5q98 0 161.5 76t63.5 176 q0 87 -50 143t-124 56q-99 0 -164.5 -73t-65.5 -175z" />
<glyph unicode="A" horiz-adv-x="1423" d="M47 0l543 1454h241l545 -1454h-258l-110 313h-594l-109 -313h-258zM489 526h445l-221 631h-4z" />
<glyph unicode="B" horiz-adv-x="1327" d="M178 0v1454h506q228 0 350.5 -89t122.5 -265q0 -108 -54 -198t-161 -132v-2q132 -32 210.5 -127.5t78.5 -241.5q0 -180 -122 -289.5t-355 -109.5h-576zM426 221h297q118 0 184 52t66 153q0 99 -73.5 156t-215.5 57h-258v-418zM426 852h240q110 0 174.5 47t64.5 145 q0 89 -62 140t-186 51l-231 -2v-381z" />
<glyph unicode="C" horiz-adv-x="1492" d="M113 723q0 156 49 291.5t139.5 237t230 160t310.5 58.5q163 0 312 -70.5t261 -207.5l-182 -154q-163 199 -391 199q-208 0 -339.5 -142.5t-131.5 -371.5q0 -223 133.5 -363.5t341.5 -140.5q118 0 218 54t173 145l182 -156q-100 -125 -245.5 -199.5t-327.5 -74.5 q-149 0 -281 48.5t-233 139t-160 232t-59 315.5z" />
<glyph unicode="D" horiz-adv-x="1507" d="M178 0v1454h463q170 0 312 -53.5t239.5 -149.5t151 -231t53.5 -295t-52 -294t-147.5 -229.5t-237 -148.5t-313.5 -53h-469zM426 221h207q227 0 367.5 142t140.5 362q0 222 -138.5 365t-357.5 143h-219v-1012z" />
<glyph unicode="E" horiz-adv-x="1243" d="M178 0v1454h916v-221h-668v-402h539v-221h-539v-389h711v-221h-959z" />
<glyph unicode="F" horiz-adv-x="1218" d="M178 0v1454h950v-221h-702v-434h590v-224h-590v-575h-248z" />
<glyph unicode="G" horiz-adv-x="1554" d="M113 725q0 160 50.5 297t143 236t229.5 155.5t302 56.5q159 0 308 -60t259 -179l-174 -152q-161 158 -395 158q-201 0 -333 -140t-132 -372q0 -145 57.5 -261t166.5 -183.5t251 -67.5q180 0 323 96v246h-356v221h602v-606q-101 -84 -252 -133t-317 -49q-210 0 -375 87 t-261.5 256t-96.5 394z" />
<glyph unicode="H" horiz-adv-x="1507" d="M178 0v1454h248v-649h655v649h248v-1454h-248v584h-655v-584h-248z" />
<glyph unicode="I" horiz-adv-x="622" d="M186 0v1454h248v-1454h-248z" />
<glyph unicode="J" horiz-adv-x="1038" d="M63 170l140 180q44 -53 108 -91t127 -38q197 0 197 279v954h248v-956q0 -249 -103 -379.5t-331 -130.5q-108 0 -213 47t-173 135z" />
<glyph unicode="K" horiz-adv-x="1359" d="M178 0v1454h248v-696h4l557 696h316l-547 -649l563 -805h-307l-420 608l-166 -196v-412h-248z" />
<glyph unicode="L" horiz-adv-x="1173" d="M178 0v1454h248v-1233h674v-221h-922z" />
<glyph unicode="M" horiz-adv-x="1816" d="M180 0v1454h248l479 -870h4l480 870h247v-1454h-247v973h-5l-397 -692h-162l-397 692h-2v-973h-248z" />
<glyph unicode="N" horiz-adv-x="1562" d="M178 0v1454h246l711 -1044h4v1044h245v-1454h-251l-703 1026h-4v-1026h-248z" />
<glyph unicode="O" horiz-adv-x="1693" d="M113 727q0 212 92 381.5t260.5 265.5t382.5 96q209 0 375.5 -92.5t262 -262.5t95.5 -388q0 -163 -55.5 -302t-153 -235.5t-233 -151t-291.5 -54.5q-214 0 -382.5 96t-260.5 265.5t-92 381.5zM369 727q0 -142 59.5 -258.5t170 -185t249.5 -68.5q202 0 338.5 145.5 t136.5 366.5q0 222 -136 367t-339 145q-139 0 -249.5 -68.5t-170 -185t-59.5 -258.5z" />
<glyph unicode="P" horiz-adv-x="1288" d="M178 0v1454h527q127 0 224 -35.5t155.5 -99.5t88 -148.5t29.5 -187.5q0 -229 -141.5 -347t-384.5 -118h-250v-518h-248zM426 741h225q147 0 221 67t74 179q0 116 -71.5 181t-204.5 65h-244v-492z" />
<glyph unicode="Q" horiz-adv-x="1736" d="M113 727q0 212 92 381.5t260.5 265.5t382.5 96q209 0 375.5 -92.5t262 -262.5t95.5 -388q0 -252 -129 -442l170 -152l-139 -176l-185 168q-193 -141 -450 -141q-214 0 -382.5 96t-260.5 265.5t-92 381.5zM369 727q0 -222 137.5 -367t341.5 -145q147 0 266 82l-145 133 l137 164l151 -135q66 120 66 268q0 142 -58.5 258.5t-168 185t-248.5 68.5q-204 0 -341.5 -145t-137.5 -367z" />
<glyph unicode="R" horiz-adv-x="1349" d="M178 0v1454h537q127 0 223.5 -35.5t155.5 -99.5t88.5 -148.5t29.5 -187.5q0 -171 -82 -282.5t-241 -157.5l377 -543h-297l-348 518h-195v-518h-248zM426 741h236q144 0 219 67t75 179q0 116 -72.5 181t-205.5 65h-252v-492z" />
<glyph unicode="S" horiz-adv-x="1210" d="M86 213l156 190q76 -92 175.5 -141t196.5 -49q117 0 179.5 47.5t62.5 128.5q0 38 -13 67.5t-32 50.5t-59 42t-76 36t-101 38q-78 28 -132 51t-117 61.5t-101 81.5t-64 107t-26 141q0 169 135.5 287t325.5 118q257 0 481 -178l-147 -194q-181 149 -334 149 q-88 0 -146 -45.5t-59 -124.5q0 -26 6 -47t26 -40.5t36 -32t57 -31t65 -28t83 -32.5q181 -71 241 -104q136 -74 181 -184q28 -68 28 -158q0 -87 -30 -160.5t-79.5 -123.5t-115 -85t-135.5 -51t-142 -16q-144 0 -279.5 57t-246.5 172z" />
<glyph unicode="T" horiz-adv-x="1206" d="M66 1233v221h1077v-221h-418v-1233h-248v1233h-411z" />
<glyph unicode="U" horiz-adv-x="1472" d="M158 598v856h245v-838q0 -177 89 -288t243 -111q149 0 241.5 107.5t92.5 291.5v838h248v-856q0 -284 -155.5 -449t-426.5 -165q-262 0 -419.5 162.5t-157.5 451.5z" />
<glyph unicode="V" horiz-adv-x="1415" d="M61 1454h267l387 -1098h2l385 1098h264l-543 -1454h-219z" />
<glyph unicode="W" horiz-adv-x="2119" d="M66 1454h264l311 -1048h4l285 1048h262l283 -1046h4l313 1046h262l-461 -1454h-231l-297 1094h-4l-303 -1094h-232z" />
<glyph unicode="X" horiz-adv-x="1421" d="M66 0l481 729l-471 725h289l348 -536h2l348 536h283l-472 -725l484 -729h-291l-356 537h-4l-355 -537h-286z" />
<glyph unicode="Y" horiz-adv-x="1280" d="M29 1454h282l326 -563h4l324 563h286l-489 -811v-643h-248v643z" />
<glyph unicode="Z" horiz-adv-x="1282" d="M117 0v195l714 1034l-2 4h-679v221h1007v-190l-727 -1037l4 -6h727v-221h-1044z" />
<glyph unicode="[" horiz-adv-x="681" d="M121 -301v1800h459v-176h-256v-1446h256v-178h-459z" />
<glyph unicode="\" horiz-adv-x="897" d="M-16 1518l180 84l784 -1747l-182 -84z" />
<glyph unicode="]" horiz-adv-x="681" d="M102 -123h256v1446h-256v176h459v-1800h-459v178z" />
<glyph unicode="^" horiz-adv-x="962" d="M113 1024l280 430h174l283 -430h-201l-170 276l-174 -276h-192z" />
<glyph unicode="_" horiz-adv-x="1087" d="M-4 -55h1096v-158h-1096v158z" />
<glyph unicode="`" horiz-adv-x="1030" d="M238 1393l256 -2l225 -293h-227z" />
<glyph unicode="a" horiz-adv-x="1251" d="M88 496q0 225 137.5 371.5t343.5 146.5q200 0 310 -137l4 2v120h229v-999h-219v131l-4 2q-112 -149 -318 -149q-210 0 -346.5 141.5t-136.5 370.5zM322 494q0 -133 79.5 -217t206.5 -84q120 0 202.5 84.5t82.5 216.5q0 134 -81 223.5t-204 89.5t-204.5 -85.5 t-81.5 -227.5z" />
<glyph unicode="b" horiz-adv-x="1271" d="M150 0v1507h229v-626h2q118 133 317 133q208 0 346 -146.5t138 -371.5q0 -229 -137 -370.5t-349 -141.5q-208 0 -323 149h-4v-133h-219zM369 494q0 -133 84 -217t209 -84q126 0 206 84.5t80 216.5q0 141 -83 227t-206 86q-128 0 -209 -89t-81 -224z" />
<glyph unicode="c" horiz-adv-x="1089" d="M90 498q0 229 145 372.5t373 143.5q121 0 234 -48.5t186 -138.5l-156 -135q-96 115 -251 115q-133 0 -215 -85t-82 -222q0 -138 82.5 -222.5t214.5 -84.5q81 0 146 31.5t105 84.5l158 -139q-143 -186 -430 -186q-223 0 -366.5 143.5t-143.5 370.5z" />
<glyph unicode="d" horiz-adv-x="1269" d="M88 496q0 148 63.5 267t173.5 185t246 66q204 0 320 -137h2v630h227v-1507h-219v135h-2q-116 -151 -326 -151t-347.5 141.5t-137.5 370.5zM322 494q0 -132 80 -216.5t206 -84.5q125 0 209 84t84 217q0 135 -81.5 224t-209.5 89q-123 0 -205.5 -86t-82.5 -227z" />
<glyph unicode="e" horiz-adv-x="1150" d="M90 500q0 229 140.5 371.5t361.5 142.5q209 0 340 -141t131 -361q0 -40 -6 -88h-729q22 -109 99 -170t194 -61q157 0 251 116l160 -137q-145 -188 -424 -188q-229 0 -373.5 141.5t-144.5 374.5zM332 604h499q-23 94 -84.5 148.5t-156.5 54.5q-96 0 -165 -53t-93 -150z " />
<glyph unicode="f" horiz-adv-x="702" d="M76 805v194h110v183q0 167 77.5 254.5t225.5 87.5q144 0 250 -70l-51 -192q-109 51 -166 51q-106 0 -106 -156v-158h246v-194h-246v-805h-230v805h-110z" />
<glyph unicode="g" horiz-adv-x="1243" d="M86 510q0 220 134 362t341 142q184 0 311 -121h5v106h229v-897q0 -117 -28 -210t-87 -164t-159 -109.5t-236 -38.5q-234 0 -408 105l56 200q97 -51 169.5 -74.5t170.5 -23.5q142 0 219.5 70.5t77.5 175.5v104h-4q-121 -121 -304 -121q-212 0 -349.5 137t-137.5 357z M319 516q0 -131 80.5 -210t204.5 -79t203.5 82.5t79.5 210.5q0 126 -80.5 205.5t-202.5 79.5q-127 0 -206 -80.5t-79 -208.5z" />
<glyph unicode="h" horiz-adv-x="1224" d="M150 0v1507h229v-633h2q128 140 340 140q174 0 273.5 -100.5t99.5 -315.5v-598h-230v539q0 144 -54.5 206t-162.5 62q-126 0 -197 -76.5t-71 -222.5v-508h-229z" />
<glyph unicode="i" horiz-adv-x="557" d="M125 1300q0 62 45 107t109 45t109.5 -45t45.5 -107q0 -63 -45.5 -108t-109.5 -45t-109 45t-45 108zM164 0v999h229v-999h-229z" />
<glyph unicode="j" horiz-adv-x="509" d="M-100 -385l39 199q47 -29 104 -29q100 0 100 147v1067h230v-1067q0 -169 -78.5 -261.5t-200.5 -92.5q-57 0 -98 7.5t-96 29.5zM102 1300q0 62 45 107t109 45t110 -45t46 -107q0 -63 -46 -108t-110 -45t-109 45t-45 108z" />
<glyph unicode="k" horiz-adv-x="1095" d="M150 0v1507h229v-968l4 -2l405 462h273l-361 -401l367 -598h-258l-268 440l-162 -176v-264h-229z" />
<glyph unicode="l" horiz-adv-x="557" d="M164 0v1507h229v-1507h-229z" />
<glyph unicode="m" horiz-adv-x="1837" d="M150 0v999h229v-137h2q61 73 142.5 112.5t168.5 39.5q212 0 299 -166h4q63 81 155.5 123.5t203.5 42.5q168 0 259 -108.5t91 -327.5v-578h-229v520q0 287 -195 287q-100 0 -166.5 -83t-66.5 -226v-498h-230v520q0 138 -50 212.5t-149 74.5q-106 0 -172.5 -82.5 t-66.5 -226.5v-498h-229z" />
<glyph unicode="n" horiz-adv-x="1214" d="M150 0v999h229v-137h4q61 73 148 112.5t186 39.5q172 0 269 -104t97 -322v-588h-229v528q0 152 -54.5 215.5t-162.5 63.5q-119 0 -188.5 -80t-69.5 -225v-502h-229z" />
<glyph unicode="o" horiz-adv-x="1228" d="M90 498q0 147 64.5 264t184.5 184.5t275 67.5q231 0 378 -143.5t147 -372.5q0 -227 -147 -370.5t-378 -143.5q-233 0 -378.5 145.5t-145.5 368.5zM324 498q0 -129 81.5 -217t208.5 -88q123 0 207 86t84 219q0 136 -83 222.5t-208 86.5q-129 0 -209.5 -88t-80.5 -221z" />
<glyph unicode="p" horiz-adv-x="1271" d="M150 -406v1405h229v-118h4q114 133 315 133q208 0 346 -146.5t138 -371.5q0 -229 -137 -370.5t-349 -141.5q-199 0 -313 139l-4 -2v-527h-229zM369 494q0 -133 84 -217t209 -84q126 0 206 84.5t80 216.5q0 141 -83 227t-206 86q-128 0 -209 -89t-81 -224z" />
<glyph unicode="q" horiz-adv-x="1261" d="M90 496q0 225 137.5 371.5t343.5 146.5q204 0 320 -137h2v122h229v-1405h-229v529h-2q-114 -139 -318 -139q-210 0 -346.5 141.5t-136.5 370.5zM324 494q0 -133 79.5 -217t206.5 -84q124 0 207.5 84t83.5 217q0 135 -81.5 224t-209.5 89q-123 0 -204.5 -85.5 t-81.5 -227.5z" />
<glyph unicode="r" horiz-adv-x="761" d="M150 0v999h229v-149h4q59 78 139 121t170 43h29v-256q-54 4 -70 4q-127 0 -199.5 -81t-72.5 -208v-473h-229z" />
<glyph unicode="s" horiz-adv-x="919" d="M66 129l114 172q61 -60 130 -88.5t159 -28.5q65 0 102 27t37 72q0 35 -42 58t-154 62q-70 24 -118.5 48.5t-94.5 62t-69.5 92t-23.5 125.5q0 123 99.5 203t253.5 80q198 0 352 -125l-115 -180q-112 106 -250 106q-40 0 -74 -22t-34 -64q0 -35 39.5 -63t118.5 -58 q14 -5 41 -16q37 -14 54.5 -21.5t48.5 -20.5t46 -21.5t39 -22t35.5 -25l28 -28t24 -33t15.5 -37.5t11 -44.5t3 -51.5q0 -133 -95.5 -218t-277.5 -85q-239 0 -403 145z" />
<glyph unicode="t" horiz-adv-x="747" d="M45 805v194h123v332l229 25v-357h293v-194h-293v-467q0 -75 23 -107t74 -32q68 0 147 43l59 -199q-52 -29 -108 -44t-146 -15q-132 0 -205 83.5t-73 247.5v490h-123z" />
<glyph unicode="u" horiz-adv-x="1183" d="M129 391v608h229v-546q0 -145 46.5 -202.5t152.5 -57.5t181 86.5t75 240.5v479h229v-999h-229v125l-4 2q-119 -143 -305 -143q-176 0 -275.5 97t-99.5 310z" />
<glyph unicode="v" horiz-adv-x="1093" d="M41 999h246l260 -712h2l260 712h244l-398 -999h-219z" />
<glyph unicode="w" horiz-adv-x="1579" d="M47 999h236l211 -663h4l196 663h191l200 -663h5l210 663h232l-340 -999h-211l-193 629h-2l-192 -629h-207z" />
<glyph unicode="x" horiz-adv-x="1079" d="M55 0l353 510l-351 489h267l211 -315h4l215 315h264l-348 -491l354 -508h-256l-227 315h-2l-230 -315h-254z" />
<glyph unicode="y" horiz-adv-x="1095" d="M39 999h246l274 -669h4l256 669h236l-549 -1405h-238l181 461z" />
<glyph unicode="z" horiz-adv-x="1001" d="M82 0v162l514 637l-2 6h-477v194h794v-157l-518 -643l2 -4h508v-195h-821z" />
<glyph unicode="{" horiz-adv-x="731" d="M102 506v176q48 2 81 13.5t50 25t25.5 37.5t10 40t1.5 44v407q0 106 64.5 178t169.5 72h135v-158h-47q-63 0 -93 -41.5t-30 -93.5v-395q0 -92 -26 -141.5t-87 -71.5v-4q45 -16 67 -35t34 -61.5t12 -118.5v-371q0 -77 26.5 -113t96.5 -36h47v-158h-135q-99 0 -166.5 68.5 t-67.5 181.5v397q0 32 -1.5 48.5t-10 40.5t-25.5 36t-50 22t-81 11z" />
<glyph unicode="|" horiz-adv-x="647" d="M223 -236v1745h199v-1745h-199z" />
<glyph unicode="}" horiz-adv-x="731" d="M92 -141h47q70 0 96.5 36t26.5 113v371q0 76 12 118.5t34 61.5t67 35v4q-61 22 -87 71.5t-26 141.5v395q0 52 -30 93.5t-93 41.5h-47v158h135q105 0 169.5 -72t64.5 -178v-407q0 -28 1.5 -44t10 -40t25.5 -37.5t50 -25t81 -13.5v-176q-48 -1 -81 -11t-50 -22t-25.5 -36 t-10 -40.5t-1.5 -48.5v-397q0 -113 -67.5 -181.5t-166.5 -68.5h-135v158z" />
<glyph unicode="~" horiz-adv-x="1163" d="M113 477q39 113 110 180.5t168 67.5q99 0 211 -53q77 -43 143 -43q43 0 80.5 26t61.5 70l164 -55q-36 -116 -109 -187t-164 -71q-41 0 -84 10t-67.5 19.5t-65.5 27.5q-84 41 -139 41q-91 0 -146 -98z" />
<glyph unicode="&#xa1;" horiz-adv-x="552" d="M121 862q0 63 45.5 107.5t109.5 44.5q63 0 108.5 -44.5t45.5 -107.5t-45.5 -108t-108.5 -45q-64 0 -109.5 45t-45.5 108zM152 -510l41 1049h178l41 -1049h-260z" />
<glyph unicode="&#xa2;" horiz-adv-x="1122" d="M90 608q0 206 121 345t321 165v199h166v-197q217 -30 340 -182l-155 -133q-101 113 -256 113q-134 0 -218.5 -86t-84.5 -220q0 -136 84.5 -222.5t218.5 -86.5q80 0 147.5 30.5t110.5 78.5l157 -142q-57 -64 -145.5 -110t-198.5 -60v-198h-166v196q-197 23 -319.5 163 t-122.5 347z" />
<glyph unicode="&#xa3;" horiz-adv-x="1159" d="M92 0v221h146v428h-119v168h119v121q0 127 33.5 222t93 150.5t132.5 82t160 26.5q119 0 224.5 -51.5t175.5 -146.5l-125 -166q-47 64 -111 99.5t-131 35.5q-97 0 -153 -62.5t-56 -216.5v-94h332v-168h-328v-428h617v-221h-1010z" />
<glyph unicode="&#xa4;" horiz-adv-x="1044" d="M43 426l162 162q-62 94 -62 205q0 110 62 204l-162 164l107 107l161 -162q95 63 207 63t207 -63l162 164l106 -109l-162 -162q64 -97 64 -206q0 -112 -64 -209l160 -160l-104 -107l-162 162q-92 -61 -209 -61q-113 0 -205 61l-161 -160zM305 797q0 -88 62.5 -150.5 t150.5 -64.5q88 1 150.5 64t64.5 149q-1 89 -64 152t-151 63q-88 -2 -150.5 -64.5t-62.5 -148.5z" />
<glyph unicode="&#xa5;" horiz-adv-x="1187" d="M14 1407h285l293 -571h4l291 571h287l-369 -662h225v-161h-311v-123h311v-160h-311v-301h-250v301h-328v160h328v123h-328v161h242z" />
<glyph unicode="&#xa6;" horiz-adv-x="647" d="M223 -233v720h199v-720h-199zM223 788v721h199v-721h-199z" />
<glyph unicode="&#xa7;" horiz-adv-x="1130" d="M113 -121l139 168q68 -73 150.5 -109t158.5 -36q72 0 119 35.5t47 95.5q0 59 -44.5 91.5t-162.5 76.5q-67 25 -108.5 42.5t-95 43.5t-85 51t-61.5 58.5t-43.5 74t-13.5 88.5q0 92 40.5 161t116.5 109q-112 87 -112 236t106.5 245.5t286.5 96.5q106 0 220.5 -43 t197.5 -113l-135 -166q-142 103 -271 103q-69 0 -111 -32.5t-42 -86.5t42 -85.5t150 -74.5q188 -76 236 -101q117 -61 155 -142q25 -55 25 -129q0 -79 -41.5 -146t-116.5 -110q121 -88 121 -244q0 -159 -114 -254.5t-302 -95.5q-266 0 -452 192zM346 602q0 -61 52.5 -100.5 t189.5 -91.5l80 -31q55 13 84.5 48t29.5 81q0 62 -48.5 97.5t-196.5 92.5l-72 29q-56 -12 -87.5 -47t-31.5 -78z" />
<glyph unicode="&#xa8;" horiz-adv-x="1054" d="M172 1266q0 60 44.5 103.5t107.5 43.5t108 -44.5t45 -104.5q0 -62 -45 -106t-108 -44t-107.5 45t-44.5 107zM580 1266q0 60 44 103.5t107 43.5t108.5 -44.5t45.5 -104.5q0 -61 -45.5 -105.5t-108.5 -44.5t-107 45t-44 107z" />
<glyph unicode="&#xa9;" horiz-adv-x="1468" d="M92 651q0 173 85 321.5t233.5 237t324.5 88.5q177 0 325 -88t232 -236.5t84 -322.5q0 -173 -84.5 -321.5t-233 -237t-325.5 -88.5q-175 0 -323 88t-233 236.5t-85 322.5zM250 649q0 -133 63 -245t174.5 -178t245.5 -66t246.5 66.5t176 179.5t63.5 245q0 133 -63 246 t-175 179.5t-246 66.5q-135 0 -247 -67.5t-175 -180.5t-63 -246zM412 647q0 144 89.5 240t246.5 96q160 0 264 -127l-103 -88q-67 82 -161 82q-84 0 -137.5 -55t-53.5 -148q0 -89 52.5 -143.5t138.5 -54.5q100 0 161 77l103 -88q-102 -125 -264 -125q-144 0 -240 88t-96 246 z" />
<glyph unicode="&#xaa;" horiz-adv-x="862" d="M66 1106q0 136 78.5 223.5t205.5 87.5q119 0 209 -90h2v80h162v-600h-162v67h-4q-73 -79 -199 -79q-131 0 -211.5 86t-80.5 225zM231 1106q0 -69 47 -113.5t119 -44.5q68 0 114 44t46 114q0 68 -45.5 114t-114.5 46q-70 0 -118 -45t-48 -115z" />
<glyph unicode="&#xab;" horiz-adv-x="1026" d="M84 504l252 444h227l-252 -444l250 -436h-229zM475 504l252 444h227l-252 -444l250 -436h-229z" />
<glyph unicode="&#xac;" horiz-adv-x="1130" d="M102 641v205h926v-535h-207v330h-719z" />
<glyph unicode="&#xad;" horiz-adv-x="833" d="M109 520v223h616v-223h-616z" />
<glyph unicode="&#xae;" horiz-adv-x="1468" d="M92 651q0 173 85 321.5t233.5 237t324.5 88.5q177 0 325 -88t232 -236.5t84 -322.5q0 -173 -84.5 -321.5t-233 -237t-325.5 -88.5q-175 0 -323 88t-233 236.5t-85 322.5zM250 649q0 -133 63 -245t174.5 -178t245.5 -66t246.5 66.5t176 179.5t63.5 245q0 133 -63 246 t-175 179.5t-246 66.5q-135 0 -247 -67.5t-175 -180.5t-63 -246zM506 324v663h252q115 0 172 -60t57 -161q0 -152 -129 -199l162 -243h-160l-147 225h-72v-225h-135zM643 672h84q58 0 88.5 26.5t30.5 69.5q0 42 -30.5 68t-84.5 26h-88v-190z" />
<glyph unicode="&#xaf;" horiz-adv-x="911" d="M152 1159v193h610v-193h-610z" />
<glyph unicode="&#xb0;" horiz-adv-x="802" d="M113 1186q0 116 86.5 200t201.5 84q116 0 202.5 -84t86.5 -202q0 -115 -85 -198t-204 -83t-203.5 83t-84.5 200zM268 1186q0 -55 38.5 -93t94.5 -38q55 0 93 37.5t38 93.5q0 55 -39 94t-92 39q-54 0 -93.5 -39.5t-39.5 -93.5z" />
<glyph unicode="&#xb1;" horiz-adv-x="1218" d="M125 0v209h969v-209h-969zM125 727v209h379v379h211v-379h379v-209h-379v-377h-211v377h-379z" />
<glyph unicode="&#xb2;" horiz-adv-x="704" d="M47 1589q42 70 121 115t180 45q119 0 204 -70t85 -186q0 -77 -31.5 -139.5t-120.5 -143.5l-153 -139l2 -4h311v-174h-590l-4 129l273 266q61 60 87.5 100.5t26.5 81.5q0 44 -29 72.5t-75 28.5q-38 0 -77.5 -21t-66.5 -65z" />
<glyph unicode="&#xb3;" horiz-adv-x="718" d="M37 1073l172 72q17 -50 49.5 -73t87.5 -23t87 28t32 74q0 45 -36 72.5t-99 27.5h-62v144h76q50 0 80.5 25t30.5 63q0 43 -30 69.5t-81 26.5q-82 0 -115 -76l-159 86q30 71 105 115.5t173 44.5q125 0 207 -61t82 -168q0 -126 -107 -189v-4q136 -62 136 -203 q0 -111 -85 -178t-221 -67q-118 0 -204.5 54.5t-118.5 139.5z" />
<glyph unicode="&#xb4;" horiz-adv-x="1030" d="M305 1102l236 295l252 2l-254 -297h-234z" />
<glyph unicode="&#xb5;" horiz-adv-x="1187" d="M137 -406v1405h230v-520q0 -286 217 -286q104 0 170.5 81.5t66.5 225.5v499h230v-999h-209l-13 129h-4q-120 -145 -290 -145q-115 0 -175 63l-6 -2q13 -114 13 -215v-236h-230z" />
<glyph unicode="&#xb6;" horiz-adv-x="1079" d="M92 1001q0 164 111.5 262.5t306.5 98.5h383v-1671h-143v1517h-127v-1208h-148v647q-173 11 -278 103.5t-105 250.5z" />
<glyph unicode="&#xb7;" horiz-adv-x="561" d="M123 502q0 63 46 108t110 45q63 0 108 -45t45 -108t-45 -107.5t-108 -44.5q-65 0 -110.5 44.5t-45.5 107.5z" />
<glyph unicode="&#xb8;" horiz-adv-x="774" d="M205 -264q47 -15 102 -15q41 0 73 16t32 46q0 29 -45.5 49.5t-126.5 20.5v73l39 86h137l-35 -73v-5q93 -3 140.5 -45t47.5 -118q0 -72 -60 -116t-183 -44q-59 0 -121 12v113z" />
<glyph unicode="&#xb9;" horiz-adv-x="577" d="M37 1550l274 187h150v-844h-193v604l-137 -94z" />
<glyph unicode="&#xba;" horiz-adv-x="796" d="M66 1108q0 134 89.5 221.5t231.5 87.5q140 0 232 -86.5t92 -222.5q0 -138 -91.5 -225.5t-232.5 -87.5q-142 0 -231.5 88t-89.5 225zM240 1108q0 -70 41 -116t106 -46q64 0 107 46t43 116q0 69 -42.5 114.5t-107.5 45.5t-106 -45.5t-41 -114.5z" />
<glyph unicode="&#xbb;" horiz-adv-x="1026" d="M72 948h227l252 -444l-248 -436h-229l250 436zM463 948h227l252 -444l-248 -436h-229l250 436z" />
<glyph unicode="&#xbc;" horiz-adv-x="1656" d="M37 1270l274 186h150v-844h-193v605l-137 -95zM412 35l641 1450l186 -80l-643 -1450zM950 131v119l396 594h149v-547h117v-166h-117v-131h-190v131h-355zM1161 285h158v247z" />
<glyph unicode="&#xbd;" horiz-adv-x="1724" d="M37 1270l274 186h150v-844h-193v605l-137 -95zM412 35l641 1450l186 -80l-643 -1450zM1067 696q42 70 121 115t180 45q119 0 204 -70t85 -186q0 -77 -31.5 -139.5t-120.5 -143.5l-153 -139l2 -4h311v-174h-590l-4 129l272 266q62 60 88.5 101t26.5 82q0 44 -29 72t-75 28 q-38 0 -77.5 -21t-66.5 -65z" />
<glyph unicode="&#xbe;" horiz-adv-x="1757" d="M37 793l172 71q17 -50 49.5 -73t87.5 -23t87 28t32 74q0 45 -36 73t-99 28h-62v143h76q50 0 80.5 25t30.5 63q0 43 -30 69.5t-81 26.5q-82 0 -115 -75l-159 86q30 71 105 115t173 44q125 0 207 -61t82 -168q0 -125 -107 -188v-4q136 -62 136 -203q0 -112 -85 -179 t-221 -67q-118 0 -204.5 55t-118.5 140zM512 35l641 1450l186 -80l-643 -1450zM1051 131v119l395 594h149v-547h117v-166h-117v-131h-190v131h-354zM1262 285h157v247z" />
<glyph unicode="&#xbf;" horiz-adv-x="915" d="M86 -131q0 109 48 192.5t132 165.5q14 14 48.5 45t50 46.5t36.5 40t30.5 46.5t10.5 44l7 90h202v-103q0 -21 -2 -40.5t-10 -40t-13 -34.5t-20 -35.5t-20.5 -31t-26.5 -32.5t-26 -28.5t-30 -31.5t-28 -29q-64 -69 -97.5 -126t-33.5 -126q0 -85 51 -132.5t133 -47.5 q60 0 118.5 32.5t96.5 88.5l172 -160q-71 -90 -175.5 -139t-229.5 -49q-84 0 -159 25t-135 73t-95 124.5t-35 172.5zM391 862q0 63 45.5 107.5t108.5 44.5q64 0 109.5 -44.5t45.5 -107.5t-45.5 -108t-109.5 -45q-63 0 -108.5 45t-45.5 108z" />
<glyph unicode="&#xc0;" horiz-adv-x="1423" d="M47 0l543 1454h241l545 -1454h-258l-110 313h-594l-109 -313h-258zM360 1860h256l230 -273h-228zM489 526h445l-221 631h-4z" />
<glyph unicode="&#xc1;" horiz-adv-x="1423" d="M47 0l543 1454h241l545 -1454h-258l-110 313h-594l-109 -313h-258zM489 526h445l-221 631h-4zM602 1587l229 273h256l-258 -273h-227z" />
<glyph unicode="&#xc2;" horiz-adv-x="1423" d="M47 0l543 1454h241l545 -1454h-258l-110 313h-594l-109 -313h-258zM365 1587l227 273h239l222 -273h-224l-116 146h-4l-117 -146h-227zM489 526h445l-221 631h-4z" />
<glyph unicode="&#xc3;" horiz-adv-x="1423" d="M47 0l543 1454h241l545 -1454h-258l-110 313h-594l-109 -313h-258zM319 1653q33 95 92.5 153t141.5 58q37 0 74.5 -11t55.5 -20t52 -29q4 -2 17.5 -10t18 -11t16 -9t18 -8t16 -5.5t18 -4.5t17.5 -1q32 0 57 25t48 82l139 -47q-68 -228 -230 -228q-69 0 -172 60 q-85 49 -129 49q-66 0 -110 -107zM489 526h445l-221 631h-4z" />
<glyph unicode="&#xc4;" horiz-adv-x="1423" d="M47 0l543 1454h241l545 -1454h-258l-110 313h-594l-109 -313h-258zM356 1739q0 60 44.5 103.5t107.5 43.5t108.5 -44.5t45.5 -104.5q0 -61 -45.5 -105.5t-108.5 -44.5t-107.5 45t-44.5 107zM489 526h445l-221 631h-4zM764 1739q0 60 44 103.5t107 43.5t108.5 -44.5 t45.5 -104.5q0 -61 -45.5 -105.5t-108.5 -44.5t-107 45t-44 107z" />
<glyph unicode="&#xc5;" horiz-adv-x="1423" d="M47 0l543 1454h241l545 -1454h-258l-110 313h-594l-109 -313h-258zM487 1747q0 89 63.5 152t158.5 63q93 0 158 -62t65 -153q0 -89 -63 -152t-160 -63q-91 0 -156.5 62t-65.5 153zM489 526h445l-221 631h-4zM631 1749q0 -33 22.5 -55.5t55.5 -22.5t56 22.5t23 55.5 t-23 55.5t-56 22.5q-32 0 -55 -23.5t-23 -54.5z" />
<glyph unicode="&#xc6;" horiz-adv-x="1931" d="M23 0l725 1454h1056v-221h-669v-399h548v-222h-548v-391h710v-221h-956v313h-461l-154 -313h-251zM535 526h354v713h-4z" />
<glyph unicode="&#xc7;" horiz-adv-x="1492" d="M113 723q0 156 49 291.5t139.5 237t230 160t310.5 58.5q163 0 312 -70.5t261 -207.5l-182 -154q-163 199 -391 199q-208 0 -339.5 -142.5t-131.5 -371.5q0 -223 133.5 -363.5t341.5 -140.5q118 0 218 54t173 145l182 -156q-99 -124 -242 -198.5t-323 -75.5l-23 -49v-5 q93 -3 141 -45t48 -118q0 -72 -60.5 -116t-183.5 -44q-59 0 -121 12v113q47 -15 103 -15q41 0 72.5 16t31.5 46q0 29 -45.5 49.5t-126.5 20.5v73l31 70q-128 19 -237.5 75.5t-193 146t-130.5 219.5t-47 286z" />
<glyph unicode="&#xc8;" horiz-adv-x="1243" d="M178 0v1454h916v-221h-668v-402h539v-221h-539v-389h711v-221h-959zM397 1860h256l230 -273h-228z" />
<glyph unicode="&#xc9;" horiz-adv-x="1243" d="M178 0v1454h916v-221h-668v-402h539v-221h-539v-389h711v-221h-959zM449 1587l229 273h256l-258 -273h-227z" />
<glyph unicode="&#xca;" horiz-adv-x="1243" d="M178 0v1454h916v-221h-668v-402h539v-221h-539v-389h711v-221h-959zM309 1587l228 273h239l221 -273h-223l-117 146h-4l-116 -146h-228z" />
<glyph unicode="&#xcb;" horiz-adv-x="1243" d="M178 0v1454h916v-221h-668v-402h539v-221h-539v-389h711v-221h-959zM301 1739q0 60 44.5 103.5t107.5 43.5t108 -44.5t45 -104.5q0 -62 -45 -106t-108 -44t-107.5 45t-44.5 107zM709 1739q0 60 44 103.5t107 43.5t108.5 -44.5t45.5 -104.5q0 -61 -45.5 -105.5 t-108.5 -44.5t-107 45t-44 107z" />
<glyph unicode="&#xcc;" horiz-adv-x="622" d="M-53 1860h256l229 -273h-227zM186 0v1454h248v-1454h-248z" />
<glyph unicode="&#xcd;" horiz-adv-x="622" d="M186 0v1454h248v-1454h-248zM195 1587l229 273h256l-258 -273h-227z" />
<glyph unicode="&#xce;" horiz-adv-x="622" d="M-39 1587l227 273h240l221 -273h-223l-117 146h-4l-117 -146h-227zM186 0v1454h248v-1454h-248z" />
<glyph unicode="&#xcf;" horiz-adv-x="622" d="M-47 1739q0 60 44 103.5t107 43.5t108.5 -44.5t45.5 -104.5q0 -61 -45.5 -105.5t-108.5 -44.5t-107 45t-44 107zM186 0v1454h248v-1454h-248zM360 1739q0 60 44.5 103.5t107.5 43.5t108.5 -44.5t45.5 -104.5q0 -61 -45.5 -105.5t-108.5 -44.5t-107.5 45t-44.5 107z" />
<glyph unicode="&#xd0;" horiz-adv-x="1507" d="M57 616v211h121v627h463q170 0 312 -53.5t239.5 -149.5t151 -231t53.5 -295t-52 -294t-147.5 -229.5t-237 -148.5t-313.5 -53h-469v616h-121zM426 221h207q227 0 367.5 142t140.5 362q0 222 -138.5 365t-357.5 143h-219v-406h344v-211h-344v-395z" />
<glyph unicode="&#xd1;" horiz-adv-x="1562" d="M178 0v1454h246l711 -1044h4v1044h245v-1454h-251l-703 1026h-4v-1026h-248zM389 1653q33 95 92.5 153t141.5 58q37 0 74.5 -11t55.5 -20t52 -29q4 -2 17.5 -10t18 -11t16 -9t18 -8t16 -5.5t18 -4.5t17.5 -1q32 0 56.5 25t47.5 82l139 -47q-68 -228 -229 -228 q-69 0 -172 60q-85 49 -129 49q-67 0 -111 -107z" />
<glyph unicode="&#xd2;" horiz-adv-x="1693" d="M113 727q0 212 92 381.5t260.5 265.5t382.5 96q209 0 375.5 -92.5t262 -262.5t95.5 -388q0 -163 -55.5 -302t-153 -235.5t-233 -151t-291.5 -54.5q-214 0 -382.5 96t-260.5 265.5t-92 381.5zM369 727q0 -142 59.5 -258.5t170 -185t249.5 -68.5q202 0 338.5 145.5 t136.5 366.5q0 222 -136 367t-339 145q-139 0 -249.5 -68.5t-170 -185t-59.5 -258.5zM506 1860h256l229 -273h-227z" />
<glyph unicode="&#xd3;" horiz-adv-x="1693" d="M113 727q0 212 92 381.5t260.5 265.5t382.5 96q209 0 375.5 -92.5t262 -262.5t95.5 -388q0 -163 -55.5 -302t-153 -235.5t-233 -151t-291.5 -54.5q-214 0 -382.5 96t-260.5 265.5t-92 381.5zM369 727q0 -142 59.5 -258.5t170 -185t249.5 -68.5q202 0 338.5 145.5 t136.5 366.5q0 222 -136 367t-339 145q-139 0 -249.5 -68.5t-170 -185t-59.5 -258.5zM723 1587l229 273h256l-258 -273h-227z" />
<glyph unicode="&#xd4;" horiz-adv-x="1693" d="M113 727q0 212 92 381.5t260.5 265.5t382.5 96q209 0 375.5 -92.5t262 -262.5t95.5 -388q0 -163 -55.5 -302t-153 -235.5t-233 -151t-291.5 -54.5q-214 0 -382.5 96t-260.5 265.5t-92 381.5zM369 727q0 -142 59.5 -258.5t170 -185t249.5 -68.5q202 0 338.5 145.5 t136.5 366.5q0 222 -136 367t-339 145q-139 0 -249.5 -68.5t-170 -185t-59.5 -258.5zM504 1587l227 273h240l221 -273h-223l-117 146h-4l-117 -146h-227z" />
<glyph unicode="&#xd5;" horiz-adv-x="1693" d="M113 727q0 212 92 381.5t260.5 265.5t382.5 96q209 0 375.5 -92.5t262 -262.5t95.5 -388q0 -163 -55.5 -302t-153 -235.5t-233 -151t-291.5 -54.5q-214 0 -382.5 96t-260.5 265.5t-92 381.5zM369 727q0 -142 59.5 -258.5t170 -185t249.5 -68.5q202 0 338.5 145.5 t136.5 366.5q0 222 -136 367t-339 145q-139 0 -249.5 -68.5t-170 -185t-59.5 -258.5zM459 1653q33 96 92 153.5t141 57.5q37 0 74.5 -11t55.5 -20t52 -29q4 -2 17.5 -10t18 -11t16 -9t18 -8t16 -5.5t18 -4.5t17.5 -1q32 0 57 25t48 82l139 -47q-68 -228 -229 -228 q-69 0 -172 60q-85 49 -129 49q-67 0 -111 -107z" />
<glyph unicode="&#xd6;" horiz-adv-x="1693" d="M113 727q0 212 92 381.5t260.5 265.5t382.5 96q209 0 375.5 -92.5t262 -262.5t95.5 -388q0 -163 -55.5 -302t-153 -235.5t-233 -151t-291.5 -54.5q-214 0 -382.5 96t-260.5 265.5t-92 381.5zM369 727q0 -142 59.5 -258.5t170 -185t249.5 -68.5q202 0 338.5 145.5 t136.5 366.5q0 222 -136 367t-339 145q-139 0 -249.5 -68.5t-170 -185t-59.5 -258.5zM496 1739q0 60 44 103.5t107 43.5t108.5 -44.5t45.5 -104.5q0 -61 -45.5 -105.5t-108.5 -44.5t-107 45t-44 107zM903 1739q0 60 44.5 103.5t107.5 43.5t108 -44.5t45 -104.5 q0 -62 -45 -106t-108 -44t-107.5 45t-44.5 107z" />
<glyph unicode="&#xd7;" horiz-adv-x="1073" d="M102 281l289 286l-289 287l146 147l287 -288l288 288l148 -145l-289 -291l287 -286l-146 -144l-286 287l-287 -287z" />
<glyph unicode="&#xd8;" horiz-adv-x="1693" d="M113 727q0 212 92 381.5t260.5 265.5t382.5 96q257 0 450 -141l170 184l140 -127l-174 -190q147 -197 147 -469q0 -163 -55.5 -302t-153 -235.5t-233 -151t-291.5 -54.5q-238 0 -420 118l-160 -174l-141 131l158 170q-172 200 -172 498zM369 727q0 -174 90 -307l671 727 q-125 92 -282 92q-139 0 -249.5 -68.5t-170 -185t-59.5 -258.5zM596 285q112 -70 252 -70q202 0 338.5 145.5t136.5 366.5q0 153 -70 274z" />
<glyph unicode="&#xd9;" horiz-adv-x="1472" d="M158 598v856h245v-838q0 -177 89 -288t243 -111q149 0 241.5 107.5t92.5 291.5v838h248v-856q0 -284 -155.5 -449t-426.5 -165q-262 0 -419.5 162.5t-157.5 451.5zM399 1860h256l230 -273h-228z" />
<glyph unicode="&#xda;" horiz-adv-x="1472" d="M158 598v856h245v-838q0 -177 89 -288t243 -111q149 0 241.5 107.5t92.5 291.5v838h248v-856q0 -284 -155.5 -449t-426.5 -165q-262 0 -419.5 162.5t-157.5 451.5zM582 1587l229 273h256l-258 -273h-227z" />
<glyph unicode="&#xdb;" horiz-adv-x="1472" d="M158 598v856h245v-838q0 -177 89 -288t243 -111q149 0 241.5 107.5t92.5 291.5v838h248v-856q0 -284 -155.5 -449t-426.5 -165q-262 0 -419.5 162.5t-157.5 451.5zM389 1587l227 273h240l221 -273h-223l-117 146h-4l-117 -146h-227z" />
<glyph unicode="&#xdc;" horiz-adv-x="1472" d="M158 598v856h245v-838q0 -177 89 -288t243 -111q149 0 241.5 107.5t92.5 291.5v838h248v-856q0 -284 -155.5 -449t-426.5 -165q-262 0 -419.5 162.5t-157.5 451.5zM381 1739q0 60 44 103.5t107 43.5t108.5 -44.5t45.5 -104.5q0 -61 -45.5 -105.5t-108.5 -44.5t-107 45 t-44 107zM788 1739q0 60 44.5 103.5t107.5 43.5t108.5 -44.5t45.5 -104.5q0 -61 -45.5 -105.5t-108.5 -44.5t-107.5 45t-44.5 107z" />
<glyph unicode="&#xdd;" horiz-adv-x="1280" d="M29 1454h282l326 -563h4l324 563h286l-489 -811v-643h-248v643zM502 1587l229 273h256l-258 -273h-227z" />
<glyph unicode="&#xde;" horiz-adv-x="1329" d="M178 0v1454h248v-268h322q248 0 370.5 -128.5t122.5 -342.5q0 -227 -140.5 -343t-383.5 -116h-291v-256h-248zM426 477h266q146 0 219.5 66t73.5 176q0 117 -71 181.5t-205 64.5h-283v-488z" />
<glyph unicode="&#xdf;" horiz-adv-x="1308" d="M152 0v995q0 266 132 397.5t384 131.5q225 0 351 -105t126 -266q0 -80 -38 -156t-126 -125v-4q119 -55 186.5 -167t67.5 -248q0 -213 -126.5 -341t-330.5 -128h-211v206h156q119 0 198.5 75.5t79.5 191.5q0 118 -82.5 200t-222.5 82h-96v197h86q59 1 103.5 17t68.5 38 t39 50.5t19 49.5t4 39q0 76 -63 131.5t-181 55.5q-148 0 -221.5 -74t-73.5 -242v-1001h-229z" />
<glyph unicode="&#xe0;" horiz-adv-x="1251" d="M88 496q0 225 137.5 371.5t343.5 146.5q200 0 310 -137l4 2v120h229v-999h-219v131l-4 2q-112 -149 -318 -149q-210 0 -346.5 141.5t-136.5 370.5zM305 1430l256 -3l225 -292h-227zM322 494q0 -133 79.5 -217t206.5 -84q120 0 202.5 84.5t82.5 216.5q0 134 -81 223.5 t-204 89.5t-204.5 -85.5t-81.5 -227.5z" />
<glyph unicode="&#xe1;" horiz-adv-x="1251" d="M88 496q0 225 137.5 371.5t343.5 146.5q200 0 310 -137l4 2v120h229v-999h-219v131l-4 2q-112 -149 -318 -149q-210 0 -346.5 141.5t-136.5 370.5zM322 494q0 -133 79.5 -217t206.5 -84q120 0 202.5 84.5t82.5 216.5q0 134 -81 223.5t-204 89.5t-204.5 -85.5 t-81.5 -227.5zM477 1139l236 295l252 2l-254 -297h-234z" />
<glyph unicode="&#xe2;" horiz-adv-x="1251" d="M88 496q0 225 137.5 371.5t343.5 146.5q200 0 310 -137l4 2v120h229v-999h-219v131l-4 2q-112 -149 -318 -149q-210 0 -346.5 141.5t-136.5 370.5zM285 1135l223 297h240l215 -297h-224l-110 157h-4l-113 -157h-227zM322 494q0 -133 79.5 -217t206.5 -84 q120 0 202.5 84.5t82.5 216.5q0 134 -81 223.5t-204 89.5t-204.5 -85.5t-81.5 -227.5z" />
<glyph unicode="&#xe3;" horiz-adv-x="1251" d="M88 496q0 225 137.5 371.5t343.5 146.5q200 0 310 -137l4 2v120h229v-999h-219v131l-4 2q-112 -149 -318 -149q-210 0 -346.5 141.5t-136.5 370.5zM233 1200q32 104 91.5 164.5t142.5 60.5q37 0 71 -9t53.5 -19.5t47.5 -28.5q64 -41 93 -48q13 -3 26 -3q73 0 116 106 l140 -47q-31 -114 -91 -178.5t-137 -64.5q-34 0 -69.5 11t-57.5 22.5t-53 31.5q-70 45 -114 45q-76 0 -119 -106zM322 494q0 -133 79.5 -217t206.5 -84q120 0 202.5 84.5t82.5 216.5q0 134 -81 223.5t-204 89.5t-204.5 -85.5t-81.5 -227.5z" />
<glyph unicode="&#xe4;" horiz-adv-x="1251" d="M88 496q0 225 137.5 371.5t343.5 146.5q200 0 310 -137l4 2v120h229v-999h-219v131l-4 2q-112 -149 -318 -149q-210 0 -346.5 141.5t-136.5 370.5zM268 1303q0 60 44.5 103.5t107.5 43.5t108 -45t45 -105q0 -61 -45 -105t-108 -44t-107.5 45t-44.5 107zM322 494 q0 -133 79.5 -217t206.5 -84q120 0 202.5 84.5t82.5 216.5q0 134 -81 223.5t-204 89.5t-204.5 -85.5t-81.5 -227.5zM676 1303q0 60 44 103.5t107 43.5t108.5 -45t45.5 -105q0 -61 -45.5 -105t-108.5 -44t-107 45t-44 107z" />
<glyph unicode="&#xe5;" horiz-adv-x="1251" d="M88 496q0 225 137.5 371.5t343.5 146.5q200 0 310 -137l4 2v120h229v-999h-219v131l-4 2q-112 -149 -318 -149q-210 0 -346.5 141.5t-136.5 370.5zM322 494q0 -133 79.5 -217t206.5 -84q120 0 202.5 84.5t82.5 216.5q0 134 -81 223.5t-204 89.5t-204.5 -85.5 t-81.5 -227.5zM401 1321q0 89 63.5 152t158.5 63q93 0 158 -62t65 -153q0 -89 -63 -152t-160 -63q-91 0 -156.5 62t-65.5 153zM545 1323q0 -33 22.5 -55.5t55.5 -22.5t56 22.5t23 55.5t-23 55.5t-56 22.5q-32 0 -55 -23.5t-23 -54.5z" />
<glyph unicode="&#xe6;" horiz-adv-x="1615" d="M61 299q0 149 101 231t295 82h200v13q0 103 -43 144.5t-135 41.5q-61 0 -137 -19t-133 -51l-86 185q54 30 162.5 59t208.5 29q109 0 185.5 -34.5t125.5 -113.5h6q62 73 148 110.5t174 37.5q189 0 306 -141t117 -361q0 -65 -6 -92h-667q21 -105 90.5 -166t177.5 -61 q80 0 129.5 28.5t93.5 87.5l158 -137q-36 -46 -69 -76.5t-80 -57.5t-110 -40.5t-143 -13.5q-213 0 -344 157h-4q-52 -68 -141.5 -112.5t-212.5 -44.5q-181 0 -274 89t-93 226zM287 301q0 -58 41 -92.5t123 -34.5q86 0 147 51t61 135v70h-180q-192 0 -192 -129zM887 604h438 q-10 90 -59.5 146.5t-143.5 56.5q-85 0 -149 -56.5t-86 -146.5z" />
<glyph unicode="&#xe7;" horiz-adv-x="1089" d="M90 498q0 229 145 372.5t373 143.5q121 0 234 -48.5t186 -138.5l-156 -135q-96 115 -251 115q-133 0 -215 -85t-82 -222q0 -138 82.5 -222.5t214.5 -84.5q81 0 146 31.5t105 84.5l158 -139q-138 -175 -397 -186l-23 -45v-5q93 -3 141 -45t48 -118q0 -72 -60.5 -116 t-183.5 -44q-59 0 -121 12v113q47 -15 103 -15q41 0 72.5 16t31.5 46q0 29 -45.5 49.5t-126.5 20.5v73l31 66q-184 33 -297 170t-113 336z" />
<glyph unicode="&#xe8;" horiz-adv-x="1148" d="M90 500q0 229 140.5 371.5t361.5 142.5q209 0 340 -141t131 -361q0 -40 -6 -88h-729q22 -109 99 -170t194 -61q157 0 251 116l160 -137q-145 -188 -424 -188q-229 0 -373.5 141.5t-144.5 374.5zM276 1430l256 -3l226 -292h-228zM332 604h499q-23 94 -84.5 148.5 t-156.5 54.5q-96 0 -165 -53t-93 -150z" />
<glyph unicode="&#xe9;" horiz-adv-x="1148" d="M90 500q0 229 140.5 371.5t361.5 142.5q209 0 340 -141t131 -361q0 -40 -6 -88h-729q22 -109 99 -170t194 -61q157 0 251 116l160 -137q-145 -188 -424 -188q-229 0 -373.5 141.5t-144.5 374.5zM332 604h499q-23 94 -84.5 148.5t-156.5 54.5q-96 0 -165 -53t-93 -150z M457 1139l235 295l252 2l-254 -297h-233z" />
<glyph unicode="&#xea;" horiz-adv-x="1150" d="M90 500q0 229 140.5 371.5t361.5 142.5q209 0 340 -141t131 -361q0 -40 -6 -88h-729q22 -109 99 -170t194 -61q157 0 251 116l160 -137q-145 -188 -424 -188q-229 0 -373.5 141.5t-144.5 374.5zM256 1135l223 297h240l215 -297h-223l-111 157h-4l-113 -157h-227zM332 604 h499q-23 94 -84.5 148.5t-156.5 54.5q-96 0 -165 -53t-93 -150z" />
<glyph unicode="&#xeb;" horiz-adv-x="1150" d="M90 500q0 229 140.5 371.5t361.5 142.5q209 0 340 -141t131 -361q0 -40 -6 -88h-729q22 -109 99 -170t194 -61q157 0 251 116l160 -137q-145 -188 -424 -188q-229 0 -373.5 141.5t-144.5 374.5zM240 1303q0 60 44 103.5t107 43.5t108.5 -45t45.5 -105q0 -61 -45.5 -105 t-108.5 -44t-107 45t-44 107zM332 604h499q-23 94 -84.5 148.5t-156.5 54.5q-96 0 -165 -53t-93 -150zM647 1303q0 60 44.5 103.5t107.5 43.5t108 -45t45 -105q0 -61 -45 -105t-108 -44t-107.5 45t-44.5 107z" />
<glyph unicode="&#xec;" horiz-adv-x="559" d="M-23 1436l252 -2l166 -295h-233zM164 0v999h229v-999h-229z" />
<glyph unicode="&#xed;" horiz-adv-x="557" d="M164 0v999h229v-999h-229zM172 1139l236 295l251 2l-253 -297h-234z" />
<glyph unicode="&#xee;" horiz-adv-x="557" d="M-61 1135l223 297h239l215 -297h-223l-110 157h-4l-113 -157h-227zM164 0v999h229v-999h-229z" />
<glyph unicode="&#xef;" horiz-adv-x="557" d="M-55 1300q0 62 45 107t110 45q63 0 108.5 -45t45.5 -107q0 -63 -45.5 -108t-108.5 -45q-66 0 -110.5 44.5t-44.5 108.5zM164 0v999h229v-999h-229zM307 1300q0 60 45.5 105t108.5 45q61 0 106 -45t45 -105q0 -61 -44.5 -105t-106.5 -44q-63 0 -108.5 44t-45.5 105z" />
<glyph unicode="&#xf0;" horiz-adv-x="1220" d="M92 473q0 112 37 208.5t99 160t142 99.5t167 36q185 0 294 -100v2q-50 106 -124 186q-34 36 -70 70l-80 -97l-149 109l77 94q-96 56 -225 105l100 172q133 -46 254 -117l131 162l158 -105l-137 -168q71 -61 115 -112q117 -133 181 -294t64 -335q0 -275 -142 -420 t-382 -145q-142 0 -258.5 62.5t-184 175t-67.5 251.5zM326 489q0 -128 80 -212t198 -84q127 0 208 84t81 212q0 123 -81.5 204t-205.5 81q-121 0 -200.5 -83t-79.5 -202z" />
<glyph unicode="&#xf1;" horiz-adv-x="1214" d="M150 0v999h229v-137h4q61 73 148 112.5t186 39.5q172 0 269 -104t97 -322v-588h-229v528q0 152 -54.5 215.5t-162.5 63.5q-119 0 -188.5 -80t-69.5 -225v-502h-229zM215 1200q32 104 91.5 164.5t142.5 60.5q37 0 71 -9t53.5 -19.5t47.5 -28.5q3 -2 13 -8.5t13 -8.5 t12 -7.5t13.5 -7.5t12.5 -6t13.5 -5.5t12.5 -3.5t14 -3t14 -1q74 0 117 106l139 -47q-31 -114 -90.5 -178.5t-136.5 -64.5q-34 0 -69.5 11t-57.5 22.5t-53 31.5q-70 45 -115 45q-76 0 -119 -106z" />
<glyph unicode="&#xf2;" horiz-adv-x="1228" d="M90 498q0 147 64.5 264t184.5 184.5t275 67.5q231 0 378 -143.5t147 -372.5q0 -227 -147 -370.5t-378 -143.5q-233 0 -378.5 145.5t-145.5 368.5zM281 1430l256 -3l225 -292h-227zM324 498q0 -129 81.5 -217t208.5 -88q123 0 207 86t84 219q0 136 -83 222.5t-208 86.5 q-129 0 -209.5 -88t-80.5 -221z" />
<glyph unicode="&#xf3;" horiz-adv-x="1228" d="M90 498q0 147 64.5 264t184.5 184.5t275 67.5q231 0 378 -143.5t147 -372.5q0 -227 -147 -370.5t-378 -143.5q-233 0 -378.5 145.5t-145.5 368.5zM324 498q0 -129 81.5 -217t208.5 -88q123 0 207 86t84 219q0 136 -83 222.5t-208 86.5q-129 0 -209.5 -88t-80.5 -221z M492 1139l235 295l252 2l-254 -297h-233z" />
<glyph unicode="&#xf4;" horiz-adv-x="1228" d="M90 498q0 147 64.5 264t184.5 184.5t275 67.5q231 0 378 -143.5t147 -372.5q0 -227 -147 -370.5t-378 -143.5q-233 0 -378.5 145.5t-145.5 368.5zM274 1135l224 297h239l215 -297h-223l-111 157h-4l-112 -157h-228zM324 498q0 -129 81.5 -217t208.5 -88q123 0 207 86 t84 219q0 136 -83 222.5t-208 86.5q-129 0 -209.5 -88t-80.5 -221z" />
<glyph unicode="&#xf5;" horiz-adv-x="1228" d="M90 498q0 147 64.5 264t184.5 184.5t275 67.5q231 0 378 -143.5t147 -372.5q0 -227 -147 -370.5t-378 -143.5q-233 0 -378.5 145.5t-145.5 368.5zM223 1200q32 104 91.5 164.5t142.5 60.5q37 0 71 -9t53.5 -19.5t47.5 -28.5q64 -41 93 -48q13 -3 26 -3q73 0 116 106 l140 -47q-31 -114 -91 -178.5t-137 -64.5q-34 0 -69.5 11t-57.5 22.5t-53 31.5q-70 45 -115 45q-76 0 -119 -106zM324 498q0 -129 81.5 -217t208.5 -88q123 0 207 86t84 219q0 136 -83 222.5t-208 86.5q-129 0 -209.5 -88t-80.5 -221z" />
<glyph unicode="&#xf6;" horiz-adv-x="1228" d="M90 498q0 147 64.5 264t184.5 184.5t275 67.5q231 0 378 -143.5t147 -372.5q0 -227 -147 -370.5t-378 -143.5q-233 0 -378.5 145.5t-145.5 368.5zM258 1303q0 60 44.5 103.5t107.5 43.5t108 -45t45 -105q0 -61 -45 -105t-108 -44t-107.5 45t-44.5 107zM324 498 q0 -129 81.5 -217t208.5 -88q123 0 207 86t84 219q0 136 -83 222.5t-208 86.5q-129 0 -209.5 -88t-80.5 -221zM666 1303q0 60 44 103.5t107 43.5t108.5 -45t45.5 -105q0 -61 -45.5 -105t-108.5 -44t-107 45t-44 107z" />
<glyph unicode="&#xf7;" horiz-adv-x="1173" d="M121 463v209h969v-209h-969zM444 147q0 62 45 107t109 45t110 -45t46 -107q0 -63 -46 -108t-110 -45t-109 45t-45 108zM444 965q0 62 45 106.5t109 44.5t110 -44.5t46 -106.5q0 -63 -46 -108.5t-110 -45.5t-109 45.5t-45 108.5z" />
<glyph unicode="&#xf8;" horiz-adv-x="1228" d="M90 498q0 147 64.5 264t184.5 184.5t275 67.5q180 0 310 -88l120 129l121 -115l-121 -129q95 -138 95 -313q0 -227 -147 -370.5t-378 -143.5q-156 0 -276 69l-105 -112l-122 114l96 105q-117 139 -117 338zM324 498q0 -92 45 -168l403 432q-70 45 -158 45 q-129 0 -209.5 -88t-80.5 -221zM492 219q53 -26 122 -26q123 0 207 86t84 219q0 72 -26 135z" />
<glyph unicode="&#xf9;" horiz-adv-x="1183" d="M129 391v608h229v-546q0 -145 46.5 -202.5t152.5 -57.5t181 86.5t75 240.5v479h229v-999h-229v125l-4 2q-119 -143 -305 -143q-176 0 -275.5 97t-99.5 310zM264 1430l256 -3l225 -292h-227z" />
<glyph unicode="&#xfa;" horiz-adv-x="1183" d="M129 391v608h229v-546q0 -145 46.5 -202.5t152.5 -57.5t181 86.5t75 240.5v479h229v-999h-229v125l-4 2q-119 -143 -305 -143q-176 0 -275.5 97t-99.5 310zM469 1139l236 295l251 2l-254 -297h-233z" />
<glyph unicode="&#xfb;" horiz-adv-x="1183" d="M129 391v608h229v-546q0 -145 46.5 -202.5t152.5 -57.5t181 86.5t75 240.5v479h229v-999h-229v125l-4 2q-119 -143 -305 -143q-176 0 -275.5 97t-99.5 310zM248 1135l223 297h240l215 -297h-224l-110 157h-4l-113 -157h-227z" />
<glyph unicode="&#xfc;" horiz-adv-x="1183" d="M129 391v608h229v-546q0 -145 46.5 -202.5t152.5 -57.5t181 86.5t75 240.5v479h229v-999h-229v125l-4 2q-119 -143 -305 -143q-176 0 -275.5 97t-99.5 310zM231 1303q0 60 44.5 103.5t107.5 43.5t108.5 -45t45.5 -105q0 -61 -45.5 -105t-108.5 -44t-107.5 45t-44.5 107z M639 1303q0 60 44.5 103.5t107.5 43.5t108 -45t45 -105q0 -61 -45 -105t-108 -44t-107.5 45t-44.5 107z" />
<glyph unicode="&#xfd;" horiz-adv-x="1095" d="M39 999h246l274 -669h4l256 669h236l-549 -1405h-238l181 461zM389 1139l236 295l252 2l-254 -297h-234z" />
<glyph unicode="&#xfe;" horiz-adv-x="1271" d="M150 -406v1913h229v-624h4q116 131 315 131q208 0 346 -146.5t138 -371.5q0 -229 -137 -370.5t-349 -141.5q-201 0 -313 137l-4 -2v-525h-229zM369 494q0 -133 84 -217t209 -84q126 0 206 84.5t80 216.5q0 141 -83 227t-206 86q-128 0 -209 -89t-81 -224z" />
<glyph unicode="&#xff;" horiz-adv-x="1095" d="M39 999h246l274 -669h4l256 669h236l-549 -1405h-238l181 461zM193 1303q0 60 44 103.5t107 43.5t108.5 -45t45.5 -105q0 -61 -45.5 -105t-108.5 -44t-107 45t-44 107zM600 1303q0 60 44.5 103.5t107.5 43.5t108 -45t45 -105q0 -61 -45 -105t-108 -44t-107.5 45 t-44.5 107z" />
<glyph unicode="&#x100;" horiz-adv-x="1423" d="M47 0l543 1454h241l545 -1454h-258l-110 313h-594l-109 -313h-258zM406 1632v183h610v-183h-610zM489 526h445l-221 631h-4z" />
<glyph unicode="&#x101;" horiz-adv-x="1251" d="M88 496q0 225 137.5 371.5t343.5 146.5q200 0 310 -137l4 2v120h229v-999h-219v131l-4 2q-112 -149 -318 -149q-210 0 -346.5 141.5t-136.5 370.5zM319 1196v193h611v-193h-611zM322 494q0 -133 79.5 -217t206.5 -84q120 0 202.5 84.5t82.5 216.5q0 134 -81 223.5 t-204 89.5t-204.5 -85.5t-81.5 -227.5z" />
<glyph unicode="&#x102;" horiz-adv-x="1423" d="M47 0l543 1454h241l545 -1454h-258l-110 313h-594l-109 -313h-258zM391 1860h180q3 -49 40 -80t100 -31q62 0 99 31.5t40 79.5h180q-11 -132 -93 -209.5t-226 -77.5t-226.5 78t-93.5 209zM489 526h445l-221 631h-4z" />
<glyph unicode="&#x103;" horiz-adv-x="1251" d="M88 496q0 225 137.5 371.5t343.5 146.5q200 0 310 -137l4 2v120h229v-999h-219v131l-4 2q-112 -149 -318 -149q-210 0 -346.5 141.5t-136.5 370.5zM305 1427h180q3 -54 40.5 -91.5t99.5 -37.5t99 37.5t40 91.5h180q-11 -144 -92.5 -224.5t-226.5 -80.5t-227 80.5 t-93 224.5zM322 494q0 -133 79.5 -217t206.5 -84q120 0 202.5 84.5t82.5 216.5q0 134 -81 223.5t-204 89.5t-204.5 -85.5t-81.5 -227.5z" />
<glyph unicode="&#x104;" horiz-adv-x="1423" d="M47 0l543 1454h241l545 -1454h-49q-73 -17 -117.5 -61t-44.5 -93q0 -39 23 -61.5t65 -22.5q11 0 19.5 0.5t16 1.5t11.5 1.5t11 3t8 2.5t9 4t9 4l15 -139q-61 -25 -148 -25q-101 0 -161 49t-60 131q0 51 35.5 107.5t99.5 99.5l-110 311h-594l-109 -313h-258zM489 526h445 l-221 631h-4z" />
<glyph unicode="&#x105;" horiz-adv-x="1251" d="M88 496q0 225 137.5 371.5t343.5 146.5q200 0 310 -137l4 2v120h229v-999h-22q-73 -17 -117.5 -61t-44.5 -93q0 -39 23 -61.5t65 -22.5q11 0 19.5 0.5t16 1.5t11.5 1.5t11 3t8 2.5t9 4t9 4l14 -139q-61 -25 -147 -25q-101 0 -161.5 49t-60.5 131q0 53 39.5 112.5 t108.5 102.5v121l-4 2q-112 -149 -318 -149q-210 0 -346.5 141.5t-136.5 370.5zM322 494q0 -133 79.5 -217t206.5 -84q120 0 202.5 84.5t82.5 216.5q0 134 -81 223.5t-204 89.5t-204.5 -85.5t-81.5 -227.5z" />
<glyph unicode="&#x106;" horiz-adv-x="1492" d="M113 723q0 156 49 291.5t139.5 237t230 160t310.5 58.5q163 0 312 -70.5t261 -207.5l-182 -154q-163 199 -391 199q-208 0 -339.5 -142.5t-131.5 -371.5q0 -223 133.5 -363.5t341.5 -140.5q118 0 218 54t173 145l182 -156q-100 -125 -245.5 -199.5t-327.5 -74.5 q-149 0 -281 48.5t-233 139t-160 232t-59 315.5zM682 1587l229 273h256l-258 -273h-227z" />
<glyph unicode="&#x107;" horiz-adv-x="1089" d="M90 498q0 229 145 372.5t373 143.5q121 0 234 -48.5t186 -138.5l-156 -135q-96 115 -251 115q-133 0 -215 -85t-82 -222q0 -138 82.5 -222.5t214.5 -84.5q81 0 146 31.5t105 84.5l158 -139q-143 -186 -430 -186q-223 0 -366.5 143.5t-143.5 370.5zM463 1139l235 295 l252 2l-254 -297h-233z" />
<glyph unicode="&#x108;" horiz-adv-x="1492" d="M113 723q0 156 49 291.5t139.5 237t230 160t310.5 58.5q163 0 312 -70.5t261 -207.5l-182 -154q-163 199 -391 199q-208 0 -339.5 -142.5t-131.5 -371.5q0 -223 133.5 -363.5t341.5 -140.5q118 0 218 54t173 145l182 -156q-100 -125 -245.5 -199.5t-327.5 -74.5 q-149 0 -281 48.5t-233 139t-160 232t-59 315.5zM496 1587l227 273h240l221 -273h-223l-117 146h-4l-117 -146h-227z" />
<glyph unicode="&#x109;" horiz-adv-x="1089" d="M90 498q0 229 145 372.5t373 143.5q121 0 234 -48.5t186 -138.5l-156 -135q-96 115 -251 115q-133 0 -215 -85t-82 -222q0 -138 82.5 -222.5t214.5 -84.5q81 0 146 31.5t105 84.5l158 -139q-143 -186 -430 -186q-223 0 -366.5 143.5t-143.5 370.5zM272 1135l224 297h239 l215 -297h-223l-111 157h-4l-112 -157h-228z" />
<glyph unicode="&#x10a;" horiz-adv-x="1492" d="M113 723q0 156 49 291.5t139.5 237t230 160t310.5 58.5q163 0 312 -70.5t261 -207.5l-182 -154q-163 199 -391 199q-208 0 -339.5 -142.5t-131.5 -371.5q0 -223 133.5 -363.5t341.5 -140.5q118 0 218 54t173 145l182 -156q-100 -125 -245.5 -199.5t-327.5 -74.5 q-149 0 -281 48.5t-233 139t-160 232t-59 315.5zM690 1737q0 62 45 106.5t109 44.5t109.5 -44.5t45.5 -106.5q0 -63 -45.5 -108.5t-109.5 -45.5t-109 45.5t-45 108.5z" />
<glyph unicode="&#x10b;" horiz-adv-x="1089" d="M90 498q0 229 145 372.5t373 143.5q121 0 234 -48.5t186 -138.5l-156 -135q-96 115 -251 115q-133 0 -215 -85t-82 -222q0 -138 82.5 -222.5t214.5 -84.5q81 0 146 31.5t105 84.5l158 -139q-143 -186 -430 -186q-223 0 -366.5 143.5t-143.5 370.5zM459 1300 q0 62 44.5 107t108.5 45t110 -45t46 -107q0 -63 -46 -108t-110 -45t-108.5 45t-44.5 108z" />
<glyph unicode="&#x10c;" horiz-adv-x="1492" d="M113 723q0 156 49 291.5t139.5 237t230 160t310.5 58.5q163 0 312 -70.5t261 -207.5l-182 -154q-163 199 -391 199q-208 0 -339.5 -142.5t-131.5 -371.5q0 -223 133.5 -363.5t341.5 -140.5q118 0 218 54t173 145l182 -156q-100 -125 -245.5 -199.5t-327.5 -74.5 q-149 0 -281 48.5t-233 139t-160 232t-59 315.5zM496 1860h223l117 -146h4l116 146h228l-228 -273h-239z" />
<glyph unicode="&#x10d;" horiz-adv-x="1089" d="M90 498q0 229 145 372.5t373 143.5q121 0 234 -48.5t186 -138.5l-156 -135q-96 115 -251 115q-133 0 -215 -85t-82 -222q0 -138 82.5 -222.5t214.5 -84.5q81 0 146 31.5t105 84.5l158 -139q-143 -186 -430 -186q-223 0 -366.5 143.5t-143.5 370.5zM272 1427h224l110 -157 h4l113 157h227l-223 -297h-240z" />
<glyph unicode="&#x10e;" horiz-adv-x="1507" d="M178 0v1454h463q170 0 312 -53.5t239.5 -149.5t151 -231t53.5 -295t-52 -294t-147.5 -229.5t-237 -148.5t-313.5 -53h-469zM395 1860h223l117 -146h4l117 146h227l-227 -273h-240zM426 221h207q227 0 367.5 142t140.5 362q0 222 -138.5 365t-357.5 143h-219v-1012z" />
<glyph unicode="&#x10f;" horiz-adv-x="1439" d="M88 496q0 148 63.5 267t173.5 185t246 66q204 0 320 -137h2v630h227v-1507h-219v135h-2q-116 -151 -326 -151t-347.5 141.5t-137.5 370.5zM322 494q0 -132 80 -216.5t206 -84.5q125 0 209 84t84 217q0 135 -81.5 224t-209.5 89q-123 0 -205.5 -86t-82.5 -227zM1253 1194 l62 405h221l-119 -405h-164z" />
<glyph unicode="&#x110;" horiz-adv-x="1507" d="M57 616v211h121v627h463q170 0 312 -53.5t239.5 -149.5t151 -231t53.5 -295t-52 -294t-147.5 -229.5t-237 -148.5t-313.5 -53h-469v616h-121zM426 221h207q227 0 367.5 142t140.5 362q0 222 -138.5 365t-357.5 143h-219v-406h344v-211h-344v-395z" />
<glyph unicode="&#x111;" horiz-adv-x="1247" d="M88 496q0 148 63.5 267t173.5 185t246 66q204 0 320 -137h2v274h-381v156h381v200h227v-200h127v-156h-127v-1151h-219v135h-2q-116 -151 -326 -151t-347.5 141.5t-137.5 370.5zM322 494q0 -132 80 -216.5t206 -84.5q125 0 209 84t84 217q0 135 -81.5 224t-209.5 89 q-123 0 -205.5 -86t-82.5 -227z" />
<glyph unicode="&#x112;" horiz-adv-x="1243" d="M178 0v1454h916v-221h-668v-402h539v-221h-539v-389h711v-221h-959zM350 1632v183h611v-183h-611z" />
<glyph unicode="&#x113;" horiz-adv-x="1150" d="M90 500q0 229 140.5 371.5t361.5 142.5q209 0 340 -141t131 -361q0 -40 -6 -88h-729q22 -109 99 -170t194 -61q157 0 251 116l160 -137q-145 -188 -424 -188q-229 0 -373.5 141.5t-144.5 374.5zM291 1196v193h610v-193h-610zM332 604h499q-23 94 -84.5 148.5t-156.5 54.5 q-96 0 -165 -53t-93 -150z" />
<glyph unicode="&#x114;" horiz-adv-x="1243" d="M178 0v1454h916v-221h-668v-402h539v-221h-539v-389h711v-221h-959zM336 1860h180q3 -49 39.5 -80t99.5 -31q62 0 99.5 31.5t40.5 79.5h180q-11 -131 -93.5 -209t-226.5 -78t-226 77.5t-93 209.5z" />
<glyph unicode="&#x115;" horiz-adv-x="1150" d="M90 500q0 229 140.5 371.5t361.5 142.5q209 0 340 -141t131 -361q0 -40 -6 -88h-729q22 -109 99 -170t194 -61q157 0 251 116l160 -137q-145 -188 -424 -188q-229 0 -373.5 141.5t-144.5 374.5zM276 1427h181q3 -54 40 -91.5t99 -37.5t99 37.5t40 91.5h180 q-11 -144 -92.5 -224.5t-226.5 -80.5t-227 80.5t-93 224.5zM332 604h499q-23 94 -84.5 148.5t-156.5 54.5q-96 0 -165 -53t-93 -150z" />
<glyph unicode="&#x116;" horiz-adv-x="1243" d="M178 0v1454h916v-221h-668v-402h539v-221h-539v-389h711v-221h-959zM504 1737q0 62 44.5 106.5t108.5 44.5t110 -44.5t46 -106.5q0 -63 -46 -108.5t-110 -45.5t-108.5 45.5t-44.5 108.5z" />
<glyph unicode="&#x117;" horiz-adv-x="1150" d="M90 500q0 229 140.5 371.5t361.5 142.5q209 0 340 -141t131 -361q0 -40 -6 -88h-729q22 -109 99 -170t194 -61q157 0 251 116l160 -137q-145 -188 -424 -188q-229 0 -373.5 141.5t-144.5 374.5zM332 604h499q-23 94 -84.5 148.5t-156.5 54.5q-96 0 -165 -53t-93 -150z M442 1300q0 62 45 107t109 45t110 -45t46 -107q0 -63 -46 -108t-110 -45t-109 45t-45 108z" />
<glyph unicode="&#x118;" horiz-adv-x="1243" d="M178 0v1454h916v-221h-668v-402h539v-221h-539v-389h711v-221h-27q-73 -17 -117.5 -61t-44.5 -93q0 -39 23 -61.5t65 -22.5q11 0 19.5 0.5t16 1.5t11.5 1.5t11 3t8 2.5t9 4t9 4l15 -139q-61 -25 -148 -25q-101 0 -161 49t-60 131q0 51 34.5 106.5t96.5 98.5h-719z" />
<glyph unicode="&#x119;" horiz-adv-x="1148" d="M90 500q0 229 140.5 371.5t361.5 142.5q209 0 340 -141t131 -361q0 -40 -6 -88h-729q22 -109 99 -170t194 -61q157 0 251 116l160 -137q-110 -140 -291 -176q-139 -58 -139 -139q0 -33 23.5 -54.5t64.5 -21.5q44 0 84 14l14 -145q-58 -27 -147 -27q-114 0 -177 49.5 t-63 132.5q0 44 26.5 92.5t76.5 88.5v6q-189 33 -301.5 168.5t-112.5 339.5zM332 604h499q-23 94 -84.5 148.5t-156.5 54.5q-96 0 -165 -53t-93 -150z" />
<glyph unicode="&#x11a;" horiz-adv-x="1243" d="M178 0v1454h916v-221h-668v-402h539v-221h-539v-389h711v-221h-959zM309 1860h223l117 -146h4l117 146h227l-227 -273h-240z" />
<glyph unicode="&#x11b;" horiz-adv-x="1150" d="M90 500q0 229 140.5 371.5t361.5 142.5q209 0 340 -141t131 -361q0 -40 -6 -88h-729q22 -109 99 -170t194 -61q157 0 251 116l160 -137q-145 -188 -424 -188q-229 0 -373.5 141.5t-144.5 374.5zM256 1427h223l111 -157h4l113 157h227l-223 -297h-240zM332 604h499 q-23 94 -84.5 148.5t-156.5 54.5q-96 0 -165 -53t-93 -150z" />
<glyph unicode="&#x11c;" horiz-adv-x="1554" d="M113 725q0 160 50.5 297t143 236t229.5 155.5t302 56.5q159 0 308 -60t259 -179l-174 -152q-161 158 -395 158q-201 0 -333 -140t-132 -372q0 -145 57.5 -261t166.5 -183.5t251 -67.5q180 0 323 96v246h-356v221h602v-606q-101 -84 -252 -133t-317 -49q-210 0 -375 87 t-261.5 256t-96.5 394zM485 1587l228 273h239l222 -273h-224l-116 146h-5l-116 -146h-228z" />
<glyph unicode="&#x11d;" horiz-adv-x="1243" d="M86 510q0 220 134 362t341 142q184 0 311 -121h5v106h229v-897q0 -117 -28 -210t-87 -164t-159 -109.5t-236 -38.5q-234 0 -408 105l56 200q97 -51 169.5 -74.5t170.5 -23.5q142 0 219.5 70.5t77.5 175.5v104h-4q-121 -121 -304 -121q-212 0 -349.5 137t-137.5 357z M260 1135l223 297h240l215 -297h-223l-111 157h-4l-113 -157h-227zM319 516q0 -131 80.5 -210t204.5 -79t203.5 82.5t79.5 210.5q0 126 -80.5 205.5t-202.5 79.5q-127 0 -206 -80.5t-79 -208.5z" />
<glyph unicode="&#x11e;" horiz-adv-x="1554" d="M113 725q0 160 50.5 297t143 236t229.5 155.5t302 56.5q159 0 308 -60t259 -179l-174 -152q-161 158 -395 158q-201 0 -333 -140t-132 -372q0 -145 57.5 -261t166.5 -183.5t251 -67.5q180 0 323 96v246h-356v221h602v-606q-101 -84 -252 -133t-317 -49q-210 0 -375 87 t-261.5 256t-96.5 394zM512 1860h180q3 -49 39.5 -80t99.5 -31q62 0 99.5 31.5t40.5 79.5h180q-11 -131 -93.5 -209t-226.5 -78t-226 77.5t-93 209.5z" />
<glyph unicode="&#x11f;" horiz-adv-x="1243" d="M86 510q0 220 134 362t341 142q184 0 311 -121h5v106h229v-897q0 -117 -28 -210t-87 -164t-159 -109.5t-236 -38.5q-234 0 -408 105l56 200q97 -51 169.5 -74.5t170.5 -23.5q142 0 219.5 70.5t77.5 175.5v104h-4q-121 -121 -304 -121q-212 0 -349.5 137t-137.5 357z M281 1427h180q3 -54 40 -91.5t99 -37.5t99 37.5t40 91.5h181q-11 -144 -93 -224.5t-227 -80.5t-226.5 80.5t-92.5 224.5zM319 516q0 -131 80.5 -210t204.5 -79t203.5 82.5t79.5 210.5q0 126 -80.5 205.5t-202.5 79.5q-127 0 -206 -80.5t-79 -208.5z" />
<glyph unicode="&#x120;" horiz-adv-x="1554" d="M113 725q0 160 50.5 297t143 236t229.5 155.5t302 56.5q159 0 308 -60t259 -179l-174 -152q-161 158 -395 158q-201 0 -333 -140t-132 -372q0 -145 57.5 -261t166.5 -183.5t251 -67.5q180 0 323 96v246h-356v221h602v-606q-101 -84 -252 -133t-317 -49q-210 0 -375 87 t-261.5 256t-96.5 394zM680 1737q0 62 45 106.5t109 44.5t109.5 -44.5t45.5 -106.5q0 -63 -45.5 -108.5t-109.5 -45.5t-109 45.5t-45 108.5z" />
<glyph unicode="&#x121;" horiz-adv-x="1243" d="M86 510q0 220 134 362t341 142q184 0 311 -121h5v106h229v-897q0 -117 -28 -210t-87 -164t-159 -109.5t-236 -38.5q-234 0 -408 105l56 200q97 -51 169.5 -74.5t170.5 -23.5q142 0 219.5 70.5t77.5 175.5v104h-4q-121 -121 -304 -121q-212 0 -349.5 137t-137.5 357z M319 516q0 -131 80.5 -210t204.5 -79t203.5 82.5t79.5 210.5q0 126 -80.5 205.5t-202.5 79.5q-127 0 -206 -80.5t-79 -208.5zM446 1300q0 62 45 107t109 45t110 -45t46 -107q0 -63 -46 -108t-110 -45t-109 45t-45 108z" />
<glyph unicode="&#x122;" horiz-adv-x="1554" d="M113 725q0 160 50.5 297t143 236t229.5 155.5t302 56.5q159 0 308 -60t259 -179l-174 -152q-161 158 -395 158q-201 0 -333 -140t-132 -372q0 -145 57.5 -261t166.5 -183.5t251 -67.5q180 0 323 96v246h-356v221h602v-606q-101 -84 -252 -133t-317 -49q-210 0 -375 87 t-261.5 256t-96.5 394zM635 -315q62 22 87.5 50t25.5 77q0 22 -13 79h209q8 -41 8 -96q0 -110 -75 -171.5t-189 -72.5z" />
<glyph unicode="&#x123;" horiz-adv-x="1243" d="M86 510q0 220 134 362t341 142q184 0 311 -121h5v106h229v-897q0 -117 -28 -210t-87 -164t-159 -109.5t-236 -38.5q-234 0 -408 105l56 200q97 -51 169.5 -74.5t170.5 -23.5q142 0 219.5 70.5t77.5 175.5v104h-4q-121 -121 -304 -121q-212 0 -349.5 137t-137.5 357z M319 516q0 -131 80.5 -210t204.5 -79t203.5 82.5t79.5 210.5q0 126 -80.5 205.5t-202.5 79.5q-127 0 -206 -80.5t-79 -208.5zM496 1241q0 110 75 171.5t189 72.5l53 -133q-62 -22 -87.5 -50t-25.5 -77q0 -23 13 -80h-209q-8 41 -8 96z" />
<glyph unicode="&#x124;" horiz-adv-x="1507" d="M178 0v1454h248v-649h655v649h248v-1454h-248v584h-655v-584h-248zM414 1587l227 273h240l221 -273h-223l-117 146h-4l-117 -146h-227z" />
<glyph unicode="&#x125;" horiz-adv-x="1224" d="M147 1608l228 272h239l222 -272h-224l-116 145h-4l-117 -145h-228zM150 0v1507h229v-633h2q128 140 340 140q174 0 273.5 -100.5t99.5 -315.5v-598h-230v539q0 144 -54.5 206t-162.5 62q-126 0 -197 -76.5t-71 -222.5v-508h-229z" />
<glyph unicode="&#x126;" horiz-adv-x="1511" d="M76 1057v170h106v227h248v-227h655v227h248v-227h111v-170h-111v-1057h-248v584h-655v-584h-248v1057h-106zM430 805h655v252h-655v-252z" />
<glyph unicode="&#x127;" horiz-adv-x="1224" d="M12 1151v156h138v200h229v-200h356v-156h-356v-277h2q128 140 340 140q174 0 273.5 -100.5t99.5 -315.5v-598h-230v539q0 144 -54.5 206t-162.5 62q-126 0 -197 -76.5t-71 -222.5v-508h-229v1151h-138z" />
<glyph unicode="&#x128;" horiz-adv-x="622" d="M-84 1653q33 95 92.5 153t141.5 58q37 0 74.5 -11t55.5 -20t52 -29q4 -2 17.5 -10t18 -11t16 -9t18 -8t16 -5.5t18 -4.5t17.5 -1q32 0 56.5 25t47.5 82l139 -47q-68 -228 -229 -228q-69 0 -172 60q-85 49 -129 49q-67 0 -111 -107zM186 0v1454h248v-1454h-248z" />
<glyph unicode="&#x129;" horiz-adv-x="557" d="M-90 1206q33 102 85.5 157.5t133.5 55.5q74 0 158 -49q55 -33 76.5 -42t39.5 -9q74 0 117 106l139 -47q-32 -108 -89.5 -169.5t-137.5 -61.5q-72 0 -164 57q-82 49 -121 45q-26 -3 -53 -31t-45 -75zM164 0v999h229v-999h-229z" />
<glyph unicode="&#x12a;" horiz-adv-x="622" d="M2 1632v183h610v-183h-610zM186 0v1454h248v-1454h-248z" />
<glyph unicode="&#x12b;" horiz-adv-x="557" d="M-27 1196v193h611v-193h-611zM164 0v999h229v-999h-229z" />
<glyph unicode="&#x12c;" horiz-adv-x="622" d="M-12 1860h180q3 -49 39.5 -80t99.5 -31q62 0 99 31.5t40 79.5h181q-11 -131 -93.5 -209t-226.5 -78t-226 77.5t-93 209.5zM186 0v1454h248v-1454h-248z" />
<glyph unicode="&#x12d;" horiz-adv-x="557" d="M-12 1427h180q5 -62 33 -100.5t78 -38.5q46 0 75.5 38t32.5 101h180q-9 -134 -85.5 -216.5t-202.5 -82.5q-120 0 -200.5 78.5t-90.5 220.5zM164 0v999h229v-999h-229z" />
<glyph unicode="&#x12e;" horiz-adv-x="622" d="M51 -205q0 51 35.5 107.5t99.5 99.5v1452h248v-1454h-39q-73 -17 -117.5 -61t-44.5 -93q0 -39 23.5 -61.5t65.5 -22.5q11 0 19.5 0.5t16 1.5t11.5 1.5t11 3t8 2.5t9 4t9 4l14 -139q-61 -25 -148 -25q-101 0 -161 49t-60 131z" />
<glyph unicode="&#x12f;" horiz-adv-x="557" d="M27 -205q0 52 36 109t101 100v995h229v-999h-22q-73 -17 -117.5 -61t-44.5 -93q0 -39 23 -61.5t65 -22.5q11 0 19.5 0.5t16 1.5t11.5 1.5t11 3t8 2.5t9 4t9 4l14 -139q-61 -25 -147 -25q-101 0 -161 49t-60 131zM125 1300q0 62 45 107t109 45t109.5 -45t45.5 -107 q0 -63 -45.5 -108t-109.5 -45t-109 45t-45 108z" />
<glyph unicode="&#x130;" horiz-adv-x="622" d="M156 1737q0 62 44.5 106.5t108.5 44.5t110 -44.5t46 -106.5q0 -63 -46 -108.5t-110 -45.5t-108.5 45.5t-44.5 108.5zM186 0v1454h248v-1454h-248z" />
<glyph unicode="&#x131;" horiz-adv-x="557" d="M164 0v999h229v-999h-229z" />
<glyph unicode="&#x132;" horiz-adv-x="1660" d="M186 0v1454h248v-1454h-248zM686 170l139 180q44 -53 108.5 -91t127.5 -38q196 0 196 279v954h248v-956q0 -249 -103 -379.5t-331 -130.5q-108 0 -212.5 46.5t-172.5 135.5z" />
<glyph unicode="&#x133;" horiz-adv-x="1067" d="M125 1300q0 62 45 107t109 45t109.5 -45t45.5 -107q0 -63 -45.5 -108t-109.5 -45t-109 45t-45 108zM164 0v999h229v-999h-229zM457 -385l39 199q47 -29 104 -29q100 0 100 147v1067h230v-1067q0 -169 -78.5 -261.5t-200.5 -92.5q-57 0 -98 7.5t-96 29.5zM659 1300 q0 62 45 107t109 45t110 -45t46 -107q0 -63 -46 -108t-110 -45t-109 45t-45 108z" />
<glyph unicode="&#x134;" horiz-adv-x="1038" d="M63 170l140 180q44 -53 108 -91t127 -38q197 0 197 279v954h248v-956q0 -249 -103 -379.5t-331 -130.5q-108 0 -213 47t-173 135zM412 1587l227 273h240l221 -273h-223l-117 146h-4l-117 -146h-227z" />
<glyph unicode="&#x135;" horiz-adv-x="509" d="M-100 -385l39 199q47 -29 104 -29q100 0 100 147v1067h230v-1067q0 -169 -78.5 -261.5t-200.5 -92.5q-57 0 -98 7.5t-96 29.5zM-84 1135l223 297h240l215 -297h-223l-111 157h-4l-113 -157h-227z" />
<glyph unicode="&#x136;" horiz-adv-x="1359" d="M178 0v1454h248v-696h4l557 696h316l-547 -649l563 -805h-307l-420 608l-166 -196v-412h-248zM489 -315q62 22 87.5 50t25.5 77q0 26 -12 79h209q8 -41 8 -96q0 -110 -75 -171.5t-189 -72.5z" />
<glyph unicode="&#x137;" horiz-adv-x="1095" d="M150 0v1507h229v-968l4 -2l405 462h273l-361 -401l367 -598h-258l-268 440l-162 -176v-264h-229zM377 -315q62 22 87 50t25 77q0 26 -12 79h209q8 -41 8 -96q0 -110 -75 -171.5t-189 -72.5z" />
<glyph unicode="&#x138;" horiz-adv-x="1136" d="M150 0v999h229v-462l4 -2l418 464h284l-401 -430l424 -569h-279l-297 420l-153 -164v-256h-229z" />
<glyph unicode="&#x139;" horiz-adv-x="1173" d="M178 0v1454h248v-1233h674v-221h-922zM395 1587l230 273h256l-258 -273h-228z" />
<glyph unicode="&#x13a;" horiz-adv-x="557" d="M162 1614l229 272h256l-258 -272h-227zM164 0v1507h229v-1507h-229z" />
<glyph unicode="&#x13b;" horiz-adv-x="1173" d="M178 0v1454h248v-1233h674v-221h-922zM418 -315q62 22 87 50t25 77q0 26 -12 79h209q8 -41 8 -96q0 -110 -75 -171.5t-189 -72.5z" />
<glyph unicode="&#x13c;" horiz-adv-x="557" d="M68 -315q62 22 87 50t25 77q0 26 -12 79h209q8 -41 8 -96q0 -110 -75 -171.5t-189 -72.5zM164 0v1507h229v-1507h-229z" />
<glyph unicode="&#x13d;" horiz-adv-x="1173" d="M178 0v1454h248v-1233h674v-221h-922zM655 1192l62 405h221l-119 -405h-164z" />
<glyph unicode="&#x13e;" horiz-adv-x="708" d="M164 0v1507h229v-1507h-229zM526 1194l62 405h221l-119 -405h-164z" />
<glyph unicode="&#x13f;" horiz-adv-x="1173" d="M178 0v1454h248v-1233h674v-221h-922zM741 694q0 63 46 108.5t110 45.5q63 0 108.5 -45.5t45.5 -108.5t-45.5 -107t-108.5 -44q-65 0 -110.5 44t-45.5 107z" />
<glyph unicode="&#x140;" horiz-adv-x="927" d="M164 0v1507h229v-1507h-229zM582 502q0 63 45.5 108t109.5 45q63 0 108.5 -45t45.5 -108t-45.5 -107.5t-108.5 -44.5q-64 0 -109.5 44.5t-45.5 107.5z" />
<glyph unicode="&#x141;" horiz-adv-x="1185" d="M43 489v201l147 64v700h248v-592l242 105v-205l-242 -103v-438h674v-221h-922v553z" />
<glyph unicode="&#x142;" horiz-adv-x="628" d="M57 451v180l152 65v811h229v-712l144 61v-180l-144 -62v-614h-229v516z" />
<glyph unicode="&#x143;" horiz-adv-x="1562" d="M178 0v1454h246l711 -1044h4v1044h245v-1454h-251l-703 1026h-4v-1026h-248zM573 1587l230 273h256l-258 -273h-228z" />
<glyph unicode="&#x144;" horiz-adv-x="1214" d="M150 0v999h229v-137h4q61 73 148 112.5t186 39.5q172 0 269 -104t97 -322v-588h-229v528q0 152 -54.5 215.5t-162.5 63.5q-119 0 -188.5 -80t-69.5 -225v-502h-229zM463 1139l235 295l252 2l-254 -297h-233z" />
<glyph unicode="&#x145;" horiz-adv-x="1562" d="M178 0v1454h246l711 -1044h4v1044h245v-1454h-251l-703 1026h-4v-1026h-248zM567 -315q62 22 87.5 50t25.5 77q0 26 -12 79h209q8 -41 8 -96q0 -110 -75 -171.5t-189 -72.5z" />
<glyph unicode="&#x146;" horiz-adv-x="1214" d="M150 0v999h229v-137h4q61 73 148 112.5t186 39.5q172 0 269 -104t97 -322v-588h-229v528q0 152 -54.5 215.5t-162.5 63.5q-119 0 -188.5 -80t-69.5 -225v-502h-229zM428 -315q62 22 87.5 50t25.5 77q0 22 -13 79h209q8 -41 8 -96q0 -110 -75 -171.5t-189 -72.5z" />
<glyph unicode="&#x147;" horiz-adv-x="1562" d="M178 0v1454h246l711 -1044h4v1044h245v-1454h-251l-703 1026h-4v-1026h-248zM434 1860h223l117 -146h4l117 146h227l-227 -273h-240z" />
<glyph unicode="&#x148;" horiz-adv-x="1214" d="M150 0v999h229v-137h4q61 73 148 112.5t186 39.5q172 0 269 -104t97 -322v-588h-229v528q0 152 -54.5 215.5t-162.5 63.5q-119 0 -188.5 -80t-69.5 -225v-502h-229zM266 1427h223l111 -157h4l113 157h227l-223 -297h-240z" />
<glyph unicode="&#x149;" horiz-adv-x="1384" d="M-18 1028l61 426h221l-119 -426h-163zM319 0v999h230v-137h4q61 73 148 112.5t186 39.5q172 0 269 -104t97 -322v-588h-229v528q0 152 -54.5 215.5t-162.5 63.5q-119 0 -188.5 -80t-69.5 -225v-502h-230z" />
<glyph unicode="&#x14a;" horiz-adv-x="1564" d="M178 0v1454h242l715 -1046h4v1046h247v-1460q0 -97 -23 -171t-60.5 -119.5t-91 -74t-107.5 -39t-117 -10.5q-94 0 -180 29l18 201q50 -23 119 -23q53 0 92 17t61 46t32 62.5t10 71.5v14l-709 1026h-4v-1024h-248z" />
<glyph unicode="&#x14b;" horiz-adv-x="1206" d="M150 0v999h229v-137h4q127 152 326 152q172 0 269 -104t97 -322v-606q0 -402 -362 -402q-82 0 -154 29l16 182q54 -20 107 -20q90 0 127 45t37 143v569q0 152 -54.5 215.5t-162.5 63.5q-113 0 -181.5 -80t-68.5 -225v-502h-229z" />
<glyph unicode="&#x14c;" horiz-adv-x="1693" d="M113 727q0 212 92 381.5t260.5 265.5t382.5 96q209 0 375.5 -92.5t262 -262.5t95.5 -388q0 -163 -55.5 -302t-153 -235.5t-233 -151t-291.5 -54.5q-214 0 -382.5 96t-260.5 265.5t-92 381.5zM369 727q0 -142 59.5 -258.5t170 -185t249.5 -68.5q202 0 338.5 145.5 t136.5 366.5q0 222 -136 367t-339 145q-139 0 -249.5 -68.5t-170 -185t-59.5 -258.5zM545 1632v183h610v-183h-610z" />
<glyph unicode="&#x14d;" horiz-adv-x="1228" d="M90 498q0 147 64.5 264t184.5 184.5t275 67.5q231 0 378 -143.5t147 -372.5q0 -227 -147 -370.5t-378 -143.5q-233 0 -378.5 145.5t-145.5 368.5zM309 1196v193h611v-193h-611zM324 498q0 -129 81.5 -217t208.5 -88q123 0 207 86t84 219q0 136 -83 222.5t-208 86.5 q-129 0 -209.5 -88t-80.5 -221z" />
<glyph unicode="&#x14e;" horiz-adv-x="1693" d="M113 727q0 212 92 381.5t260.5 265.5t382.5 96q209 0 375.5 -92.5t262 -262.5t95.5 -388q0 -163 -55.5 -302t-153 -235.5t-233 -151t-291.5 -54.5q-214 0 -382.5 96t-260.5 265.5t-92 381.5zM369 727q0 -142 59.5 -258.5t170 -185t249.5 -68.5q202 0 338.5 145.5 t136.5 366.5q0 222 -136 367t-339 145q-139 0 -249.5 -68.5t-170 -185t-59.5 -258.5zM530 1860h181q3 -49 39.5 -80t99.5 -31q62 0 99 31.5t40 79.5h180q-11 -132 -93 -209.5t-226 -77.5t-226.5 78t-93.5 209z" />
<glyph unicode="&#x14f;" horiz-adv-x="1228" d="M90 498q0 147 64.5 264t184.5 184.5t275 67.5q231 0 378 -143.5t147 -372.5q0 -227 -147 -370.5t-378 -143.5q-233 0 -378.5 145.5t-145.5 368.5zM295 1427h180q3 -54 40 -91.5t99 -37.5t99.5 37.5t40.5 91.5h180q-11 -144 -93 -224.5t-227 -80.5t-226.5 80.5 t-92.5 224.5zM324 498q0 -129 81.5 -217t208.5 -88q123 0 207 86t84 219q0 136 -83 222.5t-208 86.5q-129 0 -209.5 -88t-80.5 -221z" />
<glyph unicode="&#x150;" horiz-adv-x="1693" d="M113 727q0 212 92 381.5t260.5 265.5t382.5 96q209 0 375.5 -92.5t262 -262.5t95.5 -388q0 -163 -55.5 -302t-153 -235.5t-233 -151t-291.5 -54.5q-214 0 -382.5 96t-260.5 265.5t-92 381.5zM369 727q0 -142 59.5 -258.5t170 -185t249.5 -68.5q202 0 338.5 145.5 t136.5 366.5q0 222 -136 367t-339 145q-139 0 -249.5 -68.5t-170 -185t-59.5 -258.5zM547 1587l235 295l234 2l-254 -297h-215zM938 1587l233 295l234 2l-254 -297h-213z" />
<glyph unicode="&#x151;" horiz-adv-x="1228" d="M90 498q0 147 64.5 264t184.5 184.5t275 67.5q231 0 378 -143.5t147 -372.5q0 -227 -147 -370.5t-378 -143.5q-233 0 -378.5 145.5t-145.5 368.5zM311 1139l236 295l233 2l-254 -297h-215zM324 498q0 -129 81.5 -217t208.5 -88q123 0 207 86t84 219q0 136 -83 222.5 t-208 86.5q-129 0 -209.5 -88t-80.5 -221zM702 1139l234 295l233 2l-254 -297h-213z" />
<glyph unicode="&#x152;" horiz-adv-x="1978" d="M113 729q0 153 54 287t150 231t234.5 152.5t300.5 54.5h979v-221h-674v-404h551v-221h-551v-387h715v-221h-1020q-162 0 -300.5 56t-234.5 153.5t-150 232t-54 287.5zM369 729q0 -140 63.5 -255.5t174.5 -180.5t245 -64l70 2v994h-70q-134 1 -245 -63t-174.5 -178.5 t-63.5 -254.5z" />
<glyph unicode="&#x153;" horiz-adv-x="1658" d="M61 496q0 228 123 373t322 145q213 0 319 -166h4q125 166 361 166q187 0 299.5 -140.5t112.5 -361.5q0 -37 -7 -86h-637q16 -108 78.5 -170.5t169.5 -62.5q67 0 121.5 32.5t89.5 83.5l160 -137q-135 -188 -383 -188q-240 0 -365 166h-4q-46 -76 -135 -121t-184 -45 q-205 0 -325 138.5t-120 373.5zM295 498q0 -140 56 -224t151 -84q89 0 153 87.5t64 220.5q0 137 -58 223t-147 86q-95 0 -157 -87t-62 -222zM961 600h413q-12 97 -60.5 152t-129.5 55q-186 0 -223 -207z" />
<glyph unicode="&#x154;" horiz-adv-x="1349" d="M178 0v1454h537q127 0 223.5 -35.5t155.5 -99.5t88.5 -148.5t29.5 -187.5q0 -171 -82 -282.5t-241 -157.5l377 -543h-297l-348 518h-195v-518h-248zM426 741h236q144 0 219 67t75 179q0 116 -72.5 181t-205.5 65h-252v-492zM465 1587l229 273h256l-258 -273h-227z" />
<glyph unicode="&#x155;" horiz-adv-x="761" d="M150 0v999h229v-149h4q59 78 139 121t170 43h29v-256q-54 4 -70 4q-127 0 -199.5 -81t-72.5 -208v-473h-229zM250 1139l235 295l252 2l-254 -297h-233z" />
<glyph unicode="&#x156;" horiz-adv-x="1349" d="M178 0v1454h537q127 0 223.5 -35.5t155.5 -99.5t88.5 -148.5t29.5 -187.5q0 -171 -82 -282.5t-241 -157.5l377 -543h-297l-348 518h-195v-518h-248zM426 741h236q144 0 219 67t75 179q0 116 -72.5 181t-205.5 65h-252v-492zM459 -315q62 22 87 50t25 77q0 26 -12 79h209 q8 -41 8 -96q0 -110 -75 -171.5t-189 -72.5z" />
<glyph unicode="&#x157;" horiz-adv-x="761" d="M57 -315q62 22 87.5 50t25.5 77q0 26 -12 79h209q8 -41 8 -96q0 -110 -75 -171.5t-189 -72.5zM150 0v999h229v-149h4q59 78 139 121t170 43h29v-256q-54 4 -70 4q-127 0 -199.5 -81t-72.5 -208v-473h-229z" />
<glyph unicode="&#x158;" horiz-adv-x="1349" d="M178 0v1454h537q127 0 223.5 -35.5t155.5 -99.5t88.5 -148.5t29.5 -187.5q0 -171 -82 -282.5t-241 -157.5l377 -543h-297l-348 518h-195v-518h-248zM326 1860h223l117 -146h4l116 146h228l-228 -273h-239zM426 741h236q144 0 219 67t75 179q0 116 -72.5 181t-205.5 65 h-252v-492z" />
<glyph unicode="&#x159;" horiz-adv-x="761" d="M115 1427h223l111 -157h4l112 157h228l-224 -297h-239zM150 0v999h229v-149h4q59 78 139 121t170 43h29v-256q-54 4 -70 4q-127 0 -199.5 -81t-72.5 -208v-473h-229z" />
<glyph unicode="&#x15a;" horiz-adv-x="1210" d="M86 213l156 190q76 -92 175.5 -141t196.5 -49q117 0 179.5 47.5t62.5 128.5q0 38 -13 67.5t-32 50.5t-59 42t-76 36t-101 38q-78 28 -132 51t-117 61.5t-101 81.5t-64 107t-26 141q0 169 135.5 287t325.5 118q257 0 481 -178l-147 -194q-181 149 -334 149 q-88 0 -146 -45.5t-59 -124.5q0 -26 6 -47t26 -40.5t36 -32t57 -31t65 -28t83 -32.5q181 -71 241 -104q136 -74 181 -184q28 -68 28 -158q0 -87 -30 -160.5t-79.5 -123.5t-115 -85t-135.5 -51t-142 -16q-144 0 -279.5 57t-246.5 172zM455 1587l229 273h256l-258 -273h-227z " />
<glyph unicode="&#x15b;" horiz-adv-x="919" d="M66 129l114 172q61 -60 130 -88.5t159 -28.5q65 0 102 27t37 72q0 35 -42 58t-154 62q-70 24 -118.5 48.5t-94.5 62t-69.5 92t-23.5 125.5q0 123 99.5 203t253.5 80q198 0 352 -125l-115 -180q-112 106 -250 106q-40 0 -74 -22t-34 -64q0 -35 39.5 -63t118.5 -58 q14 -5 41 -16q37 -14 54.5 -21.5t48.5 -20.5t46 -21.5t39 -22t35.5 -25l28 -28t24 -33t15.5 -37.5t11 -44.5t3 -51.5q0 -133 -95.5 -218t-277.5 -85q-239 0 -403 145zM315 1139l236 295l252 2l-254 -297h-234z" />
<glyph unicode="&#x15c;" horiz-adv-x="1210" d="M86 213l156 190q76 -92 175.5 -141t196.5 -49q117 0 179.5 47.5t62.5 128.5q0 38 -13 67.5t-32 50.5t-59 42t-76 36t-101 38q-78 28 -132 51t-117 61.5t-101 81.5t-64 107t-26 141q0 169 135.5 287t325.5 118q257 0 481 -178l-147 -194q-181 149 -334 149 q-88 0 -146 -45.5t-59 -124.5q0 -26 6 -47t26 -40.5t36 -32t57 -31t65 -28t83 -32.5q181 -71 241 -104q136 -74 181 -184q28 -68 28 -158q0 -87 -30 -160.5t-79.5 -123.5t-115 -85t-135.5 -51t-142 -16q-144 0 -279.5 57t-246.5 172zM254 1587l227 273h240l221 -273h-223 l-117 146h-4l-117 -146h-227z" />
<glyph unicode="&#x15d;" horiz-adv-x="919" d="M66 129l114 172q61 -60 130 -88.5t159 -28.5q65 0 102 27t37 72q0 35 -42 58t-154 62q-70 24 -118.5 48.5t-94.5 62t-69.5 92t-23.5 125.5q0 123 99.5 203t253.5 80q198 0 352 -125l-115 -180q-112 106 -250 106q-40 0 -74 -22t-34 -64q0 -35 39.5 -63t118.5 -58 q14 -5 41 -16q37 -14 54.5 -21.5t48.5 -20.5t46 -21.5t39 -22t35.5 -25l28 -28t24 -33t15.5 -37.5t11 -44.5t3 -51.5q0 -133 -95.5 -218t-277.5 -85q-239 0 -403 145zM133 1135l223 297h240l215 -297h-223l-111 157h-4l-113 -157h-227z" />
<glyph unicode="&#x15e;" horiz-adv-x="1210" d="M86 213l156 190q76 -92 175.5 -141t196.5 -49q117 0 179.5 47.5t62.5 128.5q0 38 -13 67.5t-32 50.5t-59 42t-76 36t-101 38q-78 28 -132 51t-117 61.5t-101 81.5t-64 107t-26 141q0 169 135.5 287t325.5 118q257 0 481 -178l-147 -194q-181 149 -334 149 q-88 0 -146 -45.5t-59 -124.5q0 -26 6 -47t26 -40.5t36 -32t57 -31t65 -28t83 -32.5q181 -71 241 -104q136 -74 181 -184q28 -68 28 -158q0 -104 -42 -188t-111 -135.5t-151 -80t-169 -32.5l-23 -45v-5q93 -3 141 -45t48 -118q0 -72 -60.5 -116t-183.5 -44q-59 0 -121 12 v113q47 -15 103 -15q41 0 72.5 16t31.5 46q0 29 -45.5 49.5t-126.5 20.5v73l29 66q-242 37 -420 221z" />
<glyph unicode="&#x15f;" horiz-adv-x="919" d="M66 129l114 172q61 -60 130 -88.5t159 -28.5q65 0 102 27t37 72q0 35 -42 58t-154 62q-70 24 -118.5 48.5t-94.5 62t-69.5 92t-23.5 125.5q0 123 99.5 203t253.5 80q198 0 352 -125l-115 -180q-112 106 -250 106q-40 0 -74 -22t-34 -64q0 -35 39.5 -63t118.5 -58 q14 -5 41 -16q37 -14 54.5 -21.5t48.5 -20.5t46 -21.5t39 -22t35.5 -25l28 -28t24 -33t15.5 -37.5t11 -44.5t3 -51.5q0 -133 -95 -218t-276 -85l-20 -45v-5q93 -3 140.5 -45t47.5 -118q0 -72 -60.5 -116t-183.5 -44q-59 0 -121 12v113q47 -15 103 -15q41 0 72.5 16t31.5 46 q0 29 -45.5 49.5t-126.5 20.5v73l31 70q-159 30 -274 133z" />
<glyph unicode="&#x160;" horiz-adv-x="1210" d="M86 213l156 190q76 -92 175.5 -141t196.5 -49q117 0 179.5 47.5t62.5 128.5q0 38 -13 67.5t-32 50.5t-59 42t-76 36t-101 38q-78 28 -132 51t-117 61.5t-101 81.5t-64 107t-26 141q0 169 135.5 287t325.5 118q257 0 481 -178l-147 -194q-181 149 -334 149 q-88 0 -146 -45.5t-59 -124.5q0 -26 6 -47t26 -40.5t36 -32t57 -31t65 -28t83 -32.5q181 -71 241 -104q136 -74 181 -184q28 -68 28 -158q0 -87 -30 -160.5t-79.5 -123.5t-115 -85t-135.5 -51t-142 -16q-144 0 -279.5 57t-246.5 172zM254 1860h223l117 -146h4l117 146h227 l-227 -273h-240z" />
<glyph unicode="&#x161;" horiz-adv-x="919" d="M66 129l114 172q61 -60 130 -88.5t159 -28.5q65 0 102 27t37 72q0 35 -42 58t-154 62q-70 24 -118.5 48.5t-94.5 62t-69.5 92t-23.5 125.5q0 123 99.5 203t253.5 80q198 0 352 -125l-115 -180q-112 106 -250 106q-40 0 -74 -22t-34 -64q0 -35 39.5 -63t118.5 -58 q14 -5 41 -16q37 -14 54.5 -21.5t48.5 -20.5t46 -21.5t39 -22t35.5 -25l28 -28t24 -33t15.5 -37.5t11 -44.5t3 -51.5q0 -133 -95.5 -218t-277.5 -85q-239 0 -403 145zM133 1427h223l111 -157h4l113 157h227l-223 -297h-240z" />
<glyph unicode="&#x162;" horiz-adv-x="1206" d="M66 1233v221h1077v-221h-418v-1233h-113l-28 -61v-5q93 -3 140.5 -45t47.5 -118q0 -72 -60.5 -116t-183.5 -44q-58 0 -120 12v113q47 -15 102 -15q41 0 72.5 16t31.5 46q0 29 -45.5 49.5t-126.5 20.5v73l35 78v1229h-411z" />
<glyph unicode="&#x163;" horiz-adv-x="747" d="M45 805v194h123v332l229 25v-357h293v-194h-293v-467q0 -75 23 -107t74 -32q68 0 147 43l59 -199q-52 -29 -108 -44t-146 -15l-20 -45v-5q93 -3 140.5 -45t47.5 -118q0 -72 -60 -116t-183 -44q-59 0 -121 12v113q47 -15 102 -15q41 0 73 16t32 46q0 29 -45.5 49.5 t-126.5 20.5v73l37 82q-154 69 -154 307v490h-123z" />
<glyph unicode="&#x164;" horiz-adv-x="1206" d="M66 1233v221h1077v-221h-418v-1233h-248v1233h-411zM254 1860h223l117 -146h4l117 146h227l-227 -273h-240z" />
<glyph unicode="&#x165;" horiz-adv-x="745" d="M45 805v194h123v332l229 25v-357h293v-194h-293v-467q0 -75 23 -107t74 -32q68 0 147 43l59 -199q-52 -29 -108 -44t-146 -15q-132 0 -205 83.5t-73 247.5v490h-123zM522 1194l62 405h221l-119 -405h-164z" />
<glyph unicode="&#x166;" horiz-adv-x="1206" d="M66 1233v221h1077v-221h-418v-449h250v-192h-250v-592h-248v592h-237v192h237v449h-411z" />
<glyph unicode="&#x167;" horiz-adv-x="747" d="M45 805v194h123v332l229 25v-357h293v-194h-293v-184h238v-156h-238v-127q0 -75 23 -107t74 -32q68 0 147 43l59 -199q-52 -29 -108 -44t-146 -15q-132 0 -205 83.5t-73 247.5v150h-111v156h111v184h-123z" />
<glyph unicode="&#x168;" horiz-adv-x="1472" d="M158 598v856h245v-838q0 -177 89 -288t243 -111q149 0 241.5 107.5t92.5 291.5v838h248v-856q0 -284 -155.5 -449t-426.5 -165q-262 0 -419.5 162.5t-157.5 451.5zM344 1653q33 95 92.5 153t141.5 58q37 0 74.5 -11t55.5 -20t52 -29q4 -2 17.5 -10t18 -11t16 -9t18 -8 t16 -5.5t18 -4.5t17.5 -1q32 0 56.5 25t47.5 82l139 -47q-68 -228 -229 -228q-69 0 -172 60q-85 49 -129 49q-67 0 -111 -107z" />
<glyph unicode="&#x169;" horiz-adv-x="1183" d="M129 391v608h229v-546q0 -145 46.5 -202.5t152.5 -57.5t181 86.5t75 240.5v479h229v-999h-229v125l-4 2q-119 -143 -305 -143q-176 0 -275.5 97t-99.5 310zM197 1200q32 105 91 165t142 60q37 0 71 -9t53.5 -19.5t47.5 -28.5q64 -41 93 -48q13 -3 26 -3q74 0 117 106 l139 -47q-31 -114 -90.5 -178.5t-136.5 -64.5q-78 0 -181 65q-70 45 -114 45q-76 0 -119 -106z" />
<glyph unicode="&#x16a;" horiz-adv-x="1472" d="M158 598v856h245v-838q0 -177 89 -288t243 -111q149 0 241.5 107.5t92.5 291.5v838h248v-856q0 -284 -155.5 -449t-426.5 -165q-262 0 -419.5 162.5t-157.5 451.5zM430 1632v183h610v-183h-610z" />
<glyph unicode="&#x16b;" horiz-adv-x="1183" d="M129 391v608h229v-546q0 -145 46.5 -202.5t152.5 -57.5t181 86.5t75 240.5v479h229v-999h-229v125l-4 2q-119 -143 -305 -143q-176 0 -275.5 97t-99.5 310zM283 1196v193h610v-193h-610z" />
<glyph unicode="&#x16c;" horiz-adv-x="1472" d="M158 598v856h245v-838q0 -177 89 -288t243 -111q149 0 241.5 107.5t92.5 291.5v838h248v-856q0 -284 -155.5 -449t-426.5 -165q-262 0 -419.5 162.5t-157.5 451.5zM416 1860h180q3 -49 39.5 -80t99.5 -31q62 0 99 31.5t40 79.5h181q-11 -131 -93.5 -209t-226.5 -78 t-226 77.5t-93 209.5z" />
<glyph unicode="&#x16d;" horiz-adv-x="1183" d="M129 391v608h229v-546q0 -145 46.5 -202.5t152.5 -57.5t181 86.5t75 240.5v479h229v-999h-229v125l-4 2q-119 -143 -305 -143q-176 0 -275.5 97t-99.5 310zM268 1427h181q3 -54 40 -91.5t99 -37.5t99 37.5t40 91.5h180q-11 -144 -92.5 -224.5t-226.5 -80.5t-227 80.5 t-93 224.5z" />
<glyph unicode="&#x16e;" horiz-adv-x="1472" d="M158 598v856h245v-838q0 -177 89 -288t243 -111q149 0 241.5 107.5t92.5 291.5v838h248v-856q0 -284 -155.5 -449t-426.5 -165q-262 0 -419.5 162.5t-157.5 451.5zM512 1747q0 89 63 152t158 63q93 0 158 -62t65 -153q0 -89 -63 -152t-160 -63q-91 0 -156 62t-65 153z M655 1749q0 -33 22.5 -55.5t55.5 -22.5q34 0 57 23t23 55t-23 55t-57 23q-32 0 -55 -23.5t-23 -54.5z" />
<glyph unicode="&#x16f;" horiz-adv-x="1183" d="M129 391v608h229v-546q0 -145 46.5 -202.5t152.5 -57.5t181 86.5t75 240.5v479h229v-999h-229v125l-4 2q-119 -143 -305 -143q-176 0 -275.5 97t-99.5 310zM365 1321q0 89 63 152t158 63q93 0 158 -62t65 -153q0 -89 -63 -152t-160 -63q-91 0 -156 62t-65 153zM508 1323 q0 -33 22.5 -55.5t55.5 -22.5q34 0 57 23t23 55t-23 55t-57 23q-32 0 -55 -23.5t-23 -54.5z" />
<glyph unicode="&#x170;" horiz-adv-x="1472" d="M158 598v856h245v-838q0 -177 89 -288t243 -111q149 0 241.5 107.5t92.5 291.5v838h248v-856q0 -284 -155.5 -449t-426.5 -165q-262 0 -419.5 162.5t-157.5 451.5zM432 1587l236 295l233 2l-254 -297h-215zM823 1587l234 295l233 2l-254 -297h-213z" />
<glyph unicode="&#x171;" horiz-adv-x="1183" d="M129 391v608h229v-546q0 -145 46.5 -202.5t152.5 -57.5t181 86.5t75 240.5v479h229v-999h-229v125l-4 2q-119 -143 -305 -143q-176 0 -275.5 97t-99.5 310zM285 1139l235 295l234 2l-254 -297h-215zM676 1139l233 295l234 2l-254 -297h-213z" />
<glyph unicode="&#x172;" horiz-adv-x="1472" d="M158 598v856h245v-838q0 -177 89 -288t243 -111q149 0 241.5 107.5t92.5 291.5v838h248v-856q0 -227 -101 -380.5t-284 -207.5q-80 -23 -127 -64.5t-47 -88.5q0 -39 23 -61.5t65 -22.5q52 0 84 14l12 -137q-59 -27 -145 -27q-102 0 -162 50t-60 132q0 42 25.5 89.5 t71.5 87.5l-2 4q-235 21 -373.5 181.5t-138.5 430.5z" />
<glyph unicode="&#x173;" horiz-adv-x="1183" d="M129 391v608h229v-546q0 -145 46.5 -202.5t152.5 -57.5t181 86.5t75 240.5v479h229v-999h-24q-73 -17 -117.5 -61t-44.5 -93q0 -39 23 -61.5t65 -22.5q11 0 19.5 0.5t16 1.5t11.5 1.5t11 3t8 2.5t9 4t9 4l14 -139q-61 -25 -147 -25q-101 0 -161 49t-60 131q0 51 37 108.5 t102 100.5v121l-4 2q-119 -143 -305 -143q-176 0 -275.5 97t-99.5 310z" />
<glyph unicode="&#x174;" horiz-adv-x="2119" d="M66 1454h264l311 -1048h4l285 1048h262l283 -1046h4l313 1046h262l-461 -1454h-231l-297 1094h-4l-303 -1094h-232zM717 1587l227 273h240l221 -273h-223l-117 146h-4l-117 -146h-227z" />
<glyph unicode="&#x175;" horiz-adv-x="1579" d="M47 999h236l211 -663h4l196 663h191l200 -663h5l210 663h232l-340 -999h-211l-193 629h-2l-192 -629h-207zM449 1135l223 297h239l215 -297h-223l-110 157h-5l-112 -157h-227z" />
<glyph unicode="&#x176;" horiz-adv-x="1280" d="M29 1454h282l326 -563h4l324 563h286l-489 -811v-643h-248v643zM297 1587l227 273h240l221 -273h-223l-117 146h-4l-117 -146h-227z" />
<glyph unicode="&#x177;" horiz-adv-x="1095" d="M39 999h246l274 -669h4l256 669h236l-549 -1405h-238l181 461zM209 1135l223 297h240l215 -297h-223l-111 157h-4l-113 -157h-227z" />
<glyph unicode="&#x178;" horiz-adv-x="1280" d="M29 1454h282l326 -563h4l324 563h286l-489 -811v-643h-248v643zM289 1739q0 60 44 103.5t107 43.5t108.5 -44.5t45.5 -104.5q0 -61 -45.5 -105.5t-108.5 -44.5t-107 45t-44 107zM696 1739q0 60 44.5 103.5t107.5 43.5t108 -44.5t45 -104.5q0 -62 -45 -106t-108 -44 t-107.5 45t-44.5 107z" />
<glyph unicode="&#x179;" horiz-adv-x="1282" d="M117 0v195l714 1034l-2 4h-679v221h1007v-190l-727 -1037l4 -6h727v-221h-1044zM434 1587l230 273h256l-258 -273h-228z" />
<glyph unicode="&#x17a;" horiz-adv-x="1001" d="M82 0v162l514 637l-2 6h-477v194h794v-157l-518 -643l2 -4h508v-195h-821zM342 1139l236 295l251 2l-254 -297h-233z" />
<glyph unicode="&#x17b;" horiz-adv-x="1282" d="M117 0v195l714 1034l-2 4h-679v221h1007v-190l-727 -1037l4 -6h727v-221h-1044zM489 1737q0 62 45 106.5t109 44.5t110 -44.5t46 -106.5q0 -63 -46 -108.5t-110 -45.5t-109 45.5t-45 108.5z" />
<glyph unicode="&#x17c;" horiz-adv-x="1001" d="M82 0v162l514 637l-2 6h-477v194h794v-157l-518 -643l2 -4h508v-195h-821zM352 1300q0 62 45 107t109 45t110 -45t46 -107q0 -63 -46 -108t-110 -45t-109 45t-45 108z" />
<glyph unicode="&#x17d;" horiz-adv-x="1282" d="M117 0v195l714 1034l-2 4h-679v221h1007v-190l-727 -1037l4 -6h727v-221h-1044zM295 1860h223l117 -146h4l117 146h227l-227 -273h-240z" />
<glyph unicode="&#x17e;" horiz-adv-x="1001" d="M82 0v162l514 637l-2 6h-477v194h794v-157l-518 -643l2 -4h508v-195h-821zM166 1427h223l111 -157h4l112 157h228l-223 -297h-240z" />
<glyph unicode="&#x17f;" horiz-adv-x="690" d="M76 805v194h110v183q0 167 77.5 254.5t225.5 87.5q144 0 250 -70l-51 -192q-109 51 -166 51q-106 0 -106 -156v-1157h-230v805h-110z" />
<glyph unicode="&#x18f;" horiz-adv-x="1597" d="M90 668q0 47 8 125h1133q-15 210 -141.5 327t-354.5 117q-232 3 -424 -125l-135 191q112 81 265 125.5t319 41.5q144 0 263 -37.5t204.5 -104t144 -159t87 -202.5t28.5 -234q0 -174 -55 -316.5t-151 -236.5t-226 -145t-281 -51q-318 0 -501 184.5t-183 499.5zM342 573 q9 -166 123.5 -262t302.5 -96q168 0 289.5 91.5t159.5 266.5h-875z" />
<glyph unicode="&#x192;" horiz-adv-x="1124" d="M-61 -207l81 162q80 -41 162 -41q71 0 114 43t56 143l86 666h-155l28 195h156l29 223q46 340 358 340q101 0 174.5 -26.5t112.5 -59.5l-84 -162q-83 39 -164 39q-146 0 -168 -187l-20 -167h282l-26 -195h-285l-94 -719q-43 -340 -357 -340q-104 0 -177.5 25.5 t-108.5 60.5z" />
<glyph unicode="&#x19d;" horiz-adv-x="1562" d="M-51 -391l18 201q68 -21 99 -21q57 0 84.5 36.5t27.5 100.5v1528h248v-2l709 -1042h4v1044h245v-1454h-251l-703 1026h-4v-1049q0 -397 -301 -397q-90 0 -176 29z" />
<glyph unicode="&#x1a0;" horiz-adv-x="1781" d="M113 727q0 212 92 381.5t260.5 265.5t382.5 96q176 0 323 -66.5t248 -189.5q24 11 40 31t24 37.5t11.5 53t4 54t0.5 64.5v131h234v-145q0 -140 -57.5 -235.5t-168.5 -133.5q74 -157 74 -344q0 -163 -55.5 -302t-153 -235.5t-233 -151t-291.5 -54.5q-214 0 -382.5 96 t-260.5 265.5t-92 381.5zM369 727q0 -142 59.5 -258.5t170 -185t249.5 -68.5q202 0 338.5 145.5t136.5 366.5q0 222 -136 367t-339 145q-139 0 -249.5 -68.5t-170 -185t-59.5 -258.5z" />
<glyph unicode="&#x1a1;" horiz-adv-x="1394" d="M90 498q0 147 64.5 264t184.5 184.5t275 67.5q146 0 262 -60.5t183 -167.5q19 10 33.5 23.5t22.5 34.5t13 36.5t6.5 46.5t2 46t0.5 53v131h233v-145q0 -147 -63.5 -245.5t-184.5 -131.5q17 -73 17 -137q0 -227 -147 -370.5t-378 -143.5q-233 0 -378.5 145.5t-145.5 368.5 zM324 498q0 -129 81.5 -217t208.5 -88q123 0 207 86t84 219q0 136 -83 222.5t-208 86.5q-129 0 -209.5 -88t-80.5 -221z" />
<glyph unicode="&#x1af;" horiz-adv-x="1677" d="M158 598v856h245v-838q0 -177 89 -288t243 -111q149 0 241.5 107.5t92.5 291.5v838h248v-254q26 5 45.5 16t32.5 22t22 31.5t13.5 35t6.5 43t2.5 45t0.5 50.5v11v131h233v-145q0 -177 -92 -282t-264 -109v-451q0 -284 -155.5 -449t-426.5 -165q-262 0 -419.5 162.5 t-157.5 451.5z" />
<glyph unicode="&#x1b0;" horiz-adv-x="1406" d="M129 391v608h229v-546q0 -145 46.5 -202.5t152.5 -57.5t181 86.5t75 240.5v479h229v-225q27 8 46 20t31 31.5t18.5 36t9.5 47t3.5 49t0.5 56.5v12v131h233v-145q0 -174 -88 -278t-254 -113v-621h-229v125l-4 2q-119 -143 -305 -143q-176 0 -275.5 97t-99.5 310z" />
<glyph unicode="&#x1cd;" horiz-adv-x="1423" d="M47 0l543 1454h241l545 -1454h-258l-110 313h-594l-109 -313h-258zM365 1860h223l117 -146h4l116 146h228l-228 -273h-239zM489 526h445l-221 631h-4z" />
<glyph unicode="&#x1ce;" horiz-adv-x="1251" d="M88 496q0 225 137.5 371.5t343.5 146.5q200 0 310 -137l4 2v120h229v-999h-219v131l-4 2q-112 -149 -318 -149q-210 0 -346.5 141.5t-136.5 370.5zM285 1427h223l110 -157h5l112 157h228l-224 -297h-239zM322 494q0 -133 79.5 -217t206.5 -84q120 0 202.5 84.5 t82.5 216.5q0 134 -81 223.5t-204 89.5t-204.5 -85.5t-81.5 -227.5z" />
<glyph unicode="&#x1cf;" horiz-adv-x="622" d="M-39 1860h223l117 -146h4l117 146h227l-227 -273h-240zM186 0v1454h248v-1454h-248z" />
<glyph unicode="&#x1d0;" horiz-adv-x="557" d="M-61 1427h223l110 -157h4l113 157h227l-223 -297h-239zM164 0v999h229v-999h-229z" />
<glyph unicode="&#x1d1;" horiz-adv-x="1693" d="M113 727q0 212 92 381.5t260.5 265.5t382.5 96q209 0 375.5 -92.5t262 -262.5t95.5 -388q0 -163 -55.5 -302t-153 -235.5t-233 -151t-291.5 -54.5q-214 0 -382.5 96t-260.5 265.5t-92 381.5zM369 727q0 -142 59.5 -258.5t170 -185t249.5 -68.5q202 0 338.5 145.5 t136.5 366.5q0 222 -136 367t-339 145q-139 0 -249.5 -68.5t-170 -185t-59.5 -258.5zM504 1860h223l117 -146h4l117 146h227l-227 -273h-240z" />
<glyph unicode="&#x1d2;" horiz-adv-x="1228" d="M90 498q0 147 64.5 264t184.5 184.5t275 67.5q231 0 378 -143.5t147 -372.5q0 -227 -147 -370.5t-378 -143.5q-233 0 -378.5 145.5t-145.5 368.5zM274 1427h224l110 -157h4l113 157h227l-223 -297h-240zM324 498q0 -129 81.5 -217t208.5 -88q123 0 207 86t84 219 q0 136 -83 222.5t-208 86.5q-129 0 -209.5 -88t-80.5 -221z" />
<glyph unicode="&#x1d3;" horiz-adv-x="1472" d="M158 598v856h245v-838q0 -177 89 -288t243 -111q149 0 241.5 107.5t92.5 291.5v838h248v-856q0 -284 -155.5 -449t-426.5 -165q-262 0 -419.5 162.5t-157.5 451.5zM389 1860h223l117 -146h4l117 146h227l-227 -273h-240z" />
<glyph unicode="&#x1d4;" horiz-adv-x="1183" d="M129 391v608h229v-546q0 -145 46.5 -202.5t152.5 -57.5t181 86.5t75 240.5v479h229v-999h-229v125l-4 2q-119 -143 -305 -143q-176 0 -275.5 97t-99.5 310zM248 1427h223l111 -157h4l112 157h228l-224 -297h-239z" />
<glyph unicode="&#x1d5;" horiz-adv-x="1472" d="M158 598v856h245v-838q0 -177 89 -288t243 -111q149 0 241.5 107.5t92.5 291.5v838h248v-856q0 -284 -155.5 -449t-426.5 -165q-262 0 -419.5 162.5t-157.5 451.5zM410 1700q0 53 39.5 91t97.5 38t98.5 -38t40.5 -91q0 -56 -40.5 -94.5t-98.5 -38.5t-97.5 38.5 t-39.5 94.5zM430 1913v155h610v-155h-610zM776 1700q0 53 39.5 91t97.5 38t99 -38t41 -91q0 -56 -41 -94.5t-99 -38.5t-97.5 38.5t-39.5 94.5z" />
<glyph unicode="&#x1d6;" horiz-adv-x="1183" d="M129 391v608h229v-546q0 -145 46.5 -202.5t152.5 -57.5t181 86.5t75 240.5v479h229v-999h-229v125l-4 2q-119 -143 -305 -143q-176 0 -275.5 97t-99.5 310zM231 1303q0 60 45 102.5t109 42.5q65 0 110.5 -42.5t45.5 -102.5q0 -61 -45.5 -103.5t-110.5 -42.5t-109.5 42.5 t-44.5 103.5zM281 1550v174h610v-174h-610zM637 1303q0 60 45 102.5t109 42.5t109.5 -42.5t45.5 -102.5q0 -61 -45 -103.5t-110 -42.5t-109.5 42.5t-44.5 103.5z" />
<glyph unicode="&#x1d7;" horiz-adv-x="1472" d="M158 598v856h245v-838q0 -177 89 -288t243 -111q149 0 241.5 107.5t92.5 291.5v838h248v-856q0 -284 -155.5 -449t-426.5 -165q-262 0 -419.5 162.5t-157.5 451.5zM410 1700q0 53 39.5 91t97.5 38t98.5 -38t40.5 -91q0 -56 -40.5 -94.5t-98.5 -38.5t-97.5 38.5 t-39.5 94.5zM651 1858l172 256h252l-254 -256h-170zM776 1700q0 53 39.5 91t97.5 38t99 -38t41 -91q0 -56 -41 -94.5t-99 -38.5t-97.5 38.5t-39.5 94.5z" />
<glyph unicode="&#x1d8;" horiz-adv-x="1183" d="M129 391v608h229v-546q0 -145 46.5 -202.5t152.5 -57.5t181 86.5t75 240.5v479h229v-999h-229v125l-4 2q-119 -143 -305 -143q-176 0 -275.5 97t-99.5 310zM231 1303q0 60 45 102.5t109 42.5q65 0 110.5 -42.5t45.5 -102.5q0 -61 -45.5 -103.5t-110.5 -42.5t-109.5 42.5 t-44.5 103.5zM494 1491l235 297h252l-313 -297h-174zM637 1303q0 60 45 102.5t109 42.5t109.5 -42.5t45.5 -102.5q0 -61 -45 -103.5t-110 -42.5t-109.5 42.5t-44.5 103.5z" />
<glyph unicode="&#x1d9;" horiz-adv-x="1472" d="M158 598v856h245v-838q0 -177 89 -288t243 -111q149 0 241.5 107.5t92.5 291.5v838h248v-856q0 -284 -155.5 -449t-426.5 -165q-262 0 -419.5 162.5t-157.5 451.5zM395 2128h223l117 -146h4l117 146h227l-227 -273h-240zM410 1700q0 53 39.5 91t97.5 38t98.5 -38 t40.5 -91q0 -56 -40.5 -94.5t-98.5 -38.5t-97.5 38.5t-39.5 94.5zM776 1700q0 53 39.5 91t97.5 38t99 -38t41 -91q0 -56 -41 -94.5t-99 -38.5t-97.5 38.5t-39.5 94.5z" />
<glyph unicode="&#x1da;" horiz-adv-x="1183" d="M129 391v608h229v-546q0 -145 46.5 -202.5t152.5 -57.5t181 86.5t75 240.5v479h229v-999h-229v125l-4 2q-119 -143 -305 -143q-176 0 -275.5 97t-99.5 310zM231 1303q0 60 45 102.5t109 42.5q65 0 110.5 -42.5t45.5 -102.5q0 -61 -45.5 -103.5t-110.5 -42.5t-109.5 42.5 t-44.5 103.5zM250 1792h223l111 -158h4l112 158h228l-223 -297h-240zM637 1303q0 60 45 102.5t109 42.5t109.5 -42.5t45.5 -102.5q0 -61 -45 -103.5t-110 -42.5t-109.5 42.5t-44.5 103.5z" />
<glyph unicode="&#x1db;" horiz-adv-x="1472" d="M158 598v856h245v-838q0 -177 89 -288t243 -111q149 0 241.5 107.5t92.5 291.5v838h248v-856q0 -284 -155.5 -449t-426.5 -165q-262 0 -419.5 162.5t-157.5 451.5zM395 2114h252l172 -256h-170zM410 1700q0 53 39.5 91t97.5 38t98.5 -38t40.5 -91q0 -56 -40.5 -94.5 t-98.5 -38.5t-97.5 38.5t-39.5 94.5zM776 1700q0 53 39.5 91t97.5 38t99 -38t41 -91q0 -56 -41 -94.5t-99 -38.5t-97.5 38.5t-39.5 94.5z" />
<glyph unicode="&#x1dc;" horiz-adv-x="1183" d="M129 391v608h229v-546q0 -145 46.5 -202.5t152.5 -57.5t181 86.5t75 240.5v479h229v-999h-229v125l-4 2q-119 -143 -305 -143q-176 0 -275.5 97t-99.5 310zM199 1788h252l235 -297h-174zM231 1303q0 60 45 102.5t109 42.5q65 0 110.5 -42.5t45.5 -102.5 q0 -61 -45.5 -103.5t-110.5 -42.5t-109.5 42.5t-44.5 103.5zM637 1303q0 60 45 102.5t109 42.5t109.5 -42.5t45.5 -102.5q0 -61 -45 -103.5t-110 -42.5t-109.5 42.5t-44.5 103.5z" />
<glyph unicode="&#x1e6;" horiz-adv-x="1554" d="M113 725q0 160 50.5 297t143 236t229.5 155.5t302 56.5q159 0 308 -60t259 -179l-174 -152q-161 158 -395 158q-201 0 -333 -140t-132 -372q0 -145 57.5 -261t166.5 -183.5t251 -67.5q180 0 323 96v246h-356v221h602v-606q-101 -84 -252 -133t-317 -49q-210 0 -375 87 t-261.5 256t-96.5 394zM485 1860h224l116 -146h4l117 146h228l-228 -273h-239z" />
<glyph unicode="&#x1e7;" horiz-adv-x="1243" d="M86 510q0 220 134 362t341 142q184 0 311 -121h5v106h229v-897q0 -117 -28 -210t-87 -164t-159 -109.5t-236 -38.5q-234 0 -408 105l56 200q97 -51 169.5 -74.5t170.5 -23.5q142 0 219.5 70.5t77.5 175.5v104h-4q-121 -121 -304 -121q-212 0 -349.5 137t-137.5 357z M260 1427h223l111 -157h4l113 157h227l-223 -297h-240zM319 516q0 -131 80.5 -210t204.5 -79t203.5 82.5t79.5 210.5q0 126 -80.5 205.5t-202.5 79.5q-127 0 -206 -80.5t-79 -208.5z" />
<glyph unicode="&#x1ea;" horiz-adv-x="1693" d="M113 727q0 212 92 381.5t260.5 265.5t382.5 96q209 0 375.5 -92.5t262 -262.5t95.5 -388q0 -294 -169.5 -494.5t-440.5 -240.5q-61 -20 -98 -61t-37 -85q0 -39 23 -61.5t65 -22.5q11 0 19.5 0.5t16 1.5t11.5 1.5t11 3t8 2.5t9 4t9 4l14 -139q-61 -25 -148 -25 q-101 0 -161 49t-60 131q0 45 29 96t82 93v4q-292 29 -471.5 234t-179.5 505zM369 727q0 -142 59.5 -258.5t170 -185t249.5 -68.5q202 0 338.5 145.5t136.5 366.5q0 222 -136 367t-339 145q-139 0 -249.5 -68.5t-170 -185t-59.5 -258.5z" />
<glyph unicode="&#x1eb;" horiz-adv-x="1228" d="M90 498q0 147 64.5 264t184.5 184.5t275 67.5q231 0 378 -143.5t147 -372.5q0 -206 -123.5 -345.5t-323.5 -164.5q-57 -21 -90 -60.5t-33 -81.5q0 -39 23 -61.5t65 -22.5q11 0 19.5 0.5t16 1.5t11.5 1.5t11 3t8 2.5t9 4t9 4l15 -139q-61 -25 -148 -25q-101 0 -161 49 t-60 131q0 47 31 100t86 95v4q-188 34 -301 172.5t-113 331.5zM324 498q0 -129 81.5 -217t208.5 -88q123 0 207 86t84 219q0 136 -83 222.5t-208 86.5q-129 0 -209.5 -88t-80.5 -221z" />
<glyph unicode="&#x1fa;" horiz-adv-x="1423" d="M47 0l543 1454h241l545 -1454h-258l-110 313h-594l-109 -313h-258zM487 1747q0 89 63.5 152t158.5 63t161 -66l121 91l258 2l-317 -246q-2 -88 -65 -149.5t-158 -61.5q-91 0 -156.5 62t-65.5 153zM489 526h445l-221 631h-4zM631 1749q0 -33 22.5 -55.5t55.5 -22.5 t56 22.5t23 55.5t-23 55.5t-56 22.5q-32 0 -55 -23.5t-23 -54.5z" />
<glyph unicode="&#x1fb;" horiz-adv-x="1251" d="M88 496q0 225 137.5 371.5t343.5 146.5q200 0 310 -137l4 2v120h229v-999h-219v131l-4 2q-112 -149 -318 -149q-210 0 -346.5 141.5t-136.5 370.5zM322 494q0 -133 79.5 -217t206.5 -84q120 0 202.5 84.5t82.5 216.5q0 134 -81 223.5t-204 89.5t-204.5 -85.5 t-81.5 -227.5zM401 1321q0 89 63.5 152t158.5 63q93 0 159 -63l111 81h260l-307 -235q-2 -90 -64.5 -151.5t-158.5 -61.5q-91 0 -156.5 62t-65.5 153zM545 1323q0 -33 22.5 -55.5t55.5 -22.5t56 22.5t23 55.5t-23 55.5t-56 22.5q-32 0 -55 -23.5t-23 -54.5z" />
<glyph unicode="&#x1fc;" horiz-adv-x="1931" d="M23 0l725 1454h1056v-221h-669v-399h548v-222h-548v-391h710v-221h-956v313h-461l-154 -313h-251zM535 526h354v713h-4zM842 1587l229 273h256l-258 -273h-227z" />
<glyph unicode="&#x1fd;" horiz-adv-x="1615" d="M61 299q0 149 101 231t295 82h200v13q0 103 -43 144.5t-135 41.5q-61 0 -137 -19t-133 -51l-86 185q54 30 162.5 59t208.5 29q109 0 185.5 -34.5t125.5 -113.5h6q62 73 148 110.5t174 37.5q189 0 306 -141t117 -361q0 -65 -6 -92h-667q21 -105 90.5 -166t177.5 -61 q80 0 129.5 28.5t93.5 87.5l158 -137q-36 -46 -69 -76.5t-80 -57.5t-110 -40.5t-143 -13.5q-213 0 -344 157h-4q-52 -68 -141.5 -112.5t-212.5 -44.5q-181 0 -274 89t-93 226zM287 301q0 -58 41 -92.5t123 -34.5q86 0 147 51t61 135v70h-180q-192 0 -192 -129zM682 1139 l236 295l251 2l-254 -297h-233zM887 604h438q-10 90 -59.5 146.5t-143.5 56.5q-85 0 -149 -56.5t-86 -146.5z" />
<glyph unicode="&#x1fe;" horiz-adv-x="1693" d="M113 727q0 212 92 381.5t260.5 265.5t382.5 96q257 0 450 -141l170 184l140 -127l-174 -190q147 -197 147 -469q0 -163 -55.5 -302t-153 -235.5t-233 -151t-291.5 -54.5q-238 0 -420 118l-160 -174l-141 131l158 170q-172 200 -172 498zM369 727q0 -174 90 -307l671 727 q-125 92 -282 92q-139 0 -249.5 -68.5t-170 -185t-59.5 -258.5zM596 285q112 -70 252 -70q202 0 338.5 145.5t136.5 366.5q0 153 -70 274zM717 1587l229 273h256l-258 -273h-227z" />
<glyph unicode="&#x1ff;" horiz-adv-x="1228" d="M90 498q0 147 64.5 264t184.5 184.5t275 67.5q180 0 310 -88l120 129l121 -115l-121 -129q95 -138 95 -313q0 -227 -147 -370.5t-378 -143.5q-156 0 -276 69l-105 -112l-122 114l96 105q-117 139 -117 338zM324 498q0 -92 45 -168l403 432q-70 45 -158 45 q-129 0 -209.5 -88t-80.5 -221zM492 219q53 -26 122 -26q123 0 207 86t84 219q0 72 -26 135zM492 1139l235 295l252 2l-254 -297h-233z" />
<glyph unicode="&#x218;" horiz-adv-x="1210" d="M86 213l156 190q76 -92 175.5 -141t196.5 -49q117 0 179.5 47.5t62.5 128.5q0 38 -13 67.5t-32 50.5t-59 42t-76 36t-101 38q-78 28 -132 51t-117 61.5t-101 81.5t-64 107t-26 141q0 169 135.5 287t325.5 118q257 0 481 -178l-147 -194q-181 149 -334 149 q-88 0 -146 -45.5t-59 -124.5q0 -26 6 -47t26 -40.5t36 -32t57 -31t65 -28t83 -32.5q181 -71 241 -104q136 -74 181 -184q28 -68 28 -158q0 -87 -30 -160.5t-79.5 -123.5t-115 -85t-135.5 -51t-142 -16q-144 0 -279.5 57t-246.5 172zM420 -315q62 22 87 50t25 77 q0 26 -12 79h209q8 -41 8 -96q0 -110 -75 -171.5t-189 -72.5z" />
<glyph unicode="&#x219;" horiz-adv-x="919" d="M66 129l114 172q61 -60 130 -88.5t159 -28.5q65 0 102 27t37 72q0 35 -42 58t-154 62q-70 24 -118.5 48.5t-94.5 62t-69.5 92t-23.5 125.5q0 123 99.5 203t253.5 80q198 0 352 -125l-115 -180q-112 106 -250 106q-40 0 -74 -22t-34 -64q0 -35 39.5 -63t118.5 -58 q14 -5 41 -16q37 -14 54.5 -21.5t48.5 -20.5t46 -21.5t39 -22t35.5 -25l28 -28t24 -33t15.5 -37.5t11 -44.5t3 -51.5q0 -133 -95.5 -218t-277.5 -85q-239 0 -403 145zM252 -315q62 22 87.5 50t25.5 77q0 22 -13 79h209q8 -41 8 -96q0 -110 -75 -171.5t-189 -72.5z" />
<glyph unicode="&#x21a;" horiz-adv-x="1206" d="M66 1233v221h1077v-221h-418v-1233h-248v1233h-411zM385 -315q62 22 87.5 50t25.5 77q0 22 -13 79h209q8 -41 8 -96q0 -110 -75 -171.5t-189 -72.5z" />
<glyph unicode="&#x21b;" horiz-adv-x="747" d="M45 805v194h123v332l229 25v-357h293v-194h-293v-467q0 -75 23 -107t74 -32q68 0 147 43l59 -199q-52 -29 -108 -44t-146 -15q-132 0 -205 83.5t-73 247.5v490h-123zM227 -315q62 22 87.5 50t25.5 77q0 26 -12 79h209q8 -41 8 -96q0 -110 -75 -171.5t-189 -72.5z" />
<glyph unicode="&#x232;" horiz-adv-x="1280" d="M29 1454h282l326 -563h4l324 563h286l-489 -811v-643h-248v643zM338 1632v183h610v-183h-610z" />
<glyph unicode="&#x233;" horiz-adv-x="1095" d="M39 999h246l274 -669h4l256 669h236l-549 -1405h-238l181 461zM244 1196v193h610v-193h-610z" />
<glyph unicode="&#x237;" horiz-adv-x="509" d="M-100 -385l39 199q47 -29 104 -29q100 0 100 147v1067h230v-1067q0 -169 -78.5 -261.5t-200.5 -92.5q-57 0 -98 7.5t-96 29.5z" />
<glyph unicode="&#x251;" horiz-adv-x="1251" d="M88 496q0 225 137.5 371.5t343.5 146.5q200 0 310 -137l4 2v120h229v-999h-219v131l-4 2q-112 -149 -318 -149q-210 0 -346.5 141.5t-136.5 370.5zM322 494q0 -133 79.5 -217t206.5 -84q120 0 202.5 84.5t82.5 216.5q0 134 -81 223.5t-204 89.5t-204.5 -85.5 t-81.5 -227.5z" />
<glyph unicode="&#x259;" horiz-adv-x="1148" d="M90 483q0 41 6 95h729q-22 115 -105 174t-202 59q-132 0 -274 -74l-88 187q176 90 379 90q108 0 202 -33t166.5 -96.5t114 -164.5t41.5 -228q0 -148 -56 -261.5t-168 -180t-266 -66.5q-152 0 -262 67t-163.5 178.5t-53.5 253.5zM324 393q14 -97 77.5 -150t167.5 -53 q103 0 167.5 54t86.5 149h-499z" />
<glyph unicode="&#x261;" horiz-adv-x="1243" d="M86 510q0 220 134 362t341 142q184 0 311 -121h5v106h229v-897q0 -117 -28 -210t-87 -164t-159 -109.5t-236 -38.5q-234 0 -408 105l56 200q97 -51 169.5 -74.5t170.5 -23.5q142 0 219.5 70.5t77.5 175.5v104h-4q-121 -121 -304 -121q-212 0 -349.5 137t-137.5 357z M319 516q0 -131 80.5 -210t204.5 -79t203.5 82.5t79.5 210.5q0 126 -80.5 205.5t-202.5 79.5q-127 0 -206 -80.5t-79 -208.5z" />
<glyph unicode="&#x272;" horiz-adv-x="1214" d="M-78 -391l17 182q53 -20 94 -20q117 0 117 168v1060h229v-137h4q61 73 148 112.5t186 39.5q172 0 269 -104t97 -322v-588h-229v528q0 152 -54.5 215.5t-162.5 63.5q-119 0 -188.5 -80t-69.5 -225v-541q0 -188 -77.5 -284.5t-225.5 -96.5q-82 0 -154 29z" />
<glyph unicode="&#x2bb;" horiz-adv-x="468" d="M129 842l35 518h186l25 -518h-246z" />
<glyph unicode="&#x2bc;" horiz-adv-x="395" d="M59 1028l62 426h221l-119 -426h-164z" />
<glyph unicode="&#x2be;" horiz-adv-x="438" d="M68 1067q71 1 106 44.5t35 107.5q0 62 -36 105t-105 46l20 168q137 0 226 -90t89 -229t-89 -229.5t-226 -90.5z" />
<glyph unicode="&#x2bf;" horiz-adv-x="507" d="M104 1219q0 139 89.5 229t226.5 90l20 -168q-69 -3 -105 -46t-36 -105q0 -64 35 -107.5t106 -44.5l-20 -168q-137 0 -226.5 90.5t-89.5 229.5z" />
<glyph unicode="&#x2c6;" horiz-adv-x="976" d="M150 1098l223 297h239l215 -297h-223l-110 157h-5l-112 -157h-227z" />
<glyph unicode="&#x2c7;" horiz-adv-x="976" d="M150 1391h223l110 -158h4l113 158h227l-223 -297h-239z" />
<glyph unicode="&#x2c8;" horiz-adv-x="378" d="M96 788v611h187v-611h-187z" />
<glyph unicode="&#x2c9;" horiz-adv-x="794" d="M92 1196v193h610v-193h-610z" />
<glyph unicode="&#x2ca;" horiz-adv-x="671" d="M123 1139l235 295l252 2l-254 -297h-233z" />
<glyph unicode="&#x2cb;" horiz-adv-x="671" d="M61 1430l256 -3l226 -292h-228z" />
<glyph unicode="&#x2cc;" horiz-adv-x="378" d="M96 274h187v-610h-187v610z" />
<glyph unicode="&#x2d8;" horiz-adv-x="942" d="M152 1391h180q3 -54 40 -91.5t99 -37.5t99 37.5t40 91.5h181q-11 -144 -93 -225t-227 -81t-226.5 81t-92.5 225z" />
<glyph unicode="&#x2d9;" horiz-adv-x="1024" d="M358 1264q0 62 45 106.5t109 44.5t110 -44.5t46 -106.5q0 -63 -46 -108.5t-110 -45.5t-109 45.5t-45 108.5z" />
<glyph unicode="&#x2da;" horiz-adv-x="964" d="M260 1264q0 89 63 152t158 63q93 0 158.5 -62t65.5 -153q0 -89 -63.5 -152t-160.5 -63q-91 0 -156 62t-65 153zM403 1266q0 -33 22.5 -55.5t55.5 -22.5q34 0 57 23t23 55t-23 54.5t-57 22.5q-32 0 -55 -23t-23 -54z" />
<glyph unicode="&#x2db;" horiz-adv-x="960" d="M336 -205q0 60 48 126t132 108l174 -27q-77 -15 -124.5 -60t-47.5 -96q0 -39 23 -61.5t65 -22.5q11 0 19.5 0.5t16 1.5t11.5 1.5t11 3t8 2.5t9 4t9 4l15 -139q-61 -25 -148 -25q-101 0 -161 49t-60 131z" />
<glyph unicode="&#x2dc;" horiz-adv-x="1013" d="M117 1163q32 105 91 165.5t142 60.5q37 0 71 -9.5t53 -19.5t48 -29q64 -41 93 -48q13 -3 26 -3q74 0 117 106l139 -47q-31 -114 -90.5 -178.5t-136.5 -64.5q-78 0 -181 65q-70 45 -114 45q-76 0 -119 -106z" />
<glyph unicode="&#x2dd;" horiz-adv-x="1060" d="M106 1102l236 295l233 2l-253 -297h-216zM498 1102l233 295l234 2l-254 -297h-213z" />
<glyph unicode="&#x300;" horiz-adv-x="0" d="M-1278 1393l256 -2l225 -293h-227z" />
<glyph unicode="&#x301;" horiz-adv-x="0" d="M-1229 1102l236 295l252 2l-254 -297h-234z" />
<glyph unicode="&#x302;" horiz-adv-x="0" d="M-1364 1098l223 297h240l215 -297h-223l-111 157h-4l-113 -157h-227z" />
<glyph unicode="&#x303;" horiz-adv-x="0" d="M-1415 1163q32 105 91 165.5t142 60.5q37 0 71 -9.5t53 -19.5t48 -29q64 -41 93 -48q13 -3 26 -3q74 0 117 106l139 -47q-31 -114 -90.5 -178.5t-136.5 -64.5q-34 0 -69.5 11t-57.5 22.5t-53 31.5q-70 45 -115 45q-76 0 -119 -106z" />
<glyph unicode="&#x304;" horiz-adv-x="0" d="M-1329 1159v193h610v-193h-610z" />
<glyph unicode="&#x306;" horiz-adv-x="0" d="M-1343 1391h180q3 -54 40 -91.5t99 -37.5t99 37.5t40 91.5h180q-11 -144 -92.5 -225t-226.5 -81t-226.5 81t-92.5 225z" />
<glyph unicode="&#x307;" horiz-adv-x="0" d="M-1178 1264q0 62 45 106.5t109 44.5t110 -44.5t46 -106.5q0 -63 -46 -108.5t-110 -45.5t-109 45.5t-45 108.5z" />
<glyph unicode="&#x308;" horiz-adv-x="0" d="M-1380 1266q0 60 44 103.5t107 43.5t108.5 -44.5t45.5 -104.5q0 -61 -45.5 -105.5t-108.5 -44.5t-107 45t-44 107zM-973 1266q0 60 44.5 103.5t107.5 43.5t108 -44.5t45 -104.5q0 -62 -45 -106t-108 -44t-107.5 45t-44.5 107z" />
<glyph unicode="&#x309;" horiz-adv-x="0" d="M-1255 1366q41 43 115.5 76t172.5 33q88 0 140.5 -42t52.5 -126q0 -69 -52 -127t-112 -82h-168q146 106 143 176q0 43 -59 43q-43 0 -82.5 -15t-97.5 -55z" />
<glyph unicode="&#x30a;" horiz-adv-x="0" d="M-1247 1284q0 89 63 152t158 63q93 0 158 -62t65 -153q0 -89 -63 -152t-160 -63q-91 0 -156 62t-65 153zM-1104 1286q0 -33 22.5 -55.5t55.5 -22.5q34 0 57 23t23 55t-23 55t-57 23q-32 0 -55 -23.5t-23 -54.5z" />
<glyph unicode="&#x30b;" horiz-adv-x="0" d="M-1327 1102l235 295l234 2l-254 -297h-215zM-936 1102l234 295l233 2l-254 -297h-213z" />
<glyph unicode="&#x30c;" horiz-adv-x="0" d="M-1364 1391h223l111 -158h4l113 158h227l-223 -297h-240z" />
<glyph unicode="&#x312;" horiz-adv-x="0" d="M-1128 1204q0 110 75 171.5t189 72.5l53 -133q-62 -23 -87.5 -51.5t-25.5 -75.5q0 -23 13 -80h-209q-8 41 -8 96z" />
<glyph unicode="&#x313;" horiz-adv-x="0" d="M-1212 1221q62 23 87 51.5t25 75.5q0 26 -12 79h209q8 -41 8 -96q0 -110 -75 -171.5t-189 -72.5z" />
<glyph unicode="&#x31b;" horiz-adv-x="0" d="M-1071 1063q30 2 54 8t41 18t29 23t19.5 31.5t12 35t6 42.5t2 44t0.5 49v9v131h233v-145q0 -187 -101.5 -292.5t-291.5 -98.5z" />
<glyph unicode="&#x323;" horiz-adv-x="0" d="M-1180 -313q0 63 46 108t110 45t109 -45t45 -108q0 -62 -45 -107t-109 -45t-110 45t-46 107z" />
<glyph unicode="&#x324;" horiz-adv-x="0" d="M-1382 -313q0 61 45 105t108 44t107.5 -44.5t44.5 -106.5q0 -60 -44.5 -104t-107.5 -44t-108 45t-45 105zM-975 -313q0 61 45.5 105t108.5 44t107 -44.5t44 -106.5q0 -60 -44 -104t-107 -44t-108.5 45t-45.5 105z" />
<glyph unicode="&#x326;" horiz-adv-x="0" d="M-1237 -315q62 22 87.5 50t25.5 77q0 22 -13 79h209q8 -41 8 -96q0 -110 -75 -171.5t-189 -72.5z" />
<glyph unicode="&#x327;" horiz-adv-x="0" d="M-1214 -264q47 -15 102 -15q41 0 72.5 16t31.5 46q0 29 -45.5 49.5t-126.5 20.5v73l39 86h137l-34 -73v-5q93 -3 140.5 -45t47.5 -118q0 -72 -60.5 -116t-183.5 -44q-58 0 -120 12v113z" />
<glyph unicode="&#x328;" horiz-adv-x="0" d="M-1393 -205q0 60 48.5 126t132.5 108l174 -27q-77 -15 -124.5 -60t-47.5 -96q0 -39 23 -61.5t65 -22.5q11 0 19.5 0.5t16 1.5t11.5 1.5t11 3t8 2.5t9 4t9 4l14 -139q-61 -25 -147 -25q-101 0 -161.5 49t-60.5 131z" />
<glyph unicode="&#x32e;" horiz-adv-x="0" d="M-1343 -158h180q3 -54 40 -91.5t99 -37.5t99 37.5t40 91.5h180q-11 -144 -92.5 -224.5t-226.5 -80.5t-226.5 80.5t-92.5 224.5z" />
<glyph unicode="&#x331;" horiz-adv-x="0" d="M-1329 -231h610v-193h-610v193z" />
<glyph unicode="&#x335;" horiz-adv-x="0" d="M-1309 463v158h578v-158h-578z" />
<glyph unicode="&#x374;" horiz-adv-x="532" d="M70 973l106 520h238l-146 -520h-198z" />
<glyph unicode="&#x375;" horiz-adv-x="555" d="M131 -309l107 520h237l-145 -520h-199z" />
<glyph unicode="&#x37e;" horiz-adv-x="507" d="M78 -270l65 518h246l-143 -518h-168zM111 860q0 63 45.5 108.5t109.5 45.5q63 0 108.5 -45.5t45.5 -108.5t-45.5 -107t-108.5 -44q-65 0 -110 44t-45 107z" />
<glyph unicode="&#x384;" horiz-adv-x="956" d="M305 1102l119 346h264l-162 -346h-221z" />
<glyph unicode="&#x385;" horiz-adv-x="1085" d="M31 1264q0 62 44.5 106.5t108.5 44.5t110 -44.5t46 -106.5q0 -63 -46 -108.5t-110 -45.5t-108.5 45.5t-44.5 108.5zM381 1120l27 346h213l-66 -346h-174zM637 1264q0 59 44.5 104t106.5 45q61 0 106.5 -44.5t45.5 -104.5q0 -61 -45 -105.5t-107 -44.5q-63 0 -107 44 t-44 106z" />
<glyph unicode="&#x386;" horiz-adv-x="1423" d="M-117 1102l146 346h262l-193 -346h-215zM47 0l543 1454h241l545 -1454h-258l-110 313h-594l-109 -313h-258zM489 526h445l-221 631h-4z" />
<glyph unicode="&#x387;" horiz-adv-x="552" d="M121 860q0 63 45.5 108.5t109.5 45.5q63 0 108.5 -45.5t45.5 -108.5t-45.5 -107t-108.5 -44q-65 0 -110 44t-45 107z" />
<glyph unicode="&#x388;" horiz-adv-x="1243" d="M-346 1102l145 346h262l-192 -346h-215zM178 0v1454h916v-221h-668v-402h539v-221h-539v-389h711v-221h-959z" />
<glyph unicode="&#x389;" horiz-adv-x="1507" d="M-346 1102l145 346h262l-192 -346h-215zM178 0v1454h248v-649h655v649h248v-1454h-248v584h-655v-584h-248z" />
<glyph unicode="&#x38a;" horiz-adv-x="622" d="M-338 1102l145 346h263l-193 -346h-215zM186 0v1454h248v-1454h-248z" />
<glyph unicode="&#x38c;" horiz-adv-x="1693" d="M-246 1102l146 346h262l-193 -346h-215zM113 727q0 212 92 381.5t260.5 265.5t382.5 96q209 0 375.5 -92.5t262 -262.5t95.5 -388q0 -163 -55.5 -302t-153 -235.5t-233 -151t-291.5 -54.5q-214 0 -382.5 96t-260.5 265.5t-92 381.5zM369 727q0 -142 59.5 -258.5t170 -185 t249.5 -68.5q202 0 338.5 145.5t136.5 366.5q0 222 -136 367t-339 145q-139 0 -249.5 -68.5t-170 -185t-59.5 -258.5z" />
<glyph unicode="&#x38e;" horiz-adv-x="1280" d="M-477 1102l145 346h262l-192 -346h-215zM29 1454h282l326 -563h4l324 563h286l-489 -811v-643h-248v643z" />
<glyph unicode="&#x38f;" horiz-adv-x="1581" d="M-270 1102l145 346h262l-192 -346h-215zM109 793q0 192 84.5 345.5t241 242.5t356.5 89t356.5 -89t241 -242.5t84.5 -345.5q0 -169 -70 -315.5t-197 -252.5l2 -4h246v-221h-561v221q324 238 324 567q0 200 -118 325.5t-308 125.5q-190 -1 -307 -126t-117 -325 q0 -331 321 -567v-221h-559v221h244l2 4q-126 106 -196 252.5t-70 315.5z" />
<glyph unicode="&#x390;" horiz-adv-x="604" d="M-164 1300q0 62 45 107t109 45t109.5 -45t45.5 -107q0 -63 -45.5 -108t-109.5 -45t-109 45t-45 108zM154 238v761h229v-698q0 -66 12.5 -85t53.5 -19q42 0 94 14l22 -191q-37 -13 -56.5 -19t-52 -11.5t-67.5 -5.5q-235 0 -235 254zM186 1157l27 346h213l-66 -346h-174z M442 1300q0 59 45 104.5t107 45.5q61 0 106 -45t45 -105q0 -61 -44.5 -105t-106.5 -44q-63 0 -107.5 43.5t-44.5 105.5z" />
<glyph unicode="&#x391;" horiz-adv-x="1423" d="M47 0l543 1454h241l545 -1454h-258l-110 313h-594l-109 -313h-258zM489 526h445l-221 631h-4z" />
<glyph unicode="&#x392;" horiz-adv-x="1327" d="M178 0v1454h506q228 0 350.5 -89t122.5 -265q0 -108 -54 -198t-161 -132v-2q132 -32 210.5 -127.5t78.5 -241.5q0 -180 -122 -289.5t-355 -109.5h-576zM426 221h297q118 0 184 52t66 153q0 99 -73.5 156t-215.5 57h-258v-418zM426 852h240q110 0 174.5 47t64.5 145 q0 89 -62 140t-186 51l-231 -2v-381z" />
<glyph unicode="&#x393;" horiz-adv-x="1187" d="M178 0v1454h940v-221h-692v-1233h-248z" />
<glyph unicode="&#x394;" horiz-adv-x="1398" d="M78 0v190l495 1264h248l500 -1264v-190h-1243zM356 221h682l-338 928h-4z" />
<glyph unicode="&#x395;" horiz-adv-x="1243" d="M178 0v1454h916v-221h-668v-402h539v-221h-539v-389h711v-221h-959z" />
<glyph unicode="&#x396;" horiz-adv-x="1282" d="M117 0v195l714 1034l-2 4h-679v221h1007v-190l-727 -1037l4 -6h727v-221h-1044z" />
<glyph unicode="&#x397;" horiz-adv-x="1507" d="M178 0v1454h248v-649h655v649h248v-1454h-248v584h-655v-584h-248z" />
<glyph unicode="&#x398;" horiz-adv-x="1716" d="M113 727q0 212 92 381.5t260.5 265.5t382.5 96q209 0 375.5 -92.5t262 -262.5t95.5 -388q0 -163 -55.5 -302t-153 -235.5t-233 -151t-291.5 -54.5q-214 0 -382.5 96t-260.5 265.5t-92 381.5zM369 727q0 -142 59.5 -258.5t170 -185t249.5 -68.5q202 0 338.5 145.5 t136.5 366.5q0 222 -136 367t-339 145q-139 0 -249.5 -68.5t-170 -185t-59.5 -258.5zM559 606v221h604v-221h-604z" />
<glyph unicode="&#x399;" horiz-adv-x="622" d="M186 0v1454h248v-1454h-248z" />
<glyph unicode="&#x39a;" horiz-adv-x="1359" d="M178 0v1454h248v-696h4l557 696h316l-547 -649l563 -805h-307l-420 608l-166 -196v-412h-248z" />
<glyph unicode="&#x39b;" horiz-adv-x="1400" d="M53 0l522 1454h246l525 -1454h-269l-375 1106h-8l-375 -1106h-266z" />
<glyph unicode="&#x39c;" horiz-adv-x="1816" d="M180 0v1454h248l479 -870h4l480 870h247v-1454h-247v973h-5l-397 -692h-162l-397 692h-2v-973h-248z" />
<glyph unicode="&#x39d;" horiz-adv-x="1562" d="M178 0v1454h246l711 -1044h4v1044h245v-1454h-251l-703 1026h-4v-1026h-248z" />
<glyph unicode="&#x39e;" horiz-adv-x="1314" d="M127 0v229h1061v-229h-1061zM141 1225v229h1033v-229h-1033zM248 606v223h815v-223h-815z" />
<glyph unicode="&#x39f;" horiz-adv-x="1693" d="M113 727q0 212 92 381.5t260.5 265.5t382.5 96q209 0 375.5 -92.5t262 -262.5t95.5 -388q0 -163 -55.5 -302t-153 -235.5t-233 -151t-291.5 -54.5q-214 0 -382.5 96t-260.5 265.5t-92 381.5zM369 727q0 -142 59.5 -258.5t170 -185t249.5 -68.5q202 0 338.5 145.5 t136.5 366.5q0 222 -136 367t-339 145q-139 0 -249.5 -68.5t-170 -185t-59.5 -258.5z" />
<glyph unicode="&#x3a0;" horiz-adv-x="1452" d="M178 0v1454h1096v-1454h-248v1233h-600v-1233h-248z" />
<glyph unicode="&#x3a1;" horiz-adv-x="1288" d="M178 0v1454h527q127 0 224 -35.5t155.5 -99.5t88 -148.5t29.5 -187.5q0 -229 -141.5 -347t-384.5 -118h-250v-518h-248zM426 741h225q147 0 221 67t74 179q0 116 -71.5 181t-204.5 65h-244v-492z" />
<glyph unicode="&#x3a3;" horiz-adv-x="1206" d="M109 0v174l393 555l-393 545v180h1011v-221h-674l-4 -6l359 -498l-359 -502l4 -6h674v-221h-1011z" />
<glyph unicode="&#x3a4;" horiz-adv-x="1206" d="M66 1233v221h1077v-221h-418v-1233h-248v1233h-411z" />
<glyph unicode="&#x3a5;" horiz-adv-x="1280" d="M29 1454h282l326 -563h4l324 563h286l-489 -811v-643h-248v643z" />
<glyph unicode="&#x3a6;" horiz-adv-x="1755" d="M88 741q0 129 44 238.5t127 192t210 131.5t285 55v135h247v-135q158 -7 285 -56t210 -131t127 -191.5t44 -238.5q0 -257 -174 -416.5t-492 -172.5v-152h-247v152q-315 12 -490.5 172t-175.5 417zM346 741q0 -162 107 -261t307 -109v764q-199 -10 -306.5 -117.5 t-107.5 -276.5zM997 373q200 10 306 108t106 260q0 169 -106.5 275.5t-305.5 118.5v-762z" />
<glyph unicode="&#x3a7;" horiz-adv-x="1421" d="M66 0l481 729l-471 725h289l348 -536h2l348 536h283l-472 -725l484 -729h-291l-356 537h-4l-355 -537h-286z" />
<glyph unicode="&#x3a8;" horiz-adv-x="1632" d="M127 930l2 524h248l-2 -498q0 -205 74 -302t241 -103v903h248v-903q163 5 240.5 101.5t78.5 303.5v498h248l-2 -524q0 -288 -141.5 -442.5t-423.5 -157.5v-330h-248v330q-276 3 -419.5 156.5t-143.5 443.5z" />
<glyph unicode="&#x3a9;" horiz-adv-x="1581" d="M109 793q0 192 84.5 345.5t241 242.5t356.5 89t356.5 -89t241 -242.5t84.5 -345.5q0 -169 -70 -315.5t-197 -252.5l2 -4h246v-221h-561v221q324 238 324 567q0 200 -118 325.5t-308 125.5q-190 -1 -307 -126t-117 -325q0 -331 321 -567v-221h-559v221h244l2 4 q-126 106 -196 252.5t-70 315.5z" />
<glyph unicode="&#x3aa;" horiz-adv-x="622" d="M-59 1737q0 62 44.5 106.5t108.5 44.5q63 0 109.5 -45t46.5 -106q0 -63 -46.5 -108.5t-109.5 -45.5q-64 0 -108.5 45.5t-44.5 108.5zM186 0v1454h248v-1454h-248zM379 1737q0 59 45.5 104t107.5 45q61 0 106.5 -44.5t45.5 -104.5q0 -61 -45 -105.5t-107 -44.5 q-63 0 -108 44t-45 106z" />
<glyph unicode="&#x3ab;" horiz-adv-x="1280" d="M29 1454h282l326 -563h4l324 563h286l-489 -811v-643h-248v643zM260 1737q0 62 45 106.5t109 44.5q63 0 109 -45t46 -106q0 -63 -46 -108.5t-109 -45.5q-64 0 -109 45.5t-45 108.5zM698 1737q0 59 46 104t108 45q61 0 106.5 -44.5t45.5 -104.5q0 -61 -45 -105.5 t-107 -44.5q-63 0 -108.5 44.5t-45.5 105.5z" />
<glyph unicode="&#x3ac;" horiz-adv-x="1214" d="M86 496q0 226 130.5 372t334.5 146q203 0 311 -166h4l4 151h217l-51 -495v-191q0 -64 14.5 -91t55.5 -27q30 0 61 10l23 -187q-85 -32 -166 -32q-72 0 -119.5 37t-60.5 106h-4q-105 -143 -301 -143q-208 0 -330.5 140.5t-122.5 369.5zM319 494q0 -134 66.5 -217.5 t179.5 -83.5q116 0 192 82.5t91 218.5q-1 147 -72 230t-192 83q-115 0 -190 -85.5t-75 -227.5zM502 1139l119 346h264l-162 -346h-221z" />
<glyph unicode="&#x3ad;" horiz-adv-x="1040" d="M100 274q0 81 50.5 145t134.5 97q-74 35 -115 92t-41 121q0 60 21.5 108.5t58.5 81t88 54t109 31.5t124 10q258 0 437 -105l-97 -170q-168 71 -321 68q-187 -3 -187 -96q0 -46 44 -78.5t131 -32.5h172v-182h-187q-93 0 -137.5 -37t-44.5 -82q0 -106 219 -106 q93 0 168 17.5t150 63.5l106 -165q-112 -74 -223 -99.5t-260 -25.5q-185 0 -292.5 75.5t-107.5 214.5zM410 1139l118 346h265l-162 -346h-221z" />
<glyph unicode="&#x3ae;" horiz-adv-x="1208" d="M152 0v999h229v-135l4 -2q62 73 148 112.5t178 39.5q172 0 268 -104.5t96 -321.5v-994h-229v934q0 146 -55 212.5t-162 66.5q-111 0 -179.5 -82t-68.5 -227v-498h-229zM492 1139l118 346h264l-161 -346h-221z" />
<glyph unicode="&#x3af;" horiz-adv-x="579" d="M154 238v761h229v-698q0 -66 12.5 -85t53.5 -19q42 0 94 14l22 -191q-37 -13 -56.5 -19t-52 -11.5t-67.5 -5.5q-235 0 -235 254zM160 1139l119 346h264l-162 -346h-221z" />
<glyph unicode="&#x3b0;" horiz-adv-x="1165" d="M125 483v516h229v-493q0 -156 61.5 -234.5t159.5 -78.5q106 0 166 77t60 236v493h227v-516q0 -246 -119.5 -372.5t-333.5 -126.5q-206 0 -328 127.5t-122 371.5zM131 1300q0 62 45 107t109 45t109.5 -45t45.5 -107q0 -63 -45.5 -108t-109.5 -45t-109 45t-45 108z M481 1157l27 346h213l-66 -346h-174zM737 1300q0 59 45 104.5t107 45.5q61 0 106 -45t45 -105q0 -61 -44.5 -105t-106.5 -44q-63 0 -107.5 43.5t-44.5 105.5z" />
<glyph unicode="&#x3b1;" horiz-adv-x="1214" d="M86 496q0 226 130.5 372t334.5 146q203 0 311 -166h4l4 151h217l-51 -495v-191q0 -64 14.5 -91t55.5 -27q30 0 61 10l23 -187q-85 -32 -166 -32q-72 0 -119.5 37t-60.5 106h-4q-105 -143 -301 -143q-208 0 -330.5 140.5t-122.5 369.5zM319 494q0 -134 66.5 -217.5 t179.5 -83.5q116 0 192 82.5t91 218.5q-1 147 -72 230t-192 83q-115 0 -190 -85.5t-75 -227.5z" />
<glyph unicode="&#x3b2;" horiz-adv-x="1224" d="M152 -406v1412q0 254 127 386t339 132q206 0 327.5 -107t121.5 -274q0 -225 -168 -322v-2q112 -54 177 -154t65 -216q0 -215 -128 -340t-341 -125q-178 0 -287 106l-4 -2v-494h-229zM381 461q0 -109 76 -190t190 -81q119 0 189.5 67t70.5 181q0 102 -79 177t-216 75h-84 v195h74q60 1 105.5 17t70 40t39.5 57t19 60.5t4 58.5q0 84 -55 141.5t-158 57.5q-107 0 -176.5 -73t-69.5 -222v-561z" />
<glyph unicode="&#x3b3;" horiz-adv-x="1091" d="M41 999h248l256 -731h6l254 731h248l-391 -1001q11 -43 17 -101t7 -93.5t1.5 -113t0.5 -96.5h-225q0 8 -0.5 64t-1 75t-4.5 69.5t-9.5 81.5t-17 76.5t-27.5 86.5z" />
<glyph unicode="&#x3b4;" horiz-adv-x="1177" d="M88 489q0 155 78 268.5t215 182.5q-92 54 -136 123.5t-44 163.5q0 134 102 214t293 83q106 2 227.5 -22.5t223.5 -84.5l-97 -180q-74 40 -168 59t-176 19t-129 -25.5t-47 -75.5q0 -47 38.5 -85.5t139.5 -77.5q125 -46 189 -76q307 -143 307 -490q0 -228 -142 -364.5 t-358 -136.5q-228 0 -372 141.5t-144 363.5zM319 489q0 -131 78 -213.5t207 -82.5q113 0 190.5 77.5t77.5 214.5q0 246 -251 346l-52 21q-116 -52 -183 -146.5t-67 -216.5z" />
<glyph unicode="&#x3b5;" horiz-adv-x="1040" d="M100 274q0 81 50.5 145t134.5 97q-74 35 -115 92t-41 121q0 60 21.5 108.5t58.5 81t88 54t109 31.5t124 10q258 0 437 -105l-97 -170q-168 71 -321 68q-187 -3 -187 -96q0 -46 44 -78.5t131 -32.5h172v-182h-187q-93 0 -137.5 -37t-44.5 -82q0 -106 219 -106 q93 0 168 17.5t150 63.5l106 -165q-112 -74 -223 -99.5t-260 -25.5q-185 0 -292.5 75.5t-107.5 214.5z" />
<glyph unicode="&#x3b6;" horiz-adv-x="958" d="M86 479q3 370 545 830v4h-467v194h794v-172q-181 -137 -320.5 -279t-229.5 -295.5t-91 -281.5q-1 -48 15.5 -86.5t40 -64t68.5 -48.5t83 -36.5t101 -32.5q131 -39 203.5 -84.5t99 -97t26.5 -127.5q0 -91 -50.5 -184t-123.5 -169l-192 105q5 5 24.5 26.5t27 30t23.5 28 t23 32t16.5 30.5t13 34.5t3.5 33.5q0 34 -15 57t-70.5 51t-160.5 56q-67 18 -118 38t-104 55.5t-87.5 81.5t-56.5 115t-21 156z" />
<glyph unicode="&#x3b7;" horiz-adv-x="1208" d="M152 0v999h229v-135l4 -2q62 73 148 112.5t178 39.5q172 0 268 -104.5t96 -321.5v-994h-229v934q0 146 -55 212.5t-162 66.5q-111 0 -179.5 -82t-68.5 -227v-498h-229z" />
<glyph unicode="&#x3b8;" horiz-adv-x="1212" d="M86 756q0 163 29 298.5t89.5 242.5t163 167t238.5 60q114 0 207.5 -46t164 -137.5t109.5 -240.5t39 -344q0 -133 -18 -246.5t-57.5 -211.5t-99 -167t-147.5 -108t-198 -39q-115 0 -208 45t-163.5 136.5t-109.5 241.5t-39 349zM322 666q12 -230 85 -351.5t199 -121.5 q129 0 202 123.5t85 349.5h-571zM324 860h567q-14 219 -87.5 338t-197.5 119q-125 0 -196.5 -120.5t-85.5 -336.5z" />
<glyph unicode="&#x3b9;" horiz-adv-x="579" d="M154 238v761h229v-698q0 -66 12.5 -85t53.5 -19q42 0 94 14l22 -191q-37 -13 -56.5 -19t-52 -11.5t-67.5 -5.5q-235 0 -235 254z" />
<glyph unicode="&#x3ba;" horiz-adv-x="1155" d="M150 0v999h229v-462l4 -2l434 464h285l-418 -424l444 -575h-278l-318 420l-153 -156v-264h-229z" />
<glyph unicode="&#x3bb;" horiz-adv-x="1132" d="M49 0l430 1028l-49 133q-28 87 -66 123.5t-92 36.5q-51 0 -112 -21l-31 191q111 33 205 33q114 0 188.5 -79.5t136.5 -252.5q73 -198 216.5 -595.5t216.5 -596.5h-242q-16 43 -258 731h-2l-291 -731h-250z" />
<glyph unicode="&#x3bc;" horiz-adv-x="1187" d="M137 -406v1405h230v-520q0 -286 217 -286q104 0 170.5 81.5t66.5 225.5v499h230v-999h-209l-13 129h-4q-120 -145 -290 -145q-115 0 -175 63l-6 -2q13 -114 13 -215v-236h-230z" />
<glyph unicode="&#x3bd;" horiz-adv-x="1093" d="M41 999h246l260 -712h2l260 712h244l-398 -999h-219z" />
<glyph unicode="&#x3be;" horiz-adv-x="1015" d="M92 465q0 104 67.5 199.5t184.5 150.5v4q-182 105 -182 318q0 79 25.5 144.5t68 109.5t97.5 74.5t113 44.5t116 14q240 0 422 -107l-97 -180q-142 78 -295 78q-104 0 -161.5 -55t-57.5 -136q0 -117 93.5 -171t281.5 -54h119v-194h-225q-156 0 -246 -67.5t-90 -158.5 q0 -39 15 -72.5t40 -59t69 -51.5t89.5 -46t113.5 -47q181 -69 252.5 -136t71.5 -171q0 -81 -55 -181t-119 -166l-193 105q133 138 133 215q0 46 -43.5 79.5t-158.5 74.5q-75 27 -132.5 52t-120 64.5t-103 83.5t-67 106.5t-26.5 135.5z" />
<glyph unicode="&#x3bf;" horiz-adv-x="1196" d="M86 498q0 229 143.5 372.5t368.5 143.5t368.5 -143.5t143.5 -372.5q0 -227 -143.5 -370.5t-368.5 -143.5t-368.5 143.5t-143.5 370.5zM317 498q0 -133 81 -219t200 -86t200 86t81 219q0 136 -80.5 222.5t-200.5 86.5t-200.5 -86.5t-80.5 -222.5z" />
<glyph unicode="&#x3c0;" horiz-adv-x="1251" d="M55 805v194h1151v-194h-166v-805h-229v805h-371v-805h-229v805h-156z" />
<glyph unicode="&#x3c1;" horiz-adv-x="1232" d="M133 -406v902q0 227 136 372.5t360 145.5q146 0 265 -66t187 -185t68 -267q0 -226 -135 -369t-336 -143q-187 0 -311 112h-5v-502h-229zM352 494q0 -132 80.5 -216.5t196.5 -84.5q125 0 205.5 85.5t80.5 215.5q0 138 -82.5 225.5t-203.5 87.5q-120 0 -198.5 -89.5 t-78.5 -223.5z" />
<glyph unicode="&#x3c2;" horiz-adv-x="1040" d="M76 530q0 216 144 350t378 134q118 0 228.5 -48.5t183.5 -138.5l-156 -135q-44 53 -109 84t-141 31q-135 0 -216 -77.5t-81 -199.5q0 -120 84.5 -194t261.5 -133q163 -55 226 -125.5t63 -181.5q0 -53 -13.5 -101.5t-38.5 -90.5t-48.5 -72.5t-55.5 -68.5q-9 -11 -14 -16 l-192 107q9 10 30 33t31 34t25.5 32t23 36.5t13.5 36.5t6 43q0 47 -38.5 78.5t-148.5 70.5q-79 27 -138 54.5t-120 71t-100 95t-63.5 126t-24.5 165.5z" />
<glyph unicode="&#x3c3;" horiz-adv-x="1230" d="M90 489q0 224 144.5 367t371.5 143h588v-194h-240l-2 -4q154 -144 154 -344q0 -206 -141 -339.5t-367 -133.5q-225 0 -366.5 138t-141.5 367zM324 489q0 -135 78.5 -215.5t195.5 -80.5q125 0 197.5 82t72.5 214q0 192 -157 316h-105q-122 0 -202 -90t-80 -226z" />
<glyph unicode="&#x3c4;" horiz-adv-x="956" d="M41 805v194h862v-194h-356v-453q0 -84 22.5 -120.5t89.5 -36.5q63 0 152 47l59 -199q-130 -59 -282 -59q-271 0 -271 319v502h-276z" />
<glyph unicode="&#x3c5;" horiz-adv-x="1153" d="M125 483v516h229v-493q0 -156 61.5 -234.5t159.5 -78.5q106 0 166 77t60 236v493h227v-516q0 -246 -119.5 -372.5t-333.5 -126.5q-206 0 -328 127.5t-122 371.5z" />
<glyph unicode="&#x3c6;" horiz-adv-x="1462" d="M94 498q0 172 52 293t151 237l231 -63q-94 -94 -147 -213.5t-53 -233.5q0 -129 74 -215.5t200 -99.5v399q0 203 93.5 307.5t242.5 104.5q194 0 315 -134.5t121 -334.5q0 -150 -64 -272.5t-188.5 -198t-290.5 -80.5v-400h-229v400q-224 6 -366 144t-142 360zM831 201 q150 10 231 104t81 234q0 64 -21.5 124t-66 102t-101.5 42q-34 0 -57.5 -14t-36 -33.5t-19.5 -52.5t-8.5 -59t-1.5 -64v-383z" />
<glyph unicode="&#x3c7;" horiz-adv-x="1075" d="M25 979q69 35 157 35q89 0 146.5 -57t105.5 -166l111 -250h4l239 458h246l-379 -682l217 -423q28 -57 55 -83t60 -26q14 0 62 8l24 -178q-39 -20 -69 -27.5t-78 -7.5q-92 0 -150 55t-110 168l-129 281h-5l-251 -490h-250l397 719l-201 387q-30 56 -57 81.5t-66 25.5 q-11 0 -51 -8z" />
<glyph unicode="&#x3c8;" horiz-adv-x="1470" d="M121 477v522h227v-497q0 -148 75.5 -224t197.5 -79v1118h229v-1118q120 3 195 79t75 224v497h230v-522q0 -238 -136 -364t-364 -129v-390h-229v390q-228 3 -364 129t-136 364z" />
<glyph unicode="&#x3c9;" horiz-adv-x="1568" d="M92 475q0 134 28 242t68.5 176t102.5 137l207 -47q-70 -92 -121 -225.5t-51 -259.5q0 -147 49.5 -226t134.5 -79q71 0 115.5 82t44.5 225v248h227v-248q0 -143 45 -225t117 -82q84 0 133 79.5t49 225.5q0 126 -51 259.5t-121 225.5l209 47q94 -106 145.5 -233.5 t51.5 -321.5q0 -223 -113.5 -357t-274.5 -134q-212 0 -301 186h-6q-89 -186 -301 -186q-161 0 -274 134t-113 357z" />
<glyph unicode="&#x3ca;" horiz-adv-x="579" d="M-96 1300q0 62 44.5 107t108.5 45q63 0 109.5 -45.5t46.5 -106.5q0 -63 -46.5 -108t-109.5 -45q-64 0 -108.5 45t-44.5 108zM154 238v761h229v-698q0 -66 12.5 -85t53.5 -19q42 0 94 14l22 -191q-37 -13 -56.5 -19t-52 -11.5t-67.5 -5.5q-235 0 -235 254zM342 1300 q0 59 46 104.5t108 45.5q61 0 106 -45t45 -105q0 -61 -44.5 -105t-106.5 -44q-63 0 -108.5 44t-45.5 105z" />
<glyph unicode="&#x3cb;" horiz-adv-x="1153" d="M125 483v516h229v-493q0 -156 61.5 -234.5t159.5 -78.5q106 0 166 77t60 236v493h227v-516q0 -246 -119.5 -372.5t-333.5 -126.5q-206 0 -328 127.5t-122 371.5zM207 1300q0 62 44.5 107t108.5 45q63 0 109.5 -45.5t46.5 -106.5q0 -63 -46.5 -108t-109.5 -45 q-64 0 -108.5 45t-44.5 108zM645 1300q0 59 46 104.5t108 45.5q61 0 106 -45t45 -105q0 -61 -44.5 -105t-106.5 -44q-63 0 -108.5 44t-45.5 105z" />
<glyph unicode="&#x3cc;" horiz-adv-x="1196" d="M86 498q0 229 143.5 372.5t368.5 143.5t368.5 -143.5t143.5 -372.5q0 -227 -143.5 -370.5t-368.5 -143.5t-368.5 143.5t-143.5 370.5zM317 498q0 -133 81 -219t200 -86t200 86t81 219q0 136 -80.5 222.5t-200.5 86.5t-200.5 -86.5t-80.5 -222.5zM481 1139l119 346h264 l-162 -346h-221z" />
<glyph unicode="&#x3cd;" horiz-adv-x="1153" d="M125 483v516h229v-493q0 -156 61.5 -234.5t159.5 -78.5q106 0 166 77t60 236v493h227v-516q0 -246 -119.5 -372.5t-333.5 -126.5q-206 0 -328 127.5t-122 371.5zM463 1139l119 346h264l-162 -346h-221z" />
<glyph unicode="&#x3ce;" horiz-adv-x="1568" d="M92 475q0 134 28 242t68.5 176t102.5 137l207 -47q-70 -92 -121 -225.5t-51 -259.5q0 -147 49.5 -226t134.5 -79q71 0 115.5 82t44.5 225v248h227v-248q0 -143 45 -225t117 -82q84 0 133 79.5t49 225.5q0 126 -51 259.5t-121 225.5l209 47q94 -106 145.5 -233.5 t51.5 -321.5q0 -223 -113.5 -357t-274.5 -134q-212 0 -301 186h-6q-89 -186 -301 -186q-161 0 -274 134t-113 357zM672 1139l119 346h264l-162 -346h-221z" />
<glyph unicode="&#x3d6;" horiz-adv-x="1290" d="M55 805v180l189 14h993v-194h-186v-524q0 -50 18 -67t68 -17q27 0 63 8l23 -195q-95 -26 -174 -26q-119 0 -173.5 68t-54.5 175v578h-372v-805h-230v805h-164z" />
<glyph unicode="&#x3d7;" horiz-adv-x="1224" d="M10 -342l45 205q70 -54 155 -82.5t159 -28.5q241 0 514 240v8q-251 118 -344 406l-160 -173v-233h-229v999h229v-460l6 -2l424 462h276l-383 -417q51 -130 108 -209t145 -131.5t223 -81.5v-135q-118 -129 -204 -208.5t-180 -142t-188 -89.5t-205 -27q-224 0 -391 100z " />
<glyph unicode="&#x1e0c;" horiz-adv-x="1507" d="M178 0v1454h463q170 0 312 -53.5t239.5 -149.5t151 -231t53.5 -295t-52 -294t-147.5 -229.5t-237 -148.5t-313.5 -53h-469zM426 221h207q227 0 367.5 142t140.5 362q0 222 -138.5 365t-357.5 143h-219v-1012zM565 -313q0 63 46 108t110 45t108.5 -45t44.5 -108 q0 -62 -44.5 -107t-108.5 -45t-110 45t-46 107z" />
<glyph unicode="&#x1e0d;" horiz-adv-x="1269" d="M88 496q0 148 63.5 267t173.5 185t246 66q204 0 320 -137h2v630h227v-1507h-219v135h-2q-116 -151 -326 -151t-347.5 141.5t-137.5 370.5zM322 494q0 -132 80 -216.5t206 -84.5q125 0 209 84t84 217q0 135 -81.5 224t-209.5 89q-123 0 -205.5 -86t-82.5 -227zM479 -313 q0 63 46 108t110 45t108.5 -45t44.5 -108q0 -62 -44.5 -107t-108.5 -45t-110 45t-46 107z" />
<glyph unicode="&#x1e0e;" horiz-adv-x="1507" d="M178 0v1454h463q170 0 312 -53.5t239.5 -149.5t151 -231t53.5 -295t-52 -294t-147.5 -229.5t-237 -148.5t-313.5 -53h-469zM416 -231h610v-193h-610v193zM426 221h207q227 0 367.5 142t140.5 362q0 222 -138.5 365t-357.5 143h-219v-1012z" />
<glyph unicode="&#x1e0f;" horiz-adv-x="1269" d="M88 496q0 148 63.5 267t173.5 185t246 66q204 0 320 -137h2v630h227v-1507h-219v135h-2q-116 -151 -326 -151t-347.5 141.5t-137.5 370.5zM322 494q0 -132 80 -216.5t206 -84.5q125 0 209 84t84 217q0 135 -81.5 224t-209.5 89q-123 0 -205.5 -86t-82.5 -227zM330 -231 h610v-193h-610v193z" />
<glyph unicode="&#x1e20;" horiz-adv-x="1554" d="M113 725q0 160 50.5 297t143 236t229.5 155.5t302 56.5q159 0 308 -60t259 -179l-174 -152q-161 158 -395 158q-201 0 -333 -140t-132 -372q0 -145 57.5 -261t166.5 -183.5t251 -67.5q180 0 323 96v246h-356v221h602v-606q-101 -84 -252 -133t-317 -49q-210 0 -375 87 t-261.5 256t-96.5 394zM526 1632v183h611v-183h-611z" />
<glyph unicode="&#x1e21;" horiz-adv-x="1243" d="M86 510q0 220 134 362t341 142q184 0 311 -121h5v106h229v-897q0 -117 -28 -210t-87 -164t-159 -109.5t-236 -38.5q-234 0 -408 105l56 200q97 -51 169.5 -74.5t170.5 -23.5q142 0 219.5 70.5t77.5 175.5v104h-4q-121 -121 -304 -121q-212 0 -349.5 137t-137.5 357z M295 1196v193h610v-193h-610zM319 516q0 -131 80.5 -210t204.5 -79t203.5 82.5t79.5 210.5q0 126 -80.5 205.5t-202.5 79.5q-127 0 -206 -80.5t-79 -208.5z" />
<glyph unicode="&#x1e24;" horiz-adv-x="1507" d="M178 0v1454h248v-649h655v649h248v-1454h-248v584h-655v-584h-248zM604 -313q0 63 46 108t110 45t108.5 -45t44.5 -108q0 -62 -44.5 -107t-108.5 -45t-110 45t-46 107z" />
<glyph unicode="&#x1e25;" horiz-adv-x="1224" d="M150 0v1507h229v-633h2q128 140 340 140q174 0 273.5 -100.5t99.5 -315.5v-598h-230v539q0 144 -54.5 206t-162.5 62q-126 0 -197 -76.5t-71 -222.5v-508h-229zM446 -313q0 63 46 108t110 45t109 -45t45 -108q0 -62 -45 -107t-109 -45t-110 45t-46 107z" />
<glyph unicode="&#x1e2a;" horiz-adv-x="1507" d="M178 0v1454h248v-649h655v649h248v-1454h-248v584h-655v-584h-248zM440 -158h181q3 -54 40 -91.5t99 -37.5t99 37.5t40 91.5h180q-11 -144 -92.5 -224.5t-226.5 -80.5t-227 80.5t-93 224.5z" />
<glyph unicode="&#x1e2b;" horiz-adv-x="1224" d="M150 0v1507h229v-633h2q128 140 340 140q174 0 273.5 -100.5t99.5 -315.5v-598h-230v539q0 144 -54.5 206t-162.5 62q-126 0 -197 -76.5t-71 -222.5v-508h-229zM283 -158h180q3 -54 40 -91.5t99 -37.5t99 37.5t40 91.5h181q-11 -144 -93 -224.5t-227 -80.5t-226.5 80.5 t-92.5 224.5z" />
<glyph unicode="&#x1e30;" horiz-adv-x="1359" d="M178 0v1454h248v-696h4l557 696h316l-547 -649l563 -805h-307l-420 608l-166 -196v-412h-248zM496 1587l229 273h256l-258 -273h-227z" />
<glyph unicode="&#x1e31;" horiz-adv-x="1095" d="M150 0v1507h229v-968l4 -2l405 462h273l-361 -401l367 -598h-258l-268 440l-162 -176v-264h-229zM504 1139l235 295l252 2l-254 -297h-233z" />
<glyph unicode="&#x1e36;" horiz-adv-x="1173" d="M178 0v1454h248v-1233h674v-221h-922zM475 -313q0 63 46 108t110 45t108.5 -45t44.5 -108q0 -62 -44.5 -107t-108.5 -45t-110 45t-46 107z" />
<glyph unicode="&#x1e37;" horiz-adv-x="557" d="M125 -313q0 63 46 108t110 45t108.5 -45t44.5 -108q0 -62 -44.5 -107t-108.5 -45t-110 45t-46 107zM164 0v1507h229v-1507h-229z" />
<glyph unicode="&#x1e38;" horiz-adv-x="1173" d="M178 0v1454h248v-1233h674v-221h-922zM297 1632v183h610v-183h-610zM475 -313q0 63 46 108t110 45t108.5 -45t44.5 -108q0 -62 -44.5 -107t-108.5 -45t-110 45t-46 107z" />
<glyph unicode="&#x1e39;" horiz-adv-x="557" d="M-18 1659v182h610v-182h-610zM125 -313q0 63 46 108t110 45t108.5 -45t44.5 -108q0 -62 -44.5 -107t-108.5 -45t-110 45t-46 107zM164 0v1507h229v-1507h-229z" />
<glyph unicode="&#x1e3a;" horiz-adv-x="1173" d="M178 0v1454h248v-1233h674v-221h-922zM326 -231h610v-193h-610v193z" />
<glyph unicode="&#x1e3b;" horiz-adv-x="557" d="M-25 -231h611v-193h-611v193zM164 0v1507h229v-1507h-229z" />
<glyph unicode="&#x1e42;" horiz-adv-x="1816" d="M180 0v1454h248l479 -870h4l480 870h247v-1454h-247v973h-5l-397 -692h-162l-397 692h-2v-973h-248zM754 -313q0 63 45.5 108t109.5 45t109 -45t45 -108q0 -62 -45 -107t-109 -45t-109.5 45t-45.5 107z" />
<glyph unicode="&#x1e43;" horiz-adv-x="1837" d="M150 0v999h229v-137h2q61 73 142.5 112.5t168.5 39.5q212 0 299 -166h4q63 81 155.5 123.5t203.5 42.5q168 0 259 -108.5t91 -327.5v-578h-229v520q0 287 -195 287q-100 0 -166.5 -83t-66.5 -226v-498h-230v520q0 138 -50 212.5t-149 74.5q-106 0 -172.5 -82.5 t-66.5 -226.5v-498h-229zM778 -313q0 63 46 108t110 45t108.5 -45t44.5 -108q0 -62 -44.5 -107t-108.5 -45t-110 45t-46 107z" />
<glyph unicode="&#x1e44;" horiz-adv-x="1562" d="M178 0v1454h246l711 -1044h4v1044h245v-1454h-251l-703 1026h-4v-1026h-248zM629 1737q0 62 44.5 106.5t108.5 44.5t110 -44.5t46 -106.5q0 -63 -46 -108.5t-110 -45.5t-108.5 45.5t-44.5 108.5z" />
<glyph unicode="&#x1e45;" horiz-adv-x="1214" d="M150 0v999h229v-137h4q61 73 148 112.5t186 39.5q172 0 269 -104t97 -322v-588h-229v528q0 152 -54.5 215.5t-162.5 63.5q-119 0 -188.5 -80t-69.5 -225v-502h-229zM453 1300q0 62 44.5 107t108.5 45t110 -45t46 -107q0 -63 -46 -108t-110 -45t-108.5 45t-44.5 108z" />
<glyph unicode="&#x1e46;" horiz-adv-x="1562" d="M178 0v1454h246l711 -1044h4v1044h245v-1454h-251l-703 1026h-4v-1026h-248zM625 -313q0 63 45.5 108t109.5 45t109 -45t45 -108q0 -62 -45 -107t-109 -45t-109.5 45t-45.5 107z" />
<glyph unicode="&#x1e47;" horiz-adv-x="1214" d="M150 0v999h229v-137h4q61 73 148 112.5t186 39.5q172 0 269 -104t97 -322v-588h-229v528q0 152 -54.5 215.5t-162.5 63.5q-119 0 -188.5 -80t-69.5 -225v-502h-229zM485 -313q0 63 46 108t110 45t109 -45t45 -108q0 -62 -45 -107t-109 -45t-110 45t-46 107z" />
<glyph unicode="&#x1e48;" horiz-adv-x="1562" d="M178 0v1454h246l711 -1044h4v1044h245v-1454h-251l-703 1026h-4v-1026h-248zM475 -231h610v-193h-610v193z" />
<glyph unicode="&#x1e49;" horiz-adv-x="1214" d="M150 0v999h229v-137h4q61 73 148 112.5t186 39.5q172 0 269 -104t97 -322v-588h-229v528q0 152 -54.5 215.5t-162.5 63.5q-119 0 -188.5 -80t-69.5 -225v-502h-229zM336 -231h610v-193h-610v193z" />
<glyph unicode="&#x1e5a;" horiz-adv-x="1349" d="M178 0v1454h537q127 0 223.5 -35.5t155.5 -99.5t88.5 -148.5t29.5 -187.5q0 -171 -82 -282.5t-241 -157.5l377 -543h-297l-348 518h-195v-518h-248zM426 741h236q144 0 219 67t75 179q0 116 -72.5 181t-205.5 65h-252v-492zM516 -313q0 63 46 108t110 45t108.5 -45 t44.5 -108q0 -62 -44.5 -107t-108.5 -45t-110 45t-46 107z" />
<glyph unicode="&#x1e5b;" horiz-adv-x="761" d="M115 -313q0 63 45.5 108t109.5 45t109 -45t45 -108q0 -62 -45 -107t-109 -45t-109.5 45t-45.5 107zM150 0v999h229v-149h4q59 78 139 121t170 43h29v-256q-54 4 -70 4q-127 0 -199.5 -81t-72.5 -208v-473h-229z" />
<glyph unicode="&#x1e5c;" horiz-adv-x="1349" d="M178 0v1454h537q127 0 223.5 -35.5t155.5 -99.5t88.5 -148.5t29.5 -187.5q0 -171 -82 -282.5t-241 -157.5l377 -543h-297l-348 518h-195v-518h-248zM367 1632v183h610v-183h-610zM426 741h236q144 0 219 67t75 179q0 116 -72.5 181t-205.5 65h-252v-492zM516 -313 q0 63 46 108t110 45t108.5 -45t44.5 -108q0 -62 -44.5 -107t-108.5 -45t-110 45t-46 107z" />
<glyph unicode="&#x1e5d;" horiz-adv-x="761" d="M115 -313q0 63 45.5 108t109.5 45t109 -45t45 -108q0 -62 -45 -107t-109 -45t-109.5 45t-45.5 107zM150 0v999h229v-149h4q59 78 139 121t170 43h29v-256q-54 4 -70 4q-127 0 -199.5 -81t-72.5 -208v-473h-229zM150 1196v193h610v-193h-610z" />
<glyph unicode="&#x1e5e;" horiz-adv-x="1349" d="M178 0v1454h537q127 0 223.5 -35.5t155.5 -99.5t88.5 -148.5t29.5 -187.5q0 -171 -82 -282.5t-241 -157.5l377 -543h-297l-348 518h-195v-518h-248zM367 -231h610v-193h-610v193zM426 741h236q144 0 219 67t75 179q0 116 -72.5 181t-205.5 65h-252v-492z" />
<glyph unicode="&#x1e5f;" horiz-adv-x="761" d="M-35 -231h610v-193h-610v193zM150 0v999h229v-149h4q59 78 139 121t170 43h29v-256q-54 4 -70 4q-127 0 -199.5 -81t-72.5 -208v-473h-229z" />
<glyph unicode="&#x1e60;" horiz-adv-x="1210" d="M86 213l156 190q76 -92 175.5 -141t196.5 -49q117 0 179.5 47.5t62.5 128.5q0 38 -13 67.5t-32 50.5t-59 42t-76 36t-101 38q-78 28 -132 51t-117 61.5t-101 81.5t-64 107t-26 141q0 169 135.5 287t325.5 118q257 0 481 -178l-147 -194q-181 149 -334 149 q-88 0 -146 -45.5t-59 -124.5q0 -26 6 -47t26 -40.5t36 -32t57 -31t65 -28t83 -32.5q181 -71 241 -104q136 -74 181 -184q28 -68 28 -158q0 -87 -30 -160.5t-79.5 -123.5t-115 -85t-135.5 -51t-142 -16q-144 0 -279.5 57t-246.5 172zM449 1737q0 62 44.5 106.5t108.5 44.5 t110 -44.5t46 -106.5q0 -63 -46 -108.5t-110 -45.5t-108.5 45.5t-44.5 108.5z" />
<glyph unicode="&#x1e61;" horiz-adv-x="919" d="M66 129l114 172q61 -60 130 -88.5t159 -28.5q65 0 102 27t37 72q0 35 -42 58t-154 62q-70 24 -118.5 48.5t-94.5 62t-69.5 92t-23.5 125.5q0 123 99.5 203t253.5 80q198 0 352 -125l-115 -180q-112 106 -250 106q-40 0 -74 -22t-34 -64q0 -35 39.5 -63t118.5 -58 q14 -5 41 -16q37 -14 54.5 -21.5t48.5 -20.5t46 -21.5t39 -22t35.5 -25l28 -28t24 -33t15.5 -37.5t11 -44.5t3 -51.5q0 -133 -95.5 -218t-277.5 -85q-239 0 -403 145zM319 1300q0 62 45 107t109 45t110 -45t46 -107q0 -63 -46 -108t-110 -45t-109 45t-45 108z" />
<glyph unicode="&#x1e62;" horiz-adv-x="1210" d="M86 213l156 190q76 -92 175.5 -141t196.5 -49q117 0 179.5 47.5t62.5 128.5q0 38 -13 67.5t-32 50.5t-59 42t-76 36t-101 38q-78 28 -132 51t-117 61.5t-101 81.5t-64 107t-26 141q0 169 135.5 287t325.5 118q257 0 481 -178l-147 -194q-181 149 -334 149 q-88 0 -146 -45.5t-59 -124.5q0 -26 6 -47t26 -40.5t36 -32t57 -31t65 -28t83 -32.5q181 -71 241 -104q136 -74 181 -184q28 -68 28 -158q0 -87 -30 -160.5t-79.5 -123.5t-115 -85t-135.5 -51t-142 -16q-144 0 -279.5 57t-246.5 172zM477 -313q0 63 46 108t110 45t108.5 -45 t44.5 -108q0 -62 -44.5 -107t-108.5 -45t-110 45t-46 107z" />
<glyph unicode="&#x1e63;" horiz-adv-x="919" d="M66 129l114 172q61 -60 130 -88.5t159 -28.5q65 0 102 27t37 72q0 35 -42 58t-154 62q-70 24 -118.5 48.5t-94.5 62t-69.5 92t-23.5 125.5q0 123 99.5 203t253.5 80q198 0 352 -125l-115 -180q-112 106 -250 106q-40 0 -74 -22t-34 -64q0 -35 39.5 -63t118.5 -58 q14 -5 41 -16q37 -14 54.5 -21.5t48.5 -20.5t46 -21.5t39 -22t35.5 -25l28 -28t24 -33t15.5 -37.5t11 -44.5t3 -51.5q0 -133 -95.5 -218t-277.5 -85q-239 0 -403 145zM309 -313q0 63 46 108t110 45t108.5 -45t44.5 -108q0 -62 -44.5 -107t-108.5 -45t-110 45t-46 107z" />
<glyph unicode="&#x1e6c;" horiz-adv-x="1206" d="M66 1233v221h1077v-221h-418v-1233h-248v1233h-411zM442 -313q0 63 46 108t110 45t109 -45t45 -108q0 -62 -45 -107t-109 -45t-110 45t-46 107z" />
<glyph unicode="&#x1e6d;" horiz-adv-x="747" d="M45 805v194h123v332l229 25v-357h293v-194h-293v-467q0 -75 23 -107t74 -32q68 0 147 43l59 -199q-52 -29 -108 -44t-146 -15q-132 0 -205 83.5t-73 247.5v490h-123zM285 -313q0 63 45.5 108t109.5 45t109 -45t45 -108q0 -62 -45 -107t-109 -45t-109.5 45t-45.5 107z" />
<glyph unicode="&#x1e6e;" horiz-adv-x="1206" d="M66 1233v221h1077v-221h-418v-1233h-248v1233h-411zM293 -231h610v-193h-610v193z" />
<glyph unicode="&#x1e6f;" horiz-adv-x="747" d="M45 805v194h123v332l229 25v-357h293v-194h-293v-467q0 -75 23 -107t74 -32q68 0 147 43l59 -199q-52 -29 -108 -44t-146 -15q-132 0 -205 83.5t-73 247.5v490h-123zM135 -231h610v-193h-610v193z" />
<glyph unicode="&#x1e80;" horiz-adv-x="2119" d="M66 1454h264l311 -1048h4l285 1048h262l283 -1046h4l313 1046h262l-461 -1454h-231l-297 1094h-4l-303 -1094h-232zM700 1860h256l230 -273h-228z" />
<glyph unicode="&#x1e81;" horiz-adv-x="1579" d="M47 999h236l211 -663h4l196 663h191l200 -663h5l210 663h232l-340 -999h-211l-193 629h-2l-192 -629h-207zM420 1430l256 -3l225 -292h-227z" />
<glyph unicode="&#x1e82;" horiz-adv-x="2119" d="M66 1454h264l311 -1048h4l285 1048h262l283 -1046h4l313 1046h262l-461 -1454h-231l-297 1094h-4l-303 -1094h-232zM958 1587l230 273h256l-258 -273h-228z" />
<glyph unicode="&#x1e83;" horiz-adv-x="1579" d="M47 999h236l211 -663h4l196 663h191l200 -663h5l210 663h232l-340 -999h-211l-193 629h-2l-192 -629h-207zM676 1139l235 295l252 2l-254 -297h-233z" />
<glyph unicode="&#x1e84;" horiz-adv-x="2119" d="M66 1454h264l311 -1048h4l285 1048h262l283 -1046h4l313 1046h262l-461 -1454h-231l-297 1094h-4l-303 -1094h-232zM709 1739q0 60 44 103.5t107 43.5t108.5 -44.5t45.5 -104.5q0 -61 -45.5 -105.5t-108.5 -44.5t-107 45t-44 107zM1116 1739q0 60 44.5 103.5t107.5 43.5 t108 -44.5t45 -104.5q0 -62 -45 -106t-108 -44t-107.5 45t-44.5 107z" />
<glyph unicode="&#x1e85;" horiz-adv-x="1579" d="M47 999h236l211 -663h4l196 663h191l200 -663h5l210 663h232l-340 -999h-211l-193 629h-2l-192 -629h-207zM432 1303q0 60 44.5 103.5t107.5 43.5t108 -45t45 -105q0 -61 -45 -105t-108 -44t-107.5 45t-44.5 107zM840 1303q0 60 44 103.5t107 43.5t108.5 -45t45.5 -105 q0 -61 -45.5 -105t-108.5 -44t-107 45t-44 107z" />
<glyph unicode="&#x1e8e;" horiz-adv-x="1280" d="M29 1454h282l326 -563h4l324 563h286l-489 -811v-643h-248v643zM492 1737q0 62 44.5 106.5t108.5 44.5t110 -44.5t46 -106.5q0 -63 -46 -108.5t-110 -45.5t-108.5 45.5t-44.5 108.5z" />
<glyph unicode="&#x1e8f;" horiz-adv-x="1095" d="M39 999h246l274 -669h4l256 669h236l-549 -1405h-238l181 461zM395 1300q0 62 45 107t109 45t110 -45t46 -107q0 -63 -46 -108t-110 -45t-109 45t-45 108z" />
<glyph unicode="&#x1e92;" horiz-adv-x="1282" d="M117 0v195l714 1034l-2 4h-679v221h1007v-190l-727 -1037l4 -6h727v-221h-1044zM485 -313q0 63 46 108t110 45t109 -45t45 -108q0 -62 -45 -107t-109 -45t-110 45t-46 107z" />
<glyph unicode="&#x1e93;" horiz-adv-x="1001" d="M82 0v162l514 637l-2 6h-477v194h794v-157l-518 -643l2 -4h508v-195h-821zM350 -313q0 63 46 108t110 45t108.5 -45t44.5 -108q0 -62 -44.5 -107t-108.5 -45t-110 45t-46 107z" />
<glyph unicode="&#x1e97;" horiz-adv-x="747" d="M14 1606q0 60 44.5 103.5t107.5 43.5t108 -44.5t45 -104.5q0 -62 -45 -106t-108 -44t-107.5 45t-44.5 107zM45 805v194h123v332l229 25v-357h293v-194h-293v-467q0 -75 23 -107t74 -32q68 0 147 43l59 -199q-52 -29 -108 -44t-146 -15q-132 0 -205 83.5t-73 247.5v490 h-123zM422 1606q0 60 44 103.5t107 43.5t108.5 -44.5t45.5 -104.5q0 -61 -45.5 -105.5t-108.5 -44.5t-107 45t-44 107z" />
<glyph unicode="&#x1e9e;" horiz-adv-x="1560" d="M143 0l2 981q0 252 140 370.5t397 118.5q104 0 291 -27.5t366 -68.5l-268 -510q179 -71 238 -105q135 -75 178 -186q26 -66 26 -153t-29.5 -160.5t-78.5 -123.5t-112 -85t-129 -51t-132 -16q-109 0 -224 42.5t-216 125.5l115 223q73 -78 162 -120t165 -42q103 0 162 48 t59 128q0 47 -16.5 81t-55 61t-84.5 47t-124 45q-97 33 -230 96l252 495l-2 9q-197 24 -284 24q-164 0 -241.5 -63t-78.5 -215v-969h-248z" />
<glyph unicode="&#x1ea0;" horiz-adv-x="1423" d="M47 0l543 1454h241l545 -1454h-258l-110 313h-594l-109 -313h-258zM489 526h445l-221 631h-4zM559 -313q0 63 46 108t110 45t108.5 -45t44.5 -108q0 -62 -44.5 -107t-108.5 -45t-110 45t-46 107z" />
<glyph unicode="&#x1ea1;" horiz-adv-x="1251" d="M88 496q0 225 137.5 371.5t343.5 146.5q200 0 310 -137l4 2v120h229v-999h-219v131l-4 2q-112 -149 -318 -149q-210 0 -346.5 141.5t-136.5 370.5zM322 494q0 -133 79.5 -217t206.5 -84q120 0 202.5 84.5t82.5 216.5q0 134 -81 223.5t-204 89.5t-204.5 -85.5 t-81.5 -227.5zM446 -313q0 63 46 108t110 45t109 -45t45 -108q0 -62 -45 -107t-109 -45t-110 45t-46 107z" />
<glyph unicode="&#x1ea2;" horiz-adv-x="1423" d="M47 0l543 1454h241l545 -1454h-258l-110 313h-594l-109 -313h-258zM477 1831q43 37 118.5 66.5t172.5 29.5q87 0 140 -40.5t53 -119.5q0 -113 -164 -180h-168q48 34 72.5 53.5t47.5 47t23 49.5q0 41 -59 41q-69 0 -183 -66zM489 526h445l-221 631h-4z" />
<glyph unicode="&#x1ea3;" horiz-adv-x="1251" d="M88 496q0 225 137.5 371.5t343.5 146.5q200 0 310 -137l4 2v120h229v-999h-219v131l-4 2q-112 -149 -318 -149q-210 0 -346.5 141.5t-136.5 370.5zM322 494q0 -133 79.5 -217t206.5 -84q120 0 202.5 84.5t82.5 216.5q0 134 -81 223.5t-204 89.5t-204.5 -85.5 t-81.5 -227.5zM393 1403q41 43 116 75.5t173 32.5q88 0 140 -42t52 -126q0 -69 -51.5 -126.5t-111.5 -81.5h-168q146 106 143 176q0 43 -59 43q-43 0 -83 -15.5t-98 -54.5z" />
<glyph unicode="&#x1ea4;" horiz-adv-x="1423" d="M47 0l543 1454h241l545 -1454h-258l-110 313h-594l-109 -313h-258zM365 1587l227 273h239l222 -273h-224l-116 146h-4l-117 -146h-227zM489 526h445l-221 631h-4zM1024 1702l168 276h252l-250 -276h-170z" />
<glyph unicode="&#x1ea5;" horiz-adv-x="1251" d="M88 496q0 225 137.5 371.5t343.5 146.5q200 0 310 -137l4 2v120h229v-999h-219v131l-4 2q-112 -149 -318 -149q-210 0 -346.5 141.5t-136.5 370.5zM287 1135l223 297h240l215 -297h-224l-110 157h-4l-113 -157h-227zM322 494q0 -133 79.5 -217t206.5 -84 q120 0 202.5 84.5t82.5 216.5q0 134 -81 223.5t-204 89.5t-204.5 -85.5t-81.5 -227.5zM903 1321l170 297h252l-252 -297h-170z" />
<glyph unicode="&#x1ea6;" horiz-adv-x="1423" d="M47 0l543 1454h241l545 -1454h-258l-110 313h-594l-109 -313h-258zM365 1587l227 273h239l222 -273h-224l-116 146h-4l-117 -146h-227zM489 526h445l-221 631h-4zM879 1976h251l168 -276h-170z" />
<glyph unicode="&#x1ea7;" horiz-adv-x="1251" d="M88 496q0 225 137.5 371.5t343.5 146.5q200 0 310 -137l4 2v120h229v-999h-219v131l-4 2q-112 -149 -318 -149q-210 0 -346.5 141.5t-136.5 370.5zM287 1135l223 297h240l215 -297h-224l-110 157h-4l-113 -157h-227zM322 494q0 -133 79.5 -217t206.5 -84 q120 0 202.5 84.5t82.5 216.5q0 134 -81 223.5t-204 89.5t-204.5 -85.5t-81.5 -227.5zM709 1618h252l169 -297h-169z" />
<glyph unicode="&#x1ea8;" horiz-adv-x="1423" d="M47 0l543 1454h241l545 -1454h-258l-110 313h-594l-109 -313h-258zM365 1587l227 273h239l222 -273h-224l-116 146h-4l-117 -146h-227zM489 526h445l-221 631h-4zM905 1939q39 35 106.5 62t155.5 27q78 0 126 -37t48 -107q0 -102 -147 -164h-152q86 64 106 87 q23 26 23 48q0 16 -13.5 26.5t-39.5 10.5q-67 0 -164 -59z" />
<glyph unicode="&#x1ea9;" horiz-adv-x="1251" d="M88 496q0 225 137.5 371.5t343.5 146.5q200 0 310 -137l4 2v120h229v-999h-219v131l-4 2q-112 -149 -318 -149q-210 0 -346.5 141.5t-136.5 370.5zM285 1135l223 297h240l215 -297h-224l-110 157h-4l-113 -157h-227zM322 494q0 -133 79.5 -217t206.5 -84 q120 0 202.5 84.5t82.5 216.5q0 134 -81 223.5t-204 89.5t-204.5 -85.5t-81.5 -227.5zM788 1597q41 41 111 72t164 31q82 0 132 -40t50 -120q0 -65 -49.5 -119.5t-105.5 -79.5h-160q138 101 135 168q0 19 -14.5 30t-40.5 11q-41 0 -79 -14t-93 -51z" />
<glyph unicode="&#x1eaa;" horiz-adv-x="1423" d="M47 0l543 1454h241l545 -1454h-258l-110 313h-594l-109 -313h-258zM342 1966q31 89 87 143t134 54q34 0 69 -10t53 -19.5t48 -26.5q6 -3 23 -13t24.5 -14t20.5 -10t24 -8t23 -2q30 0 53.5 24t44.5 77l131 -45q-66 -211 -217 -211q-65 0 -162 55q-77 45 -120 45 q-62 0 -105 -98zM365 1587l227 273h239l222 -273h-224l-116 146h-4l-117 -146h-227zM489 526h445l-221 631h-4z" />
<glyph unicode="&#x1eab;" horiz-adv-x="1251" d="M88 496q0 225 137.5 371.5t343.5 146.5q200 0 310 -137l4 2v120h229v-999h-219v131l-4 2q-112 -149 -318 -149q-210 0 -346.5 141.5t-136.5 370.5zM258 1579q33 102 85.5 157.5t133.5 55.5q74 0 158 -49q55 -32 77 -41.5t40 -9.5q73 0 116 106l140 -47q-32 -107 -90 -169 t-138 -62q-72 0 -164 57q-28 17 -44 25.5t-37.5 15t-38.5 4.5q-26 -3 -53.5 -31t-45.5 -75zM287 1135l223 297h240l215 -297h-224l-110 157h-4l-113 -157h-227zM322 494q0 -133 79.5 -217t206.5 -84q120 0 202.5 84.5t82.5 216.5q0 134 -81 223.5t-204 89.5t-204.5 -85.5 t-81.5 -227.5z" />
<glyph unicode="&#x1eac;" horiz-adv-x="1423" d="M47 0l543 1454h241l545 -1454h-258l-110 313h-594l-109 -313h-258zM365 1587l227 273h239l222 -273h-224l-116 146h-4l-117 -146h-227zM489 526h445l-221 631h-4zM559 -313q0 63 46 108t110 45t108.5 -45t44.5 -108q0 -62 -44.5 -107t-108.5 -45t-110 45t-46 107z" />
<glyph unicode="&#x1ead;" horiz-adv-x="1251" d="M88 496q0 225 137.5 371.5t343.5 146.5q200 0 310 -137l4 2v120h229v-999h-219v131l-4 2q-112 -149 -318 -149q-210 0 -346.5 141.5t-136.5 370.5zM285 1135l223 297h240l215 -297h-224l-110 157h-4l-113 -157h-227zM322 494q0 -133 79.5 -217t206.5 -84 q120 0 202.5 84.5t82.5 216.5q0 134 -81 223.5t-204 89.5t-204.5 -85.5t-81.5 -227.5zM446 -313q0 63 46 108t110 45t109 -45t45 -108q0 -62 -45 -107t-109 -45t-110 45t-46 107z" />
<glyph unicode="&#x1eae;" horiz-adv-x="1423" d="M47 0l543 1454h241l545 -1454h-258l-110 313h-594l-109 -313h-258zM373 1831h190q3 -44 42 -72t106 -28q66 0 105 28.5t42 71.5h191q-11 -121 -98 -192.5t-240 -71.5t-240 71.5t-98 192.5zM489 526h445l-221 631h-4zM629 1835l168 276h252l-250 -276h-170z" />
<glyph unicode="&#x1eaf;" horiz-adv-x="1251" d="M88 496q0 225 137.5 371.5t343.5 146.5q200 0 310 -137l4 2v120h229v-999h-219v131l-4 2q-112 -149 -318 -149q-210 0 -346.5 141.5t-136.5 370.5zM305 1427h180q3 -54 40.5 -91.5t99.5 -37.5t99 37.5t40 91.5h180q-11 -144 -92.5 -224.5t-226.5 -80.5t-227 80.5 t-93 224.5zM322 494q0 -133 79.5 -217t206.5 -84q120 0 202.5 84.5t82.5 216.5q0 134 -81 223.5t-204 89.5t-204.5 -85.5t-81.5 -227.5zM528 1454l170 297h252l-252 -297h-170z" />
<glyph unicode="&#x1eb0;" horiz-adv-x="1423" d="M47 0l543 1454h241l545 -1454h-258l-110 313h-594l-109 -313h-258zM373 1831h190q3 -44 42 -72t106 -28q66 0 105 28.5t42 71.5h191q-11 -121 -98 -192.5t-240 -71.5t-240 71.5t-98 192.5zM393 2111h252l168 -276h-170zM489 526h445l-221 631h-4z" />
<glyph unicode="&#x1eb1;" horiz-adv-x="1251" d="M88 496q0 225 137.5 371.5t343.5 146.5q200 0 310 -137l4 2v120h229v-999h-219v131l-4 2q-112 -149 -318 -149q-210 0 -346.5 141.5t-136.5 370.5zM299 1751h252l170 -297h-170zM305 1427h180q3 -54 40.5 -91.5t99.5 -37.5t99 37.5t40 91.5h180q-11 -144 -92.5 -224.5 t-226.5 -80.5t-227 80.5t-93 224.5zM322 494q0 -133 79.5 -217t206.5 -84q120 0 202.5 84.5t82.5 216.5q0 134 -81 223.5t-204 89.5t-204.5 -85.5t-81.5 -227.5z" />
<glyph unicode="&#x1eb2;" horiz-adv-x="1423" d="M47 0l543 1454h241l545 -1454h-258l-110 313h-594l-109 -313h-258zM373 1831h190q3 -44 42 -72t106 -28q66 0 105 28.5t42 71.5h191q-11 -121 -98 -192.5t-240 -71.5t-240 71.5t-98 192.5zM475 2040q38 35 106 61.5t156 26.5q78 0 126 -36.5t48 -106.5q0 -102 -147 -164 h-152q86 64 106 87q23 26 23 48q0 16 -13.5 26.5t-39.5 10.5q-65 0 -164 -60zM489 526h445l-221 631h-4z" />
<glyph unicode="&#x1eb3;" horiz-adv-x="1251" d="M88 496q0 225 137.5 371.5t343.5 146.5q200 0 310 -137l4 2v120h229v-999h-219v131l-4 2q-112 -149 -318 -149q-210 0 -346.5 141.5t-136.5 370.5zM293 1413h186q3 -50 42.5 -85.5t103.5 -35.5t103 35.5t42 85.5h186q-11 -135 -95.5 -211t-235.5 -76t-236 76t-96 211z M322 494q0 -133 79.5 -217t206.5 -84q120 0 202.5 84.5t82.5 216.5q0 134 -81 223.5t-204 89.5t-204.5 -85.5t-81.5 -227.5zM391 1683q41 41 111 72t164 31q82 0 132 -40t50 -120q0 -65 -49.5 -119.5t-106.5 -79.5h-160q139 102 136 168q0 19 -15 30t-41 11q-41 0 -79 -14 t-93 -51z" />
<glyph unicode="&#x1eb4;" horiz-adv-x="1423" d="M47 0l543 1454h241l545 -1454h-258l-110 313h-594l-109 -313h-258zM340 1933q31 89 87 143t134 54q75 0 170 -55q6 -3 23 -13t24.5 -14t20.5 -10t24 -8t23 -2q30 0 53.5 23.5t44.5 76.5l131 -45q-66 -211 -217 -211q-65 0 -162 55q-77 45 -121 45q-61 0 -104 -98z M373 1831h190q3 -44 42 -72t106 -28q66 0 105 28.5t42 71.5h191q-11 -121 -98 -192.5t-240 -71.5t-240 71.5t-98 192.5zM489 526h445l-221 631h-4z" />
<glyph unicode="&#x1eb5;" horiz-adv-x="1251" d="M88 496q0 225 137.5 371.5t343.5 146.5q200 0 310 -137l4 2v120h229v-999h-219v131l-4 2q-112 -149 -318 -149q-210 0 -346.5 141.5t-136.5 370.5zM254 1573q33 102 85.5 157.5t133.5 55.5q74 0 158 -49q55 -32 77 -41.5t40 -9.5q73 0 116 106l140 -47q-32 -108 -90 -170 t-138 -62q-70 0 -164 58q-28 17 -44 25.5t-37.5 15t-38.5 4.5q-26 -3 -53.5 -31.5t-45.5 -75.5zM303 1427h180q3 -54 40.5 -91.5t99.5 -37.5t99 37.5t40 91.5h180q-11 -144 -92.5 -224.5t-226.5 -80.5t-227 80.5t-93 224.5zM322 494q0 -133 79.5 -217t206.5 -84 q120 0 202.5 84.5t82.5 216.5q0 134 -81 223.5t-204 89.5t-204.5 -85.5t-81.5 -227.5z" />
<glyph unicode="&#x1eb6;" horiz-adv-x="1423" d="M47 0l543 1454h241l545 -1454h-258l-110 313h-594l-109 -313h-258zM391 1860h180q3 -49 40 -80t100 -31q62 0 99 31.5t40 79.5h180q-11 -132 -93 -209.5t-226 -77.5t-226.5 78t-93.5 209zM489 526h445l-221 631h-4zM559 -313q0 63 46 108t110 45t108.5 -45t44.5 -108 q0 -62 -44.5 -107t-108.5 -45t-110 45t-46 107z" />
<glyph unicode="&#x1eb7;" horiz-adv-x="1251" d="M88 496q0 225 137.5 371.5t343.5 146.5q200 0 310 -137l4 2v120h229v-999h-219v131l-4 2q-112 -149 -318 -149q-210 0 -346.5 141.5t-136.5 370.5zM305 1427h180q3 -54 40.5 -91.5t99.5 -37.5t99 37.5t40 91.5h180q-11 -144 -92.5 -224.5t-226.5 -80.5t-227 80.5 t-93 224.5zM322 494q0 -133 79.5 -217t206.5 -84q120 0 202.5 84.5t82.5 216.5q0 134 -81 223.5t-204 89.5t-204.5 -85.5t-81.5 -227.5zM446 -313q0 63 46 108t110 45t109 -45t45 -108q0 -62 -45 -107t-109 -45t-110 45t-46 107z" />
<glyph unicode="&#x1eb8;" horiz-adv-x="1243" d="M178 0v1454h916v-221h-668v-402h539v-221h-539v-389h711v-221h-959zM514 -313q0 63 46 108t110 45t108.5 -45t44.5 -108q0 -62 -44.5 -107t-108.5 -45t-110 45t-46 107z" />
<glyph unicode="&#x1eb9;" horiz-adv-x="1150" d="M90 500q0 229 140.5 371.5t361.5 142.5q209 0 340 -141t131 -361q0 -40 -6 -88h-729q22 -109 99 -170t194 -61q157 0 251 116l160 -137q-145 -188 -424 -188q-229 0 -373.5 141.5t-144.5 374.5zM332 604h499q-23 94 -84.5 148.5t-156.5 54.5q-96 0 -165 -53t-93 -150z M451 -313q0 63 45.5 108t109.5 45t109 -45t45 -108q0 -62 -45 -107t-109 -45t-109.5 45t-45.5 107z" />
<glyph unicode="&#x1eba;" horiz-adv-x="1243" d="M178 0v1454h916v-221h-668v-402h539v-221h-539v-389h711v-221h-959zM422 1831q43 37 118.5 66.5t172.5 29.5q87 0 139.5 -40.5t52.5 -119.5q0 -113 -164 -180h-168q49 35 73 53.5t47.5 46.5t23.5 50q0 18 -15.5 29.5t-44.5 11.5q-68 0 -182 -66z" />
<glyph unicode="&#x1ebb;" horiz-adv-x="1150" d="M90 500q0 229 140.5 371.5t361.5 142.5q209 0 340 -141t131 -361q0 -40 -6 -88h-729q22 -109 99 -170t194 -61q157 0 251 116l160 -137q-145 -188 -424 -188q-229 0 -373.5 141.5t-144.5 374.5zM332 604h499q-23 94 -84.5 148.5t-156.5 54.5q-96 0 -165 -53t-93 -150z M365 1403q41 43 115.5 75.5t172.5 32.5q88 0 140.5 -42t52.5 -126q0 -69 -52 -126.5t-112 -81.5h-168q146 106 143 176q0 43 -59 43q-43 0 -82.5 -15t-97.5 -55z" />
<glyph unicode="&#x1ebc;" horiz-adv-x="1243" d="M178 0v1454h916v-221h-668v-402h539v-221h-539v-389h711v-221h-959zM264 1653q33 95 92.5 153t141.5 58q37 0 74.5 -11t55.5 -20t52 -29q4 -2 17.5 -10t18 -11t16 -9t18 -8t16 -5.5t18 -4.5t17.5 -1q32 0 56.5 25t47.5 82l139 -47q-68 -228 -229 -228q-69 0 -172 60 q-85 49 -129 49q-67 0 -111 -107z" />
<glyph unicode="&#x1ebd;" horiz-adv-x="1150" d="M90 500q0 229 140.5 371.5t361.5 142.5q209 0 340 -141t131 -361q0 -40 -6 -88h-729q22 -109 99 -170t194 -61q157 0 251 116l160 -137q-145 -188 -424 -188q-229 0 -373.5 141.5t-144.5 374.5zM205 1200q32 105 91 165t142 60q37 0 71 -9t53.5 -19.5t47.5 -28.5 q64 -41 93 -48q13 -3 26 -3q74 0 117 106l139 -47q-31 -114 -90.5 -178.5t-136.5 -64.5q-34 0 -69.5 11t-57.5 22.5t-53 31.5q-70 45 -115 45q-76 0 -119 -106zM332 604h499q-23 94 -84.5 148.5t-156.5 54.5q-96 0 -165 -53t-93 -150z" />
<glyph unicode="&#x1ebe;" horiz-adv-x="1243" d="M178 0v1454h916v-221h-668v-402h539v-221h-539v-389h711v-221h-959zM309 1587l228 273h239l221 -273h-223l-117 146h-4l-116 -146h-228zM969 1702l168 276h252l-250 -276h-170z" />
<glyph unicode="&#x1ebf;" horiz-adv-x="1150" d="M90 500q0 229 140.5 371.5t361.5 142.5q209 0 340 -141t131 -361q0 -40 -6 -88h-729q22 -109 99 -170t194 -61q157 0 251 116l160 -137q-145 -188 -424 -188q-229 0 -373.5 141.5t-144.5 374.5zM258 1135l223 297h240l215 -297h-223l-111 157h-4l-113 -157h-227zM332 604 h499q-23 94 -84.5 148.5t-156.5 54.5q-96 0 -165 -53t-93 -150zM874 1321l170 297h252l-252 -297h-170z" />
<glyph unicode="&#x1ec0;" horiz-adv-x="1243" d="M178 0v1454h916v-221h-668v-402h539v-221h-539v-389h711v-221h-959zM309 1587l228 273h239l221 -273h-223l-117 146h-4l-116 -146h-228zM823 1976h252l168 -276h-170z" />
<glyph unicode="&#x1ec1;" horiz-adv-x="1150" d="M90 500q0 229 140.5 371.5t361.5 142.5q209 0 340 -141t131 -361q0 -40 -6 -88h-729q22 -109 99 -170t194 -61q157 0 251 116l160 -137q-145 -188 -424 -188q-229 0 -373.5 141.5t-144.5 374.5zM258 1135l223 297h240l215 -297h-223l-111 157h-4l-113 -157h-227zM332 604 h499q-23 94 -84.5 148.5t-156.5 54.5q-96 0 -165 -53t-93 -150zM680 1618h252l170 -297h-170z" />
<glyph unicode="&#x1ec2;" horiz-adv-x="1243" d="M178 0v1454h916v-221h-668v-402h539v-221h-539v-389h711v-221h-959zM309 1587l228 273h239l221 -273h-223l-117 146h-4l-116 -146h-228zM850 1939q39 35 106.5 62t155.5 27q78 0 126 -37t48 -107q0 -102 -147 -164h-152q86 64 106 87q23 26 23 48q0 16 -13.5 26.5 t-39.5 10.5q-67 0 -164 -59z" />
<glyph unicode="&#x1ec3;" horiz-adv-x="1150" d="M90 500q0 229 140.5 371.5t361.5 142.5q209 0 340 -141t131 -361q0 -40 -6 -88h-729q22 -109 99 -170t194 -61q157 0 251 116l160 -137q-145 -188 -424 -188q-229 0 -373.5 141.5t-144.5 374.5zM256 1135l223 297h240l215 -297h-223l-111 157h-4l-113 -157h-227zM332 604 h499q-23 94 -84.5 148.5t-156.5 54.5q-96 0 -165 -53t-93 -150zM760 1597q41 41 110.5 72t163.5 31q82 0 132.5 -40t50.5 -120q0 -65 -49.5 -119.5t-106.5 -79.5h-160q138 101 135 168q0 19 -14.5 30t-40.5 11q-41 0 -79 -14t-93 -51z" />
<glyph unicode="&#x1ec4;" horiz-adv-x="1243" d="M178 0v1454h916v-221h-668v-402h539v-221h-539v-389h711v-221h-959zM287 1966q31 89 87 143t134 54q34 0 69 -10t53 -19.5t48 -26.5q6 -3 23 -13t24.5 -14t20.5 -10t24 -8t23 -2q30 0 53.5 24t44.5 77l131 -45q-66 -211 -217 -211q-65 0 -162 55q-77 45 -121 45 q-61 0 -104 -98zM309 1587l228 273h239l221 -273h-223l-117 146h-4l-116 -146h-228z" />
<glyph unicode="&#x1ec5;" horiz-adv-x="1150" d="M90 500q0 229 140.5 371.5t361.5 142.5q209 0 340 -141t131 -361q0 -40 -6 -88h-729q22 -109 99 -170t194 -61q157 0 251 116l160 -137q-145 -188 -424 -188q-229 0 -373.5 141.5t-144.5 374.5zM229 1579q33 101 86 157t134 56q73 0 157 -49q55 -32 77 -41.5t40 -9.5 q74 0 117 106l139 -47q-32 -108 -89.5 -169.5t-137.5 -61.5q-72 0 -164 57q-82 49 -121 45q-26 -3 -53 -31t-45 -75zM258 1135l223 297h240l215 -297h-223l-111 157h-4l-113 -157h-227zM332 604h499q-23 94 -84.5 148.5t-156.5 54.5q-96 0 -165 -53t-93 -150z" />
<glyph unicode="&#x1ec6;" horiz-adv-x="1243" d="M178 0v1454h916v-221h-668v-402h539v-221h-539v-389h711v-221h-959zM309 1587l228 273h239l221 -273h-223l-117 146h-4l-116 -146h-228zM514 -313q0 63 46 108t110 45t108.5 -45t44.5 -108q0 -62 -44.5 -107t-108.5 -45t-110 45t-46 107z" />
<glyph unicode="&#x1ec7;" horiz-adv-x="1150" d="M90 500q0 229 140.5 371.5t361.5 142.5q209 0 340 -141t131 -361q0 -40 -6 -88h-729q22 -109 99 -170t194 -61q157 0 251 116l160 -137q-145 -188 -424 -188q-229 0 -373.5 141.5t-144.5 374.5zM256 1135l223 297h240l215 -297h-223l-111 157h-4l-113 -157h-227zM332 604 h499q-23 94 -84.5 148.5t-156.5 54.5q-96 0 -165 -53t-93 -150zM451 -313q0 63 45.5 108t109.5 45t109 -45t45 -108q0 -62 -45 -107t-109 -45t-109.5 45t-45.5 107z" />
<glyph unicode="&#x1ec8;" horiz-adv-x="622" d="M74 1831q43 37 118.5 66.5t172.5 29.5q87 0 139.5 -40.5t52.5 -119.5q0 -113 -164 -180h-168q49 35 73 53.5t47.5 46.5t23.5 50q0 18 -15.5 29.5t-44.5 11.5q-68 0 -182 -66zM186 0v1454h248v-1454h-248z" />
<glyph unicode="&#x1ec9;" horiz-adv-x="557" d="M47 1403q41 43 116 75.5t173 32.5q88 0 140 -42t52 -126q0 -69 -51.5 -126.5t-111.5 -81.5h-168q146 106 143 176q0 43 -59 43q-43 0 -83 -15.5t-98 -54.5zM164 0v999h229v-999h-229z" />
<glyph unicode="&#x1eca;" horiz-adv-x="622" d="M160 -313q0 63 45.5 108t109.5 45t109 -45t45 -108q0 -62 -45 -107t-109 -45t-109.5 45t-45.5 107zM186 0v1454h248v-1454h-248z" />
<glyph unicode="&#x1ecb;" horiz-adv-x="557" d="M123 -313q0 63 46 108t110 45t108.5 -45t44.5 -108q0 -62 -44.5 -107t-108.5 -45t-110 45t-46 107zM125 1300q0 62 45 107t109 45t109.5 -45t45.5 -107q0 -63 -45.5 -108t-109.5 -45t-109 45t-45 108zM164 0v999h229v-999h-229z" />
<glyph unicode="&#x1ecc;" horiz-adv-x="1693" d="M113 727q0 212 92 381.5t260.5 265.5t382.5 96q209 0 375.5 -92.5t262 -262.5t95.5 -388q0 -163 -55.5 -302t-153 -235.5t-233 -151t-291.5 -54.5q-214 0 -382.5 96t-260.5 265.5t-92 381.5zM369 727q0 -142 59.5 -258.5t170 -185t249.5 -68.5q202 0 338.5 145.5 t136.5 366.5q0 222 -136 367t-339 145q-139 0 -249.5 -68.5t-170 -185t-59.5 -258.5zM692 -313q0 63 46 108t110 45t108.5 -45t44.5 -108q0 -62 -44.5 -107t-108.5 -45t-110 45t-46 107z" />
<glyph unicode="&#x1ecd;" horiz-adv-x="1228" d="M90 498q0 147 64.5 264t184.5 184.5t275 67.5q231 0 378 -143.5t147 -372.5q0 -227 -147 -370.5t-378 -143.5q-233 0 -378.5 145.5t-145.5 368.5zM324 498q0 -129 81.5 -217t208.5 -88q123 0 207 86t84 219q0 136 -83 222.5t-208 86.5q-129 0 -209.5 -88t-80.5 -221z M459 -313q0 63 45.5 108t109.5 45t109 -45t45 -108q0 -62 -45 -107t-109 -45t-109.5 45t-45.5 107z" />
<glyph unicode="&#x1ece;" horiz-adv-x="1693" d="M113 727q0 212 92 381.5t260.5 265.5t382.5 96q209 0 375.5 -92.5t262 -262.5t95.5 -388q0 -163 -55.5 -302t-153 -235.5t-233 -151t-291.5 -54.5q-214 0 -382.5 96t-260.5 265.5t-92 381.5zM369 727q0 -142 59.5 -258.5t170 -185t249.5 -68.5q202 0 338.5 145.5 t136.5 366.5q0 222 -136 367t-339 145q-139 0 -249.5 -68.5t-170 -185t-59.5 -258.5zM616 1831q43 37 118.5 66.5t172.5 29.5q87 0 140 -40.5t53 -119.5q0 -113 -164 -180h-168q48 34 72.5 53.5t47.5 47t23 49.5q0 41 -59 41q-68 0 -182 -66z" />
<glyph unicode="&#x1ecf;" horiz-adv-x="1228" d="M90 498q0 147 64.5 264t184.5 184.5t275 67.5q231 0 378 -143.5t147 -372.5q0 -227 -147 -370.5t-378 -143.5q-233 0 -378.5 145.5t-145.5 368.5zM324 498q0 -129 81.5 -217t208.5 -88q123 0 207 86t84 219q0 136 -83 222.5t-208 86.5q-129 0 -209.5 -88t-80.5 -221z M383 1403q41 43 116 75.5t173 32.5q88 0 140 -42t52 -126q0 -69 -52 -126.5t-112 -81.5h-168q147 106 144 176q0 20 -16 31.5t-44 11.5q-43 0 -82.5 -15t-97.5 -55z" />
<glyph unicode="&#x1ed0;" horiz-adv-x="1693" d="M113 727q0 212 92 381.5t260.5 265.5t382.5 96q209 0 375.5 -92.5t262 -262.5t95.5 -388q0 -163 -55.5 -302t-153 -235.5t-233 -151t-291.5 -54.5q-214 0 -382.5 96t-260.5 265.5t-92 381.5zM369 727q0 -142 59.5 -258.5t170 -185t249.5 -68.5q202 0 338.5 145.5 t136.5 366.5q0 222 -136 367t-339 145q-139 0 -249.5 -68.5t-170 -185t-59.5 -258.5zM504 1587l227 273h240l221 -273h-223l-117 146h-4l-117 -146h-227zM1163 1702l168 276h252l-250 -276h-170z" />
<glyph unicode="&#x1ed1;" horiz-adv-x="1228" d="M90 498q0 147 64.5 264t184.5 184.5t275 67.5q231 0 378 -143.5t147 -372.5q0 -227 -147 -370.5t-378 -143.5q-233 0 -378.5 145.5t-145.5 368.5zM276 1135l224 297h239l215 -297h-223l-110 157h-5l-112 -157h-228zM324 498q0 -129 81.5 -217t208.5 -88q123 0 207 86 t84 219q0 136 -83 222.5t-208 86.5q-129 0 -209.5 -88t-80.5 -221zM893 1321l170 297h252l-252 -297h-170z" />
<glyph unicode="&#x1ed2;" horiz-adv-x="1693" d="M113 727q0 212 92 381.5t260.5 265.5t382.5 96q209 0 375.5 -92.5t262 -262.5t95.5 -388q0 -163 -55.5 -302t-153 -235.5t-233 -151t-291.5 -54.5q-214 0 -382.5 96t-260.5 265.5t-92 381.5zM369 727q0 -142 59.5 -258.5t170 -185t249.5 -68.5q202 0 338.5 145.5 t136.5 366.5q0 222 -136 367t-339 145q-139 0 -249.5 -68.5t-170 -185t-59.5 -258.5zM504 1587l227 273h240l221 -273h-223l-117 146h-4l-117 -146h-227zM1018 1976h252l168 -276h-170z" />
<glyph unicode="&#x1ed3;" horiz-adv-x="1228" d="M90 498q0 147 64.5 264t184.5 184.5t275 67.5q231 0 378 -143.5t147 -372.5q0 -227 -147 -370.5t-378 -143.5q-233 0 -378.5 145.5t-145.5 368.5zM276 1135l224 297h239l215 -297h-223l-110 157h-5l-112 -157h-228zM324 498q0 -129 81.5 -217t208.5 -88q123 0 207 86 t84 219q0 136 -83 222.5t-208 86.5q-129 0 -209.5 -88t-80.5 -221zM698 1618h252l170 -297h-170z" />
<glyph unicode="&#x1ed4;" horiz-adv-x="1693" d="M113 727q0 212 92 381.5t260.5 265.5t382.5 96q209 0 375.5 -92.5t262 -262.5t95.5 -388q0 -163 -55.5 -302t-153 -235.5t-233 -151t-291.5 -54.5q-214 0 -382.5 96t-260.5 265.5t-92 381.5zM369 727q0 -142 59.5 -258.5t170 -185t249.5 -68.5q202 0 338.5 145.5 t136.5 366.5q0 222 -136 367t-339 145q-139 0 -249.5 -68.5t-170 -185t-59.5 -258.5zM504 1587l227 273h240l221 -273h-223l-117 146h-4l-117 -146h-227zM1044 1939q39 35 107 62t156 27q78 0 126 -37t48 -107q0 -101 -148 -164h-151q86 64 106 87q23 26 23 48 q0 16 -14 26.5t-40 10.5q-66 0 -163 -59z" />
<glyph unicode="&#x1ed5;" horiz-adv-x="1228" d="M90 498q0 147 64.5 264t184.5 184.5t275 67.5q231 0 378 -143.5t147 -372.5q0 -227 -147 -370.5t-378 -143.5q-233 0 -378.5 145.5t-145.5 368.5zM274 1135l224 297h239l215 -297h-223l-111 157h-4l-112 -157h-228zM324 498q0 -129 81.5 -217t208.5 -88q123 0 207 86 t84 219q0 136 -83 222.5t-208 86.5q-129 0 -209.5 -88t-80.5 -221zM778 1597q41 41 111 72t164 31q82 0 132 -40t50 -120q0 -65 -49.5 -119.5t-106.5 -79.5h-159q138 101 135 168q0 19 -15 30t-41 11q-41 0 -79 -14t-93 -51z" />
<glyph unicode="&#x1ed6;" horiz-adv-x="1693" d="M113 727q0 212 92 381.5t260.5 265.5t382.5 96q209 0 375.5 -92.5t262 -262.5t95.5 -388q0 -163 -55.5 -302t-153 -235.5t-233 -151t-291.5 -54.5q-214 0 -382.5 96t-260.5 265.5t-92 381.5zM369 727q0 -142 59.5 -258.5t170 -185t249.5 -68.5q202 0 338.5 145.5 t136.5 366.5q0 222 -136 367t-339 145q-139 0 -249.5 -68.5t-170 -185t-59.5 -258.5zM481 1966q31 89 87 143t134 54q34 0 69 -10t53 -19.5t48 -26.5q6 -3 23 -13t24.5 -14t20.5 -10t24 -8t23 -2q30 0 53.5 24t44.5 77l132 -45q-32 -103 -87.5 -157t-130.5 -54 q-64 0 -161 55q-77 45 -121 45q-62 0 -105 -98zM504 1587l227 273h240l221 -273h-223l-117 146h-4l-117 -146h-227z" />
<glyph unicode="&#x1ed7;" horiz-adv-x="1228" d="M90 498q0 147 64.5 264t184.5 184.5t275 67.5q231 0 378 -143.5t147 -372.5q0 -227 -147 -370.5t-378 -143.5q-233 0 -378.5 145.5t-145.5 368.5zM248 1579q33 102 85.5 157.5t133.5 55.5q74 0 158 -49q55 -33 76.5 -42t39.5 -9q74 0 117 106l139 -47 q-32 -108 -89.5 -169.5t-137.5 -61.5q-72 0 -164 57q-82 49 -121 45q-26 -3 -53 -31t-45 -75zM276 1135l224 297h239l215 -297h-223l-110 157h-5l-112 -157h-228zM324 498q0 -129 81.5 -217t208.5 -88q123 0 207 86t84 219q0 136 -83 222.5t-208 86.5q-129 0 -209.5 -88 t-80.5 -221z" />
<glyph unicode="&#x1ed8;" horiz-adv-x="1693" d="M113 727q0 212 92 381.5t260.5 265.5t382.5 96q209 0 375.5 -92.5t262 -262.5t95.5 -388q0 -163 -55.5 -302t-153 -235.5t-233 -151t-291.5 -54.5q-214 0 -382.5 96t-260.5 265.5t-92 381.5zM369 727q0 -142 59.5 -258.5t170 -185t249.5 -68.5q202 0 338.5 145.5 t136.5 366.5q0 222 -136 367t-339 145q-139 0 -249.5 -68.5t-170 -185t-59.5 -258.5zM504 1587l227 273h240l221 -273h-223l-117 146h-4l-117 -146h-227zM692 -313q0 63 46 108t110 45t108.5 -45t44.5 -108q0 -62 -44.5 -107t-108.5 -45t-110 45t-46 107z" />
<glyph unicode="&#x1ed9;" horiz-adv-x="1228" d="M90 498q0 147 64.5 264t184.5 184.5t275 67.5q231 0 378 -143.5t147 -372.5q0 -227 -147 -370.5t-378 -143.5q-233 0 -378.5 145.5t-145.5 368.5zM274 1135l224 297h239l215 -297h-223l-111 157h-4l-112 -157h-228zM324 498q0 -129 81.5 -217t208.5 -88q123 0 207 86 t84 219q0 136 -83 222.5t-208 86.5q-129 0 -209.5 -88t-80.5 -221zM459 -313q0 63 45.5 108t109.5 45t109 -45t45 -108q0 -62 -45 -107t-109 -45t-109.5 45t-45.5 107z" />
<glyph unicode="&#x1eda;" horiz-adv-x="1781" d="M113 727q0 212 92 381.5t260.5 265.5t382.5 96q176 0 323 -66.5t248 -189.5q24 11 40 31t24 37.5t11.5 53t4 54t0.5 64.5v131h234v-145q0 -140 -57.5 -235.5t-168.5 -133.5q74 -157 74 -344q0 -163 -55.5 -302t-153 -235.5t-233 -151t-291.5 -54.5q-214 0 -382.5 96 t-260.5 265.5t-92 381.5zM369 727q0 -142 59.5 -258.5t170 -185t249.5 -68.5q202 0 338.5 145.5t136.5 366.5q0 222 -136 367t-339 145q-139 0 -249.5 -68.5t-170 -185t-59.5 -258.5zM723 1587l229 273h256l-258 -273h-227z" />
<glyph unicode="&#x1edb;" horiz-adv-x="1394" d="M90 498q0 147 64.5 264t184.5 184.5t275 67.5q146 0 262 -60.5t183 -167.5q19 10 33.5 23.5t22.5 34.5t13 36.5t6.5 46.5t2 46t0.5 53v131h233v-145q0 -147 -63.5 -245.5t-184.5 -131.5q17 -73 17 -137q0 -227 -147 -370.5t-378 -143.5q-233 0 -378.5 145.5t-145.5 368.5 zM324 498q0 -129 81.5 -217t208.5 -88q123 0 207 86t84 219q0 136 -83 222.5t-208 86.5q-129 0 -209.5 -88t-80.5 -221zM492 1139l235 295l252 2l-254 -297h-233z" />
<glyph unicode="&#x1edc;" horiz-adv-x="1781" d="M113 727q0 212 92 381.5t260.5 265.5t382.5 96q176 0 323 -66.5t248 -189.5q24 11 40 31t24 37.5t11.5 53t4 54t0.5 64.5v131h234v-145q0 -140 -57.5 -235.5t-168.5 -133.5q74 -157 74 -344q0 -163 -55.5 -302t-153 -235.5t-233 -151t-291.5 -54.5q-214 0 -382.5 96 t-260.5 265.5t-92 381.5zM369 727q0 -142 59.5 -258.5t170 -185t249.5 -68.5q202 0 338.5 145.5t136.5 366.5q0 222 -136 367t-339 145q-139 0 -249.5 -68.5t-170 -185t-59.5 -258.5zM506 1860h256l229 -273h-227z" />
<glyph unicode="&#x1edd;" horiz-adv-x="1394" d="M90 498q0 147 64.5 264t184.5 184.5t275 67.5q146 0 262 -60.5t183 -167.5q19 10 33.5 23.5t22.5 34.5t13 36.5t6.5 46.5t2 46t0.5 53v131h233v-145q0 -147 -63.5 -245.5t-184.5 -131.5q17 -73 17 -137q0 -227 -147 -370.5t-378 -143.5q-233 0 -378.5 145.5t-145.5 368.5 zM281 1430l256 -3l225 -292h-227zM324 498q0 -129 81.5 -217t208.5 -88q123 0 207 86t84 219q0 136 -83 222.5t-208 86.5q-129 0 -209.5 -88t-80.5 -221z" />
<glyph unicode="&#x1ede;" horiz-adv-x="1781" d="M113 727q0 212 92 381.5t260.5 265.5t382.5 96q176 0 323 -66.5t248 -189.5q24 11 40 31t24 37.5t11.5 53t4 54t0.5 64.5v131h234v-145q0 -140 -57.5 -235.5t-168.5 -133.5q74 -157 74 -344q0 -163 -55.5 -302t-153 -235.5t-233 -151t-291.5 -54.5q-214 0 -382.5 96 t-260.5 265.5t-92 381.5zM369 727q0 -142 59.5 -258.5t170 -185t249.5 -68.5q202 0 338.5 145.5t136.5 366.5q0 222 -136 367t-339 145q-139 0 -249.5 -68.5t-170 -185t-59.5 -258.5zM616 1831q43 37 118.5 66.5t172.5 29.5q87 0 140 -40.5t53 -119.5q0 -113 -164 -180h-168 q48 34 72.5 53.5t47.5 47t23 49.5q0 41 -59 41q-68 0 -182 -66z" />
<glyph unicode="&#x1edf;" horiz-adv-x="1394" d="M90 498q0 147 64.5 264t184.5 184.5t275 67.5q146 0 262 -60.5t183 -167.5q19 10 33.5 23.5t22.5 34.5t13 36.5t6.5 46.5t2 46t0.5 53v131h233v-145q0 -147 -63.5 -245.5t-184.5 -131.5q17 -73 17 -137q0 -227 -147 -370.5t-378 -143.5q-233 0 -378.5 145.5t-145.5 368.5 zM324 498q0 -129 81.5 -217t208.5 -88q123 0 207 86t84 219q0 136 -83 222.5t-208 86.5q-129 0 -209.5 -88t-80.5 -221zM383 1403q41 43 116 75.5t173 32.5q88 0 140 -42t52 -126q0 -69 -52 -126.5t-112 -81.5h-168q147 106 144 176q0 20 -16 31.5t-44 11.5q-43 0 -82.5 -15 t-97.5 -55z" />
<glyph unicode="&#x1ee0;" horiz-adv-x="1781" d="M113 727q0 212 92 381.5t260.5 265.5t382.5 96q176 0 323 -66.5t248 -189.5q24 11 40 31t24 37.5t11.5 53t4 54t0.5 64.5v131h234v-145q0 -140 -57.5 -235.5t-168.5 -133.5q74 -157 74 -344q0 -163 -55.5 -302t-153 -235.5t-233 -151t-291.5 -54.5q-214 0 -382.5 96 t-260.5 265.5t-92 381.5zM369 727q0 -142 59.5 -258.5t170 -185t249.5 -68.5q202 0 338.5 145.5t136.5 366.5q0 222 -136 367t-339 145q-139 0 -249.5 -68.5t-170 -185t-59.5 -258.5zM459 1653q33 96 92 153.5t141 57.5q37 0 74.5 -11t55.5 -20t52 -29q4 -2 17.5 -10t18 -11 t16 -9t18 -8t16 -5.5t18 -4.5t17.5 -1q32 0 57 25t48 82l139 -47q-68 -228 -229 -228q-69 0 -172 60q-85 49 -129 49q-67 0 -111 -107z" />
<glyph unicode="&#x1ee1;" horiz-adv-x="1394" d="M90 498q0 147 64.5 264t184.5 184.5t275 67.5q146 0 262 -60.5t183 -167.5q19 10 33.5 23.5t22.5 34.5t13 36.5t6.5 46.5t2 46t0.5 53v131h233v-145q0 -147 -63.5 -245.5t-184.5 -131.5q17 -73 17 -137q0 -227 -147 -370.5t-378 -143.5q-233 0 -378.5 145.5t-145.5 368.5 zM223 1200q32 104 91.5 164.5t142.5 60.5q37 0 71 -9t53.5 -19.5t47.5 -28.5q64 -41 93 -48q13 -3 26 -3q73 0 116 106l140 -47q-31 -114 -91 -178.5t-137 -64.5q-34 0 -69.5 11t-57.5 22.5t-53 31.5q-70 45 -115 45q-76 0 -119 -106zM324 498q0 -129 81.5 -217t208.5 -88 q123 0 207 86t84 219q0 136 -83 222.5t-208 86.5q-129 0 -209.5 -88t-80.5 -221z" />
<glyph unicode="&#x1ee2;" horiz-adv-x="1781" d="M113 727q0 212 92 381.5t260.5 265.5t382.5 96q176 0 323 -66.5t248 -189.5q24 11 40 31t24 37.5t11.5 53t4 54t0.5 64.5v131h234v-145q0 -140 -57.5 -235.5t-168.5 -133.5q74 -157 74 -344q0 -163 -55.5 -302t-153 -235.5t-233 -151t-291.5 -54.5q-214 0 -382.5 96 t-260.5 265.5t-92 381.5zM369 727q0 -142 59.5 -258.5t170 -185t249.5 -68.5q202 0 338.5 145.5t136.5 366.5q0 222 -136 367t-339 145q-139 0 -249.5 -68.5t-170 -185t-59.5 -258.5zM692 -313q0 63 46 108t110 45t108.5 -45t44.5 -108q0 -62 -44.5 -107t-108.5 -45t-110 45 t-46 107z" />
<glyph unicode="&#x1ee3;" horiz-adv-x="1394" d="M90 498q0 147 64.5 264t184.5 184.5t275 67.5q146 0 262 -60.5t183 -167.5q19 10 33.5 23.5t22.5 34.5t13 36.5t6.5 46.5t2 46t0.5 53v131h233v-145q0 -147 -63.5 -245.5t-184.5 -131.5q17 -73 17 -137q0 -227 -147 -370.5t-378 -143.5q-233 0 -378.5 145.5t-145.5 368.5 zM324 498q0 -129 81.5 -217t208.5 -88q123 0 207 86t84 219q0 136 -83 222.5t-208 86.5q-129 0 -209.5 -88t-80.5 -221zM459 -313q0 63 45.5 108t109.5 45t109 -45t45 -108q0 -62 -45 -107t-109 -45t-109.5 45t-45.5 107z" />
<glyph unicode="&#x1ee4;" horiz-adv-x="1472" d="M158 598v856h245v-838q0 -177 89 -288t243 -111q149 0 241.5 107.5t92.5 291.5v838h248v-856q0 -284 -155.5 -449t-426.5 -165q-262 0 -419.5 162.5t-157.5 451.5zM580 -313q0 63 45.5 108t109.5 45t109 -45t45 -108q0 -62 -45 -107t-109 -45t-109.5 45t-45.5 107z" />
<glyph unicode="&#x1ee5;" horiz-adv-x="1183" d="M129 391v608h229v-546q0 -145 46.5 -202.5t152.5 -57.5t181 86.5t75 240.5v479h229v-999h-229v125l-4 2q-119 -143 -305 -143q-176 0 -275.5 97t-99.5 310zM442 -313q0 63 46 108t110 45t109 -45t45 -108q0 -62 -45 -107t-109 -45t-110 45t-46 107z" />
<glyph unicode="&#x1ee6;" horiz-adv-x="1472" d="M158 598v856h245v-838q0 -177 89 -288t243 -111q149 0 241.5 107.5t92.5 291.5v838h248v-856q0 -284 -155.5 -449t-426.5 -165q-262 0 -419.5 162.5t-157.5 451.5zM502 1831q43 37 118.5 66.5t172.5 29.5q87 0 139.5 -40.5t52.5 -119.5q0 -113 -164 -180h-168 q49 35 73 53.5t47.5 46.5t23.5 50q0 18 -15.5 29.5t-44.5 11.5q-68 0 -182 -66z" />
<glyph unicode="&#x1ee7;" horiz-adv-x="1183" d="M129 391v608h229v-546q0 -145 46.5 -202.5t152.5 -57.5t181 86.5t75 240.5v479h229v-999h-229v125l-4 2q-119 -143 -305 -143q-176 0 -275.5 97t-99.5 310zM356 1403q41 43 116 75.5t173 32.5q88 0 140.5 -42t52.5 -126q0 -69 -52 -126.5t-112 -81.5h-168 q146 106 143 176q0 43 -59 43q-43 0 -82.5 -15t-97.5 -55z" />
<glyph unicode="&#x1ee8;" horiz-adv-x="1677" d="M158 598v856h245v-838q0 -177 89 -288t243 -111q149 0 241.5 107.5t92.5 291.5v838h248v-254q26 5 45.5 16t32.5 22t22 31.5t13.5 35t6.5 43t2.5 45t0.5 50.5v11v131h233v-145q0 -177 -92 -282t-264 -109v-451q0 -284 -155.5 -449t-426.5 -165q-262 0 -419.5 162.5 t-157.5 451.5zM582 1587l229 273h256l-258 -273h-227z" />
<glyph unicode="&#x1ee9;" horiz-adv-x="1406" d="M129 391v608h229v-546q0 -145 46.5 -202.5t152.5 -57.5t181 86.5t75 240.5v479h229v-225q27 8 46 20t31 31.5t18.5 36t9.5 47t3.5 49t0.5 56.5v12v131h233v-145q0 -174 -88 -278t-254 -113v-621h-229v125l-4 2q-119 -143 -305 -143q-176 0 -275.5 97t-99.5 310zM469 1139 l236 295l251 2l-254 -297h-233z" />
<glyph unicode="&#x1eea;" horiz-adv-x="1677" d="M158 598v856h245v-838q0 -177 89 -288t243 -111q149 0 241.5 107.5t92.5 291.5v838h248v-254q26 5 45.5 16t32.5 22t22 31.5t13.5 35t6.5 43t2.5 45t0.5 50.5v11v131h233v-145q0 -177 -92 -282t-264 -109v-451q0 -284 -155.5 -449t-426.5 -165q-262 0 -419.5 162.5 t-157.5 451.5zM399 1860h256l230 -273h-228z" />
<glyph unicode="&#x1eeb;" horiz-adv-x="1406" d="M129 391v608h229v-546q0 -145 46.5 -202.5t152.5 -57.5t181 86.5t75 240.5v479h229v-225q27 8 46 20t31 31.5t18.5 36t9.5 47t3.5 49t0.5 56.5v12v131h233v-145q0 -174 -88 -278t-254 -113v-621h-229v125l-4 2q-119 -143 -305 -143q-176 0 -275.5 97t-99.5 310zM264 1430 l256 -3l225 -292h-227z" />
<glyph unicode="&#x1eec;" horiz-adv-x="1677" d="M158 598v856h245v-838q0 -177 89 -288t243 -111q149 0 241.5 107.5t92.5 291.5v838h248v-254q26 5 45.5 16t32.5 22t22 31.5t13.5 35t6.5 43t2.5 45t0.5 50.5v11v131h233v-145q0 -177 -92 -282t-264 -109v-451q0 -284 -155.5 -449t-426.5 -165q-262 0 -419.5 162.5 t-157.5 451.5zM502 1831q43 37 118.5 66.5t172.5 29.5q87 0 139.5 -40.5t52.5 -119.5q0 -113 -164 -180h-168q49 35 73 53.5t47.5 46.5t23.5 50q0 18 -15.5 29.5t-44.5 11.5q-68 0 -182 -66z" />
<glyph unicode="&#x1eed;" horiz-adv-x="1406" d="M129 391v608h229v-546q0 -145 46.5 -202.5t152.5 -57.5t181 86.5t75 240.5v479h229v-225q27 8 46 20t31 31.5t18.5 36t9.5 47t3.5 49t0.5 56.5v12v131h233v-145q0 -174 -88 -278t-254 -113v-621h-229v125l-4 2q-119 -143 -305 -143q-176 0 -275.5 97t-99.5 310zM356 1403 q41 43 116 75.5t173 32.5q88 0 140.5 -42t52.5 -126q0 -69 -52 -126.5t-112 -81.5h-168q146 106 143 176q0 43 -59 43q-43 0 -82.5 -15t-97.5 -55z" />
<glyph unicode="&#x1eee;" horiz-adv-x="1677" d="M158 598v856h245v-838q0 -177 89 -288t243 -111q149 0 241.5 107.5t92.5 291.5v838h248v-254q26 5 45.5 16t32.5 22t22 31.5t13.5 35t6.5 43t2.5 45t0.5 50.5v11v131h233v-145q0 -177 -92 -282t-264 -109v-451q0 -284 -155.5 -449t-426.5 -165q-262 0 -419.5 162.5 t-157.5 451.5zM344 1653q33 95 92.5 153t141.5 58q37 0 74.5 -11t55.5 -20t52 -29q4 -2 17.5 -10t18 -11t16 -9t18 -8t16 -5.5t18 -4.5t17.5 -1q32 0 56.5 25t47.5 82l139 -47q-68 -228 -229 -228q-69 0 -172 60q-85 49 -129 49q-67 0 -111 -107z" />
<glyph unicode="&#x1eef;" horiz-adv-x="1406" d="M129 391v608h229v-546q0 -145 46.5 -202.5t152.5 -57.5t181 86.5t75 240.5v479h229v-225q27 8 46 20t31 31.5t18.5 36t9.5 47t3.5 49t0.5 56.5v12v131h233v-145q0 -174 -88 -278t-254 -113v-621h-229v125l-4 2q-119 -143 -305 -143q-176 0 -275.5 97t-99.5 310zM197 1200 q32 105 91 165t142 60q37 0 71 -9t53.5 -19.5t47.5 -28.5q64 -41 93 -48q13 -3 26 -3q74 0 117 106l139 -47q-31 -114 -90.5 -178.5t-136.5 -64.5q-78 0 -181 65q-70 45 -114 45q-76 0 -119 -106z" />
<glyph unicode="&#x1ef0;" horiz-adv-x="1677" d="M158 598v856h245v-838q0 -177 89 -288t243 -111q149 0 241.5 107.5t92.5 291.5v838h248v-254q26 5 45.5 16t32.5 22t22 31.5t13.5 35t6.5 43t2.5 45t0.5 50.5v11v131h233v-145q0 -177 -92 -282t-264 -109v-451q0 -284 -155.5 -449t-426.5 -165q-262 0 -419.5 162.5 t-157.5 451.5zM580 -313q0 63 45.5 108t109.5 45t109 -45t45 -108q0 -62 -45 -107t-109 -45t-109.5 45t-45.5 107z" />
<glyph unicode="&#x1ef1;" horiz-adv-x="1406" d="M129 391v608h229v-546q0 -145 46.5 -202.5t152.5 -57.5t181 86.5t75 240.5v479h229v-225q27 8 46 20t31 31.5t18.5 36t9.5 47t3.5 49t0.5 56.5v12v131h233v-145q0 -174 -88 -278t-254 -113v-621h-229v125l-4 2q-119 -143 -305 -143q-176 0 -275.5 97t-99.5 310zM442 -313 q0 63 46 108t110 45t109 -45t45 -108q0 -62 -45 -107t-109 -45t-110 45t-46 107z" />
<glyph unicode="&#x1ef2;" horiz-adv-x="1280" d="M29 1454h282l326 -563h4l324 563h286l-489 -811v-643h-248v643zM328 1860h256l229 -273h-227z" />
<glyph unicode="&#x1ef3;" horiz-adv-x="1095" d="M39 999h246l274 -669h4l256 669h236l-549 -1405h-238l181 461zM213 1430l256 -3l225 -292h-227z" />
<glyph unicode="&#x1ef4;" horiz-adv-x="1280" d="M29 1454h282l326 -563h4l324 563h286l-489 -811v-643h-248v643zM483 -313q0 63 46 108t110 45t109 -45t45 -108q0 -62 -45 -107t-109 -45t-110 45t-46 107z" />
<glyph unicode="&#x1ef5;" horiz-adv-x="1095" d="M39 999h246l274 -669h4l256 669h236l-549 -1405h-238l181 461zM670 -313q0 63 45.5 108t109.5 45t109 -45t45 -108q0 -62 -45 -107t-109 -45t-109.5 45t-45.5 107z" />
<glyph unicode="&#x1ef6;" horiz-adv-x="1280" d="M29 1454h282l326 -563h4l324 563h286l-489 -811v-643h-248v643zM410 1831q43 37 118 66.5t172 29.5q87 0 140 -40.5t53 -119.5q0 -113 -164 -180h-168q49 35 73 53.5t47.5 46.5t23.5 50q0 18 -15.5 29.5t-44.5 11.5q-68 0 -182 -66z" />
<glyph unicode="&#x1ef7;" horiz-adv-x="1095" d="M39 999h246l274 -669h4l256 669h236l-549 -1405h-238l181 461zM317 1403q41 43 116 75.5t173 32.5q88 0 140.5 -42t52.5 -126q0 -69 -52 -126.5t-112 -81.5h-168q146 106 143 176q0 43 -59 43q-43 0 -82.5 -15t-97.5 -55z" />
<glyph unicode="&#x1ef8;" horiz-adv-x="1280" d="M29 1454h282l326 -563h4l324 563h286l-489 -811v-643h-248v643zM252 1653q33 96 92 153.5t141 57.5q37 0 74.5 -11t56.5 -20.5t52 -28.5q4 -2 20 -11.5t21 -12.5t18 -9.5t21 -8.5t19 -4.5t21 -2.5q32 0 57 25t48 82l139 -47q-68 -228 -229 -228q-69 0 -172 60 q-85 49 -129 49q-67 0 -111 -107z" />
<glyph unicode="&#x1ef9;" horiz-adv-x="1095" d="M39 999h246l274 -669h4l256 669h236l-549 -1405h-238l181 461zM158 1200q32 105 91 165t142 60q37 0 71 -9t53.5 -19.5t47.5 -28.5q64 -41 93 -48q13 -3 26 -3q74 0 117 106l139 -47q-31 -114 -90.5 -178.5t-136.5 -64.5q-78 0 -181 65q-70 45 -114 45q-76 0 -119 -106z " />
<glyph unicode="&#x2000;" horiz-adv-x="1081" />
<glyph unicode="&#x2001;" horiz-adv-x="2163" />
<glyph unicode="&#x2002;" horiz-adv-x="956" />
<glyph unicode="&#x2003;" horiz-adv-x="1912" />
<glyph unicode="&#x2004;" horiz-adv-x="721" />
<glyph unicode="&#x2005;" horiz-adv-x="540" />
<glyph unicode="&#x2006;" horiz-adv-x="360" />
<glyph unicode="&#x2007;" />
<glyph unicode="&#x2008;" horiz-adv-x="270" />
<glyph unicode="&#x2009;" horiz-adv-x="59" />
<glyph unicode="&#x200a;" horiz-adv-x="120" />
<glyph unicode="&#x2010;" horiz-adv-x="833" d="M109 520v223h616v-223h-616z" />
<glyph unicode="&#x2011;" horiz-adv-x="833" d="M109 520v223h616v-223h-616z" />
<glyph unicode="&#x2012;" d="M109 508v205h983v-205h-983z" />
<glyph unicode="&#x2013;" horiz-adv-x="1173" d="M109 508v205h956v-205h-956z" />
<glyph unicode="&#x2014;" horiz-adv-x="2129" d="M109 508v205h1912v-205h-1912z" />
<glyph unicode="&#x2015;" horiz-adv-x="2455" d="M109 508v205h2238v-205h-2238z" />
<glyph unicode="&#x2018;" horiz-adv-x="440" d="M66 934l122 518h187l-64 -518h-245z" />
<glyph unicode="&#x2019;" horiz-adv-x="440" d="M66 936l63 518h246l-123 -518h-186z" />
<glyph unicode="&#x201a;" horiz-adv-x="487" d="M55 -160l66 518h246l-144 -518h-168z" />
<glyph unicode="&#x201c;" horiz-adv-x="792" d="M66 936l122 518h187l-64 -518h-245zM418 936l123 518h186l-63 -518h-246z" />
<glyph unicode="&#x201d;" horiz-adv-x="792" d="M66 936l63 518h246l-123 -518h-186zM418 936l63 518h246l-123 -518h-186z" />
<glyph unicode="&#x201e;" horiz-adv-x="837" d="M55 -160l64 518h246l-123 -518h-187zM408 -160l63 518h246l-123 -518h-186z" />
<glyph unicode="&#x2020;" horiz-adv-x="819" d="M113 1075v139l196 -8h39l-6 199h141l-10 -199h39l197 11v-142l-197 10h-41v-223l12 -264l-71 -119l-70 119l8 264l-2 223h-39z" />
<glyph unicode="&#x2021;" horiz-adv-x="819" d="M113 299v139l194 -8h43v143l-8 189l8 188v135h-41l-196 -8v137l194 -10h41l-8 201h141l-10 -201h39l199 10v-137l-199 8h-39v-135l10 -188l-12 -189l2 -143h39l199 8v-137l-199 6h-39l10 -194h-139l6 194h-39z" />
<glyph unicode="&#x2022;" horiz-adv-x="872" d="M207 647q0 95 67 162.5t162 67.5t163.5 -67.5t68.5 -162.5t-68 -161t-164 -66q-95 0 -162 66t-67 161z" />
<glyph unicode="&#x2026;" horiz-adv-x="2048" d="M186 135q0 63 46 108.5t110 45.5q63 0 108.5 -45.5t45.5 -108.5t-45.5 -107t-108.5 -44q-65 0 -110.5 44t-45.5 107zM868 135q0 63 46 108.5t110 45.5q63 0 108.5 -45.5t45.5 -108.5t-45.5 -107t-108.5 -44q-65 0 -110.5 44t-45.5 107zM1552 135q0 63 46 108.5t110 45.5 q63 0 108.5 -45.5t45.5 -108.5t-45.5 -107t-108.5 -44q-65 0 -110.5 44t-45.5 107z" />
<glyph unicode="&#x202f;" horiz-adv-x="432" />
<glyph unicode="&#x2030;" horiz-adv-x="3014" d="M92 1065q0 171 115.5 288t298.5 117q173 0 292.5 -113t119.5 -292q0 -171 -115.5 -289.5t-296.5 -118.5q-174 0 -294 113.5t-120 294.5zM291 1063q0 -101 62 -166.5t153 -65.5q97 0 158 67t61 165q0 101 -62.5 165t-156.5 64q-95 0 -155 -66t-60 -163zM637 35l643 1450 l184 -80l-643 -1450zM1178 391q0 171 115 288.5t296 117.5q174 0 294 -113.5t120 -292.5q0 -171 -116 -289t-298 -118q-173 0 -292 114t-119 293zM1372 389q0 -101 63 -165t156 -64q97 0 158 66t61 163q0 101 -63 165t-156 64q-97 0 -158 -66t-61 -163zM2097 391 q0 171 116 288.5t298 117.5q173 0 292 -113.5t119 -292.5q0 -171 -115 -289t-296 -118q-174 0 -294 114t-120 293zM2294 389q0 -101 62.5 -165t154.5 -64q97 0 158 66t61 163q0 101 -63 165t-156 64q-96 0 -156.5 -66t-60.5 -163z" />
<glyph unicode="&#x2032;" horiz-adv-x="530" d="M66 936l153 518h246l-213 -518h-186z" />
<glyph unicode="&#x2033;" horiz-adv-x="907" d="M66 936l153 518h246l-213 -518h-186zM442 936l154 518h246l-213 -518h-187z" />
<glyph unicode="&#x2039;" horiz-adv-x="634" d="M84 512l248 436h229l-250 -436l252 -444h-227z" />
<glyph unicode="&#x203a;" horiz-adv-x="634" d="M72 948h227l252 -444l-248 -436h-229l250 436z" />
<glyph unicode="&#x203d;" horiz-adv-x="948" d="M33 1335q71 90 175.5 139.5t229.5 49.5q84 0 159 -25.5t135 -73t95 -124.5t35 -173q0 -112 -47 -193t-133 -165q-15 -15 -49 -45t-49.5 -46t-36.5 -40t-30.5 -46t-10.5 -44l-6 -90h-189l-41 684h260l-12 -215l6 -2q40 46 60 86t20 86q0 98 -50.5 148t-133.5 50 q-60 0 -119 -32t-96 -88zM248 135q0 63 45.5 108.5t109.5 45.5q63 0 108.5 -45.5t45.5 -108.5t-45.5 -107t-108.5 -44q-65 0 -110 44t-45 107z" />
<glyph unicode="&#x2042;" horiz-adv-x="1716" d="M92 539l76 127l184 -117l-8 219h145l-10 -219l189 115l71 -125l-194 -103l194 -100l-71 -127l-185 117l6 -222h-145l8 222l-184 -117l-74 127l195 98zM524 1225l76 127l184 -117l-8 219h146l-11 -219l189 115l71 -125l-194 -103l194 -100l-71 -127l-185 117l7 -221h-146 l8 221l-184 -117l-74 127l195 98zM975 539l76 127l184 -117l-8 219h145l-10 -219l188 115l72 -125l-195 -103l195 -100l-72 -127l-184 117l6 -222h-145l8 222l-184 -117l-74 127l194 98z" />
<glyph unicode="&#x2044;" horiz-adv-x="456" d="M-152 35l641 1450l187 -80l-643 -1450z" />
<glyph unicode="&#x2051;" horiz-adv-x="833" d="M92 498l76 127l184 -117l-8 219h145l-10 -219l189 115l71 -125l-194 -103l194 -100l-71 -127l-185 117l6 -222h-145l8 222l-184 -117l-74 127l195 98zM92 1225l76 127l184 -117l-8 219h145l-10 -219l189 115l71 -125l-194 -103l194 -100l-71 -127l-185 117l6 -221h-145 l8 221l-184 -117l-74 127l195 98z" />
<glyph unicode="&#x205f;" horiz-adv-x="540" />
<glyph unicode="&#x2070;" horiz-adv-x="843" d="M57 1315q0 206 100.5 322t264.5 116q168 0 265 -118.5t97 -319.5q0 -204 -99 -321t-263 -117q-169 0 -267 119t-98 319zM252 1315q0 -123 46 -190.5t124 -67.5t123 67.5t45 190.5q0 124 -45.5 192t-122.5 68q-79 0 -124.5 -68t-45.5 -192z" />
<glyph unicode="&#x2074;" horiz-adv-x="739" d="M33 1024v119l395 594h150v-547h116v-166h-116v-131h-191v131h-354zM244 1178h157v247z" />
<glyph unicode="&#x2075;" horiz-adv-x="718" d="M37 1010l141 116q55 -71 150 -71q58 0 98.5 31.5t40.5 84.5q0 61 -38.5 92t-96.5 31q-69 0 -121 -49l-105 39l27 453h485v-174h-323l-10 -146q65 19 108 19q113 0 192 -75.5t79 -191.5q0 -130 -90.5 -210t-227.5 -80q-195 0 -309 131z" />
<glyph unicode="&#x2076;" horiz-adv-x="747" d="M57 1229q0 196 127.5 347t341.5 191l54 -153q-241 -62 -310 -219l4 -2q68 41 154 41q107 0 183.5 -72.5t76.5 -194.5q0 -124 -90 -205t-221 -81q-134 0 -227 97.5t-93 250.5zM240 1210q0 -75 39 -118t98 -43q57 0 95 34t38 88q0 52 -35 84.5t-94 32.5q-86 0 -141 -71v-7z " />
<glyph unicode="&#x2077;" horiz-adv-x="671" d="M61 1561v176h549v-129l-291 -736l-192 37l270 652h-336z" />
<glyph unicode="&#x2078;" horiz-adv-x="759" d="M59 1126q0 80 44.5 139.5t109.5 84.5v4q-41 19 -72.5 66.5t-31.5 105.5q0 106 77 164.5t195 58.5q117 0 192.5 -59t75.5 -164q0 -59 -31 -106.5t-73 -65.5v-4q66 -25 111.5 -84.5t45.5 -139.5q0 -112 -93 -179.5t-228 -67.5q-139 0 -230.5 67.5t-91.5 179.5zM252 1151 q0 -49 36.5 -80t92.5 -31q57 0 93 31.5t36 79.5q0 47 -36.5 80t-92.5 33q-56 -1 -92.5 -34t-36.5 -79zM276 1507q0 -39 29 -63.5t74 -24.5q46 0 75 24t29 64t-29 65t-75 25q-44 1 -73.5 -25t-29.5 -65z" />
<glyph unicode="&#x2079;" horiz-adv-x="745" d="M57 1462q0 124 92 205.5t224 81.5q133 0 225 -97t92 -251q0 -128 -54.5 -241.5t-161.5 -194t-247 -103.5l-51 154q243 56 303 223h-2q-75 -43 -158 -43q-107 0 -184.5 72t-77.5 194zM238 1458q0 -51 35.5 -84t93.5 -33q87 0 141 70v8q0 76 -39 119t-98 43 q-57 0 -95 -34.5t-38 -88.5z" />
<glyph unicode="&#x207a;" horiz-adv-x="722" d="M78 1219v155h201v203h163v-203h199v-155h-199v-203h-163v203h-201z" />
<glyph unicode="&#x207b;" horiz-adv-x="735" d="M86 1212v168h561v-168h-561z" />
<glyph unicode="&#x207c;" horiz-adv-x="774" d="M104 1034v150h564v-150h-564zM104 1368v150h564v-150h-564z" />
<glyph unicode="&#x207d;" horiz-adv-x="436" d="M92 1313q0 155 43 302t117 257l135 -57q-52 -79 -91.5 -219.5t-39.5 -282.5q0 -277 127 -508l-141 -51q-150 271 -150 559z" />
<glyph unicode="&#x207e;" horiz-adv-x="436" d="M49 1815l135 57q74 -110 117 -257t43 -302q0 -289 -149 -559l-142 51q127 231 127 508q0 142 -39.5 282.5t-91.5 219.5z" />
<glyph unicode="&#x207f;" horiz-adv-x="745" d="M74 -135v602h170v-76h4q81 84 201 84q108 0 168.5 -63t60.5 -197v-350h-170v305q0 152 -121 152q-67 0 -105 -40.5t-38 -115.5v-301h-170z" />
<glyph unicode="&#x2080;" horiz-adv-x="843" d="M57 287q0 206 100.5 322t264.5 116q168 0 265 -118.5t97 -319.5q0 -204 -99 -321.5t-263 -117.5q-169 0 -267 119.5t-98 319.5zM252 287q0 -123 46 -190.5t124 -67.5t123 67.5t45 190.5q0 124 -45.5 192t-122.5 68q-79 0 -124.5 -68t-45.5 -192z" />
<glyph unicode="&#x2081;" horiz-adv-x="577" d="M37 522l274 187h150v-844h-193v604l-137 -94z" />
<glyph unicode="&#x2082;" horiz-adv-x="704" d="M47 561q42 70 121 115t180 45q119 0 204 -70t85 -186q0 -77 -31.5 -139.5t-120.5 -143.5l-153 -139l2 -4h311v-174h-590l-4 129l273 266q61 60 87.5 100.5t26.5 81.5q0 44 -29 72.5t-75 28.5q-38 0 -77.5 -21t-66.5 -65z" />
<glyph unicode="&#x2083;" horiz-adv-x="718" d="M37 45l172 72q17 -50 49.5 -73.5t87.5 -23.5t87 28.5t32 74.5q0 45 -36 72.5t-99 27.5h-62v144h76q50 0 80.5 25t30.5 63q0 43 -30 69.5t-81 26.5q-82 0 -115 -76l-159 86q30 71 105 115.5t173 44.5q125 0 207 -61t82 -168q0 -126 -107 -189v-4q136 -62 136 -203 q0 -112 -85 -179t-221 -67q-118 0 -204.5 55t-118.5 140z" />
<glyph unicode="&#x2084;" horiz-adv-x="739" d="M33 -4v119l395 594h150v-547h116v-166h-116v-131h-191v131h-354zM244 150h157v247z" />
<glyph unicode="&#x2085;" horiz-adv-x="718" d="M37 -18l141 116q55 -71 150 -71q58 0 98.5 31.5t40.5 84.5q0 61 -38.5 92t-96.5 31q-69 0 -121 -49l-105 39l27 453h485v-174h-323l-10 -146q65 19 108 19q113 0 192 -75.5t79 -191.5q0 -130 -90.5 -210.5t-227.5 -80.5q-194 0 -309 132z" />
<glyph unicode="&#x2086;" horiz-adv-x="747" d="M57 201q0 196 127.5 347t341.5 191l54 -153q-241 -62 -310 -219l4 -2q68 41 154 41q107 0 183.5 -72.5t76.5 -194.5q0 -124 -90 -205t-221 -81q-134 0 -227 97.5t-93 250.5zM240 182q0 -76 39 -119t98 -43q57 0 95 34.5t38 88.5q0 52 -35 84.5t-94 32.5q-85 0 -141 -72 v-6z" />
<glyph unicode="&#x2087;" horiz-adv-x="671" d="M61 532v177h549v-129l-291 -736l-192 37l270 651h-336z" />
<glyph unicode="&#x2088;" horiz-adv-x="759" d="M59 98q0 80 44.5 139.5t109.5 84.5v4q-41 19 -72.5 66.5t-31.5 105.5q0 106 77 164.5t195 58.5q117 0 192.5 -59t75.5 -164q0 -59 -31 -106.5t-73 -65.5v-4q66 -25 111.5 -84.5t45.5 -139.5q0 -112 -93 -180t-228 -68q-139 0 -230.5 68t-91.5 180zM252 123 q0 -49 36.5 -80t92.5 -31q57 0 93 31.5t36 79.5q0 47 -36.5 80t-92.5 33q-56 -1 -92.5 -34t-36.5 -79zM276 479q0 -39 29 -63.5t74 -24.5q46 0 75 24t29 64t-29 65t-75 25q-44 1 -73.5 -25t-29.5 -65z" />
<glyph unicode="&#x2089;" horiz-adv-x="745" d="M57 434q0 124 92 205.5t224 81.5q133 0 225 -97t92 -251q0 -128 -54.5 -241.5t-161.5 -194t-247 -103.5l-51 154q243 56 303 223h-2q-75 -43 -158 -43q-107 0 -184.5 72t-77.5 194zM238 430q0 -51 35.5 -84t93.5 -33q87 0 141 70v8q0 76 -39 119t-98 43q-57 0 -95 -34.5 t-38 -88.5z" />
<glyph unicode="&#x208a;" horiz-adv-x="720" d="M78 178v156h201v203h163v-203h199v-156h-199v-203h-163v203h-201z" />
<glyph unicode="&#x208b;" horiz-adv-x="739" d="M88 170v168h561v-168h-561z" />
<glyph unicode="&#x208c;" horiz-adv-x="768" d="M102 27v149h564v-149h-564zM102 360v150h564v-150h-564z" />
<glyph unicode="&#x208d;" horiz-adv-x="454" d="M94 276q0 155 43.5 303t118.5 259l141 -64q-50 -74 -89.5 -216t-39.5 -282q0 -146 36.5 -276.5t88.5 -226.5l-149 -56q-150 275 -150 559z" />
<glyph unicode="&#x208e;" horiz-adv-x="454" d="M57 774l142 64q75 -111 118 -258.5t43 -303.5q0 -286 -149 -559l-150 56q52 96 88.5 226.5t36.5 276.5q0 140 -39.5 282t-89.5 216z" />
<glyph unicode="&#x2090;" horiz-adv-x="808" d="M61 164q0 136 79 223.5t206 87.5q119 0 209 -90h2v80h162v-600h-162v67h-4q-73 -79 -199 -79q-132 0 -212.5 86t-80.5 225zM227 164q0 -69 47 -113.5t119 -44.5q68 0 114 44t46 114q0 68 -45.5 114t-114.5 46q-70 0 -118 -45t-48 -115z" />
<glyph unicode="&#x2091;" horiz-adv-x="741" d="M61 164q0 133 91 221t229 88q132 0 218.5 -86.5t86.5 -218.5q0 -43 -4 -55h-442q14 -51 56.5 -81t102.5 -30q87 0 144 61l119 -98q-44 -50 -115 -81t-162 -31q-141 0 -232.5 87t-91.5 224zM242 236h272q-33 92 -133 92q-103 0 -139 -92z" />
<glyph unicode="&#x2092;" horiz-adv-x="761" d="M57 164q0 135 91 222t233 87q141 0 232.5 -86t91.5 -223t-91.5 -224t-232.5 -87q-142 0 -233 88t-91 223zM231 164q0 -68 42.5 -114t107.5 -46q64 0 106.5 45t42.5 115t-42 115t-107 45q-66 0 -108 -45.5t-42 -114.5z" />
<glyph unicode="&#x2093;" horiz-adv-x="651" d="M6 -135l219 309l-215 293h197l117 -164h4l116 164h195l-219 -293l223 -309h-188l-127 164h-4l-129 -164h-189z" />
<glyph unicode="&#x20a1;" horiz-adv-x="1191" d="M84 -115l145 346q-129 182 -129 467q0 327 166.5 518.5t456.5 200.5l41 96l125 -47l-25 -59q17 -2 90 -21l54 127l125 -47l-56 -135q21 -12 53 -33l-139 -176q-2 0 -2 2l-373 -897q59 -20 134 -20q145 0 258 80l133 -178q-178 -123 -391 -123q-125 0 -222 32l-75 -182 l-125 49l78 187q-37 19 -76 53l-121 -289zM350 698q0 -80 12 -145l263 627q-126 -39 -200.5 -161t-74.5 -321zM432 371q29 -46 66 -76l370 887q-48 13 -92 16z" />
<glyph unicode="&#x20a4;" horiz-adv-x="1159" d="M92 0v221h146v219h-119v162h119v139h-119v162h119v35q0 127 33.5 222t93 150.5t132.5 82t160 26.5q119 0 224.5 -51.5t175.5 -146.5l-125 -166q-47 64 -111 99.5t-131 35.5q-97 0 -153 -62.5t-56 -216.5v-8h334v-162h-334v-139h334v-162h-330v-219h617v-221h-1010z" />
<glyph unicode="&#x20a6;" horiz-adv-x="1310" d="M31 469v154h114v131h-114v153h114v500h267l243 -500h275v500h235v-500h115v-153h-115v-131h115v-154h-115v-469h-264l-229 469h-289v-469h-238v469h-114zM383 623h213l-64 131h-149v-131zM383 907h82l-78 191h-4v-191zM729 754l64 -131h137v131h-201zM860 469l66 -162h4 v162h-70z" />
<glyph unicode="&#x20a7;" horiz-adv-x="1329" d="M45 864v162h154v381h477q209 0 325.5 -101.5t137.5 -279.5h145v-162h-147q-12 -98 -54 -169.5t-108 -113.5t-147.5 -61.5t-180.5 -19.5h-203v-500h-245v864h-154zM444 707h218q195 0 233 157h-451v-157zM444 1026h449q-21 79 -80.5 122.5t-155.5 43.5h-213v-166z" />
<glyph unicode="&#x20ab;" horiz-adv-x="1247" d="M88 496q0 148 63.5 267t173.5 185t246 66q204 0 320 -137h2v274h-381v156h381v200h227v-200h127v-156h-127v-1151h-219v135h-2q-116 -151 -326 -151t-347.5 141.5t-137.5 370.5zM147 -119h969v-209h-969v209zM322 494q0 -132 80 -216.5t206 -84.5q125 0 209 84t84 217 q0 135 -81.5 224t-209.5 89q-123 0 -205.5 -86t-82.5 -227z" />
<glyph unicode="&#x20ac;" horiz-adv-x="1232" d="M23 471v162h116q-2 20 -2 65q0 49 2 74h-116v162h141q56 230 217.5 356.5t404.5 126.5q208 0 381 -119l-139 -176q-112 76 -242 76q-127 0 -223.5 -66.5t-140.5 -197.5h508v-162h-541q-2 -23 -2 -74q0 -45 2 -65h541v-162h-510q45 -132 143 -198t223 -66q145 0 258 80 l134 -178q-178 -123 -392 -123q-108 0 -204.5 28t-181 84.5t-147 151.5t-91.5 221h-139z" />
<glyph unicode="&#x20ae;" horiz-adv-x="1153" d="M68 1186v221h1017v-221h-389v-285l242 103l74 -146l-316 -133v-139l242 102l74 -145l-316 -135v-408h-247v303l-234 -100l-78 145l312 133v137l-234 -98l-76 144l310 131v391h-381z" />
<glyph unicode="&#x20b1;" horiz-adv-x="1329" d="M45 774v146h154v67h-154v146h154v274h477q175 0 285.5 -72t154.5 -202h166v-146h-139v-37v-30h139v-146h-164q-86 -274 -471 -274h-203v-500h-245v774h-154zM444 707h246q144 0 193 79h-439v-79zM444 920h467v20q0 33 -2 47h-465v-67zM444 1120h424q-51 72 -182 72h-242 v-72z" />
<glyph unicode="&#x20b2;" horiz-adv-x="1363" d="M137 698q0 295 136 481.5t378 227.5v213h180v-205q202 -13 365 -137l-141 -176q-109 85 -232 94v-420h400v-629q-72 -72 -176 -112.5t-216 -46.5v-238h-180v248q-86 15 -161 49t-140.5 92t-112 135.5t-73.5 186t-27 237.5zM387 698q0 -196 73.5 -314t196.5 -157v951 q-124 -40 -197 -161t-73 -319zM823 211q51 4 97.5 21t68.5 38v291h-166v-350z" />
<glyph unicode="&#x20b4;" horiz-adv-x="1187" d="M96 471v154h223q34 13 125 51.5t140 56.5h-488v154h602q101 82 101 160q0 68 -52.5 99.5t-136.5 31.5q-162 0 -327 -134l-146 197q228 166 479 166q204 0 327.5 -93t123.5 -227q0 -128 -117 -200h127v-154h-186q-45 -16 -135 -54.5t-129 -53.5h450v-154h-649 q-57 -57 -57 -119q0 -60 59 -99.5t174 -39.5q92 0 183 38t165 118l146 -197q-102 -96 -238 -142t-282 -46q-215 0 -332 83t-117 203q0 122 102 201h-135z" />
<glyph unicode="&#x20b5;" horiz-adv-x="1259" d="M137 698q0 295 136 481.5t378 227.5v213h180v-205q202 -13 365 -137l-141 -176q-109 85 -232 94v-987q138 8 246 96l133 -180q-172 -126 -371 -137v-238h-180v248q-86 15 -161 49t-140.5 92t-112 135.5t-73.5 186t-27 237.5zM387 698q0 -196 73.5 -314t196.5 -157v951 q-124 -40 -197 -161t-73 -319z" />
<glyph unicode="&#x20b8;" horiz-adv-x="1146" d="M68 930v176h1011v-176h-385v-930h-248v930h-378zM68 1227v180h1011v-180h-1011z" />
<glyph unicode="&#x20b9;" horiz-adv-x="1239" d="M158 569v181h260q214 0 258 151h-518v180h516q-23 64 -81.5 105t-156.5 41h-278v180h977v-180h-289v-2q61 -61 84 -144h205v-180h-195q-41 -308 -438 -352v-4l596 -545h-320z" />
<glyph unicode="&#x20ba;" horiz-adv-x="1153" d="M-23 455l209 102v141l-143 -71l-63 143l206 102v535h248v-412l330 164l63 -145l-393 -195v-139l330 164l63 -146l-393 -194v-303h113q147 0 230.5 70t148.5 245l198 -78q-88 -240 -220 -339t-331 -99h-387v381l-143 -72z" />
<glyph unicode="&#x20bc;" horiz-adv-x="1515" d="M135 0v803q0 266 138 425t386 185v207h195v-209q255 -26 390.5 -186.5t135.5 -421.5v-803h-241v799q0 157 -71.5 257.5t-203.5 129.5v-991h-215v993q-135 -30 -204.5 -133.5t-69.5 -255.5v-799h-240z" />
<glyph unicode="&#x20bd;" horiz-adv-x="1196" d="M45 266v160h154v125h-154v166h154v690h477q229 0 348 -120t119 -316q0 -111 -37 -193t-105 -131t-156.5 -72.5t-197.5 -23.5h-203v-125h482v-160h-482v-266h-245v266h-154zM444 741h197q122 0 184 61t62 152q0 108 -62.5 170t-183.5 62h-197v-445z" />
<glyph unicode="&#x2113;" horiz-adv-x="946" d="M37 262q21 18 75.5 60.5t80.5 64.5l4 541q1 100 18 179t46.5 132t72 87.5t91.5 49.5t107 15q111 0 172.5 -83t61.5 -216q0 -160 -97.5 -320.5t-279.5 -329.5v-45q0 -88 18 -151t48.5 -94.5t63 -44.5t69.5 -13q68 0 130.5 44t106.5 106l74 -51q-65 -103 -156 -156 t-198 -53q-158 0 -245.5 79.5t-102.5 221.5q-20 -14 -57.5 -43.5t-55.5 -42.5zM387 938l2 -387q293 303 293 528q0 195 -127 195q-70 0 -119 -79.5t-49 -256.5z" />
<glyph unicode="&#x2116;" horiz-adv-x="2291" d="M178 0v1454h246l711 -1044h4v1044h245v-1454h-251l-703 1026h-4v-1026h-248zM1526 1153q0 134 89.5 221.5t231.5 87.5q140 0 232 -86.5t92 -222.5q0 -138 -91.5 -225.5t-232.5 -87.5q-142 0 -231.5 88t-89.5 225zM1546 571v164h623v-164h-623zM1700 1153q0 -70 41 -116 t106 -46q64 0 107 46t43 116q0 69 -42.5 114.5t-107.5 45.5t-106 -45.5t-41 -114.5z" />
<glyph unicode="&#x2117;" horiz-adv-x="1468" d="M92 651q0 173 85 321.5t233.5 237t324.5 88.5q177 0 325 -88t232 -236.5t84 -322.5q0 -173 -84.5 -321.5t-233 -237t-325.5 -88.5q-175 0 -323 88t-233 236.5t-85 322.5zM250 649q0 -133 63 -245t174.5 -178t245.5 -66t246.5 66.5t176 179.5t63.5 245q0 133 -63 246 t-175 179.5t-246 66.5q-135 0 -247 -67.5t-175 -180.5t-63 -246zM506 324v663h252q115 0 172 -60t57 -161q0 -106 -65 -161.5t-177 -55.5h-104v-225h-135zM643 672h84q58 0 88.5 26.5t30.5 69.5q0 42 -30.5 68t-84.5 26h-88v-190z" />
<glyph unicode="&#x2120;" horiz-adv-x="1435" d="M57 889l84 106q35 -38 81.5 -60t90.5 -22q42 0 69.5 17.5t27.5 44.5q0 21 -15 36t-29 21.5t-56 21.5l-3 1.5t-3 1t-3.5 1t-3.5 1.5q-34 12 -46 16.5t-42 17t-42.5 21.5t-33 26t-29 34.5t-15.5 43t-7 54.5q2 84 60.5 136t162.5 52q123 0 236 -80l-70 -118q-83 69 -162 69 q-31 0 -57.5 -15.5t-26.5 -43.5q0 -6 1.5 -12t6 -11t9.5 -9t14 -8.5t16.5 -8t21 -9t24 -9t28.5 -10t31 -11.5q90 -33 135 -76t45 -119q0 -102 -65.5 -153.5t-167.5 -51.5q-159 0 -267 105zM664 793v661h149l191 -362l188 362h149v-661h-145v391l-147 -264h-95l-149 264v-391 h-141z" />
<glyph unicode="&#x2122;" horiz-adv-x="1413" d="M47 1323v131h502v-131h-178v-530h-148v530h-176zM641 793v661h150l190 -362l188 362h150v-661h-145v391l-148 -264h-94l-150 264v-391h-141z" />
<glyph unicode="&#x2126;" horiz-adv-x="1581" d="M109 793q0 192 84.5 345.5t241 242.5t356.5 89t356.5 -89t241 -242.5t84.5 -345.5q0 -169 -70 -315.5t-197 -252.5l2 -4h246v-221h-561v221q324 238 324 567q0 200 -118 325.5t-308 125.5q-190 -1 -307 -126t-117 -325q0 -331 321 -567v-221h-559v221h244l2 4 q-126 106 -196 252.5t-70 315.5z" />
<glyph unicode="&#x212e;" horiz-adv-x="1628" d="M113 637q0 185 94 336t254 236t352 85q198 0 360 -88.5t253.5 -239t91.5 -329.5v-19h-1065v-458q73 -54 170.5 -83.5t191.5 -29.5q131 0 241.5 45t186.5 127h113q-92 -111 -238 -175t-305 -64q-196 0 -357 88.5t-252 239t-91 329.5zM453 696h721v424q-68 52 -164 78.5 t-195 26.5q-101 0 -197.5 -29t-164.5 -84v-416z" />
<glyph unicode="&#x215b;" horiz-adv-x="1724" d="M37 1270l274 186h150v-844h-193v605l-137 -95zM412 35l641 1450l186 -80l-643 -1450zM1024 233q0 80 44.5 139.5t109.5 84.5v4q-42 19 -73.5 66.5t-31.5 105.5q0 106 77.5 164.5t195.5 58.5q117 0 192.5 -59t75.5 -164q0 -58 -31 -106t-74 -66v-4q67 -25 112.5 -84.5 t45.5 -139.5q0 -112 -93 -179.5t-228 -67.5q-139 0 -230.5 67.5t-91.5 179.5zM1217 258q0 -49 36.5 -80t92.5 -31q57 0 93 31.5t36 79.5q0 47 -36.5 80t-92.5 33q-56 -1 -92.5 -34t-36.5 -79zM1241 614q0 -39 28.5 -63.5t73.5 -24.5q46 0 75.5 24.5t29.5 63.5 q0 40 -29.5 65.5t-75.5 25.5q-44 1 -73 -25.5t-29 -65.5z" />
</font>
</defs>
</svg>
